{"asset":{"version":"2.0","generator":"rivals art-src"},"scene":0,"scenes":[{"nodes":[0]}],"nodes":[{"name":"arena","mesh":0}],"meshes":[{"name":"arena","primitives":[{"attributes":{"POSITION":0,"NORMAL":1,"TEXCOORD_0":2},"indices":3,"material":0},{"attributes":{"POSITION":4,"NORMAL":5,"TEXCOORD_0":6},"indices":7,"material":1},{"attributes":{"POSITION":8,"NORMAL":9,"TEXCOORD_0":10},"indices":11,"material":2},{"attributes":{"POSITION":12,"NORMAL":13,"TEXCOORD_0":14},"indices":15,"material":3},{"attributes":{"POSITION":16,"NORMAL":17,"TEXCOORD_0":18},"indices":19,"material":4},{"attributes":{"POSITION":20,"NORMAL":21,"TEXCOORD_0":22},"indices":23,"material":5},{"attributes":{"POSITION":24,"NORMAL":25,"TEXCOORD_0":26},"indices":27,"material":6},{"attributes":{"POSITION":28,"NORMAL":29,"TEXCOORD_0":30},"indices":31,"material":7},{"attributes":{"POSITION":32,"NORMAL":33,"TEXCOORD_0":34},"indices":35,"material":8},{"attributes":{"POSITION":36,"NORMAL":37,"TEXCOORD_0":38},"indices":39,"material":9}]}],"materials":[{"name":"floor","pbrMetallicRoughness":{"baseColorFactor":[1,1,1,1],"metallicFactor":0,"roughnessFactor":0.6,"baseColorTexture":{"index":0},"metallicRoughnessTexture":{"index":1}},"normalTexture":{"index":2,"scale":1}},{"name":"panel","pbrMetallicRoughness":{"baseColorFactor":[1,1,1,1],"metallicFactor":0,"roughnessFactor":0.6,"baseColorTexture":{"index":3},"metallicRoughnessTexture":{"index":4}},"normalTexture":{"index":5,"scale":1}},{"name":"crate","pbrMetallicRoughness":{"baseColorFactor":[1,1,1,1],"metallicFactor":0,"roughnessFactor":0.6,"baseColorTexture":{"index":6},"metallicRoughnessTexture":{"index":7}},"normalTexture":{"index":8,"scale":1}},{"name":"deck","pbrMetallicRoughness":{"baseColorFactor":[1,1,1,1],"metallicFactor":0,"roughnessFactor":0.6,"baseColorTexture":{"index":9},"metallicRoughnessTexture":{"index":10}},"normalTexture":{"index":11,"scale":1},"emissiveFactor":[1,1,1],"extensions":{"KHR_materials_emissive_strength":{"emissiveStrength":3}},"emissiveTexture":{"index":12}},{"name":"trim","pbrMetallicRoughness":{"baseColorFactor":[0.1,0.11,0.13,1],"metallicFactor":0.85,"roughnessFactor":0.3}},{"name":"glow-red","pbrMetallicRoughness":{"baseColorFactor":[0.2,0.02,0.02,1],"metallicFactor":0,"roughnessFactor":0.6},"emissiveFactor":[1,0.08888888888888889,0.05555555555555555],"extensions":{"KHR_materials_emissive_strength":{"emissiveStrength":9}}},{"name":"glow-blue","pbrMetallicRoughness":{"baseColorFactor":[0.02,0.05,0.2,1],"metallicFactor":0,"roughnessFactor":0.6},"emissiveFactor":[0.05555555555555555,0.2888888888888889,1],"extensions":{"KHR_materials_emissive_strength":{"emissiveStrength":9}}},{"name":"glow-amber","pbrMetallicRoughness":{"baseColorFactor":[0.2,0.1,0.02,1],"metallicFactor":0,"roughnessFactor":0.6},"emissiveFactor":[1,0.5,0.075],"extensions":{"KHR_materials_emissive_strength":{"emissiveStrength":8}}},{"name":"banner-red","pbrMetallicRoughness":{"baseColorFactor":[1,1,1,1],"metallicFactor":0,"roughnessFactor":0.4,"baseColorTexture":{"index":13}},"emissiveFactor":[1,1,1],"extensions":{"KHR_materials_emissive_strength":{"emissiveStrength":1.6}},"emissiveTexture":{"index":13}},{"name":"banner-blue","pbrMetallicRoughness":{"baseColorFactor":[1,1,1,1],"metallicFactor":0,"roughnessFactor":0.4,"baseColorTexture":{"index":14}},"emissiveFactor":[1,1,1],"extensions":{"KHR_materials_emissive_strength":{"emissiveStrength":1.6}},"emissiveTexture":{"index":14}}],"accessors":[{"bufferView":0,"componentType":5126,"count":24,"type":"VEC3","min":[-23,-1,-23],"max":[23,0,23]},{"bufferView":1,"componentType":5126,"count":24,"type":"VEC3"},{"bufferView":2,"componentType":5126,"count":24,"type":"VEC2"},{"bufferView":3,"componentType":5125,"count":36,"type":"SCALAR"},{"bufferView":4,"componentType":5126,"count":1824,"type":"VEC3","min":[-23,0,-23],"max":[23,5,23]},{"bufferView":5,"componentType":5126,"count":1824,"type":"VEC3"},{"bufferView":6,"componentType":5126,"count":1824,"type":"VEC2"},{"bufferView":7,"componentType":5125,"count":7344,"type":"SCALAR"},{"bufferView":8,"componentType":5126,"count":1728,"type":"VEC3","min":[-15.199999809265137,0,-16.399999618530273],"max":[15.199999809265137,1.7999999523162842,16.399999618530273]},{"bufferView":9,"componentType":5126,"count":1728,"type":"VEC3"},{"bufferView":10,"componentType":5126,"count":1728,"type":"VEC2"},{"bufferView":11,"componentType":5125,"count":7200,"type":"SCALAR"},{"bufferView":12,"componentType":5126,"count":432,"type":"VEC3","min":[-2.5,-0.1948903501033783,-2.5],"max":[2.5,2.7948904037475586,8.796146392822266]},{"bufferView":13,"componentType":5126,"count":432,"type":"VEC3"},{"bufferView":14,"componentType":5126,"count":432,"type":"VEC2"},{"bufferView":15,"componentType":5125,"count":1800,"type":"SCALAR"},{"bufferView":16,"componentType":5126,"count":3888,"type":"VEC3","min":[-23.100000381469727,0,-23.100000381469727],"max":[23.100000381469727,6.574999809265137,23.100000381469727]},{"bufferView":17,"componentType":5126,"count":3888,"type":"VEC3"},{"bufferView":18,"componentType":5126,"count":3888,"type":"VEC2"},{"bufferView":19,"componentType":5125,"count":15876,"type":"SCALAR"},{"bufferView":20,"componentType":5126,"count":96,"type":"VEC3","min":[-22,0.3100000023841858,-22],"max":[22,3.940000057220459,21]},{"bufferView":21,"componentType":5126,"count":96,"type":"VEC3"},{"bufferView":22,"componentType":5126,"count":96,"type":"VEC2"},{"bufferView":23,"componentType":5125,"count":144,"type":"SCALAR"},{"bufferView":24,"componentType":5126,"count":96,"type":"VEC3","min":[-22,0.3100000023841858,-21],"max":[22,3.940000057220459,22]},{"bufferView":25,"componentType":5126,"count":96,"type":"VEC3"},{"bufferView":26,"componentType":5126,"count":96,"type":"VEC2"},{"bufferView":27,"componentType":5125,"count":144,"type":"SCALAR"},{"bufferView":28,"componentType":5126,"count":576,"type":"VEC3","min":[-20.8700008392334,0.14834581315517426,-20.8700008392334],"max":[20.8700008392334,4.059999942779541,20.8700008392334]},{"bufferView":29,"componentType":5126,"count":576,"type":"VEC3"},{"bufferView":30,"componentType":5126,"count":576,"type":"VEC2"},{"bufferView":31,"componentType":5125,"count":1368,"type":"SCALAR"},{"bufferView":32,"componentType":5126,"count":8,"type":"VEC3","min":[-21.969999313354492,1.600000023841858,-21.969999313354492],"max":[4,3.5999999046325684,4]},{"bufferView":33,"componentType":5126,"count":8,"type":"VEC3"},{"bufferView":34,"componentType":5126,"count":8,"type":"VEC2"},{"bufferView":35,"componentType":5125,"count":12,"type":"SCALAR"},{"bufferView":36,"componentType":5126,"count":8,"type":"VEC3","min":[-4,1.600000023841858,-4],"max":[21.969999313354492,3.5999999046325684,21.969999313354492]},{"bufferView":37,"componentType":5126,"count":8,"type":"VEC3"},{"bufferView":38,"componentType":5126,"count":8,"type":"VEC2"},{"bufferView":39,"componentType":5125,"count":12,"type":"SCALAR"}],"bufferViews":[{"buffer":0,"byteOffset":0,"byteLength":288,"target":34962},{"buffer":0,"byteOffset":288,"byteLength":288,"target":34962},{"buffer":0,"byteOffset":576,"byteLength":192,"target":34962},{"buffer":0,"byteOffset":768,"byteLength":144,"target":34963},{"buffer":0,"byteOffset":912,"byteLength":21888,"target":34962},{"buffer":0,"byteOffset":22800,"byteLength":21888,"target":34962},{"buffer":0,"byteOffset":44688,"byteLength":14592,"target":34962},{"buffer":0,"byteOffset":59280,"byteLength":29376,"target":34963},{"buffer":0,"byteOffset":88656,"byteLength":20736,"target":34962},{"buffer":0,"byteOffset":109392,"byteLength":20736,"target":34962},{"buffer":0,"byteOffset":130128,"byteLength":13824,"target":34962},{"buffer":0,"byteOffset":143952,"byteLength":28800,"target":34963},{"buffer":0,"byteOffset":172752,"byteLength":5184,"target":34962},{"buffer":0,"byteOffset":177936,"byteLength":5184,"target":34962},{"buffer":0,"byteOffset":183120,"byteLength":3456,"target":34962},{"buffer":0,"byteOffset":186576,"byteLength":7200,"target":34963},{"buffer":0,"byteOffset":193776,"byteLength":46656,"target":34962},{"buffer":0,"byteOffset":240432,"byteLength":46656,"target":34962},{"buffer":0,"byteOffset":287088,"byteLength":31104,"target":34962},{"buffer":0,"byteOffset":318192,"byteLength":63504,"target":34963},{"buffer":0,"byteOffset":381696,"byteLength":1152,"target":34962},{"buffer":0,"byteOffset":382848,"byteLength":1152,"target":34962},{"buffer":0,"byteOffset":384000,"byteLength":768,"target":34962},{"buffer":0,"byteOffset":384768,"byteLength":576,"target":34963},{"buffer":0,"byteOffset":385344,"byteLength":1152,"target":34962},{"buffer":0,"byteOffset":386496,"byteLength":1152,"target":34962},{"buffer":0,"byteOffset":387648,"byteLength":768,"target":34962},{"buffer":0,"byteOffset":388416,"byteLength":576,"target":34963},{"buffer":0,"byteOffset":388992,"byteLength":6912,"target":34962},{"buffer":0,"byteOffset":395904,"byteLength":6912,"target":34962},{"buffer":0,"byteOffset":402816,"byteLength":4608,"target":34962},{"buffer":0,"byteOffset":407424,"byteLength":5472,"target":34963},{"buffer":0,"byteOffset":412896,"byteLength":96,"target":34962},{"buffer":0,"byteOffset":412992,"byteLength":96,"target":34962},{"buffer":0,"byteOffset":413088,"byteLength":64,"target":34962},{"buffer":0,"byteOffset":413152,"byteLength":48,"target":34963},{"buffer":0,"byteOffset":413200,"byteLength":96,"target":34962},{"buffer":0,"byteOffset":413296,"byteLength":96,"target":34962},{"buffer":0,"byteOffset":413392,"byteLength":64,"target":34962},{"buffer":0,"byteOffset":413456,"byteLength":48,"target":34963}],"buffers":[{"byteLength":413504,"uri":"data:application/octet-stream;base64,"}],"images":[{"uri":"textures/floor.png"},{"uri":"data/floor_mr.png"},{"uri":"data/floor_n.png"},{"uri":"textures/panel.png"},{"uri":"data/panel_mr.png"},{"uri":"data/panel_n.png"},{"uri":"textures/crate.png"},{"uri":"data/crate_mr.png"},{"uri":"data/crate_n.png"},{"uri":"textures/deck.png"},{"uri":"data/deck_mr.png"},{"uri":"data/deck_n.png"},{"uri":"textures/deck_e.png"},{"uri":"textures/logo_red.png"},{"uri":"textures/logo_blue.png"}],"samplers":[{"magFilter":9729,"minFilter":9987,"wrapS":10497,"wrapT":10497},{"magFilter":9729,"minFilter":9987,"wrapS":10497,"wrapT":10497},{"magFilter":9729,"minFilter":9987,"wrapS":10497,"wrapT":10497},{"magFilter":9729,"minFilter":9987,"wrapS":10497,"wrapT":10497},{"magFilter":9729,"minFilter":9987,"wrapS":10497,"wrapT":10497},{"magFilter":9729,"minFilter":9987,"wrapS":10497,"wrapT":10497},{"magFilter":9729,"minFilter":9987,"wrapS":10497,"wrapT":10497},{"magFilter":9729,"minFilter":9987,"wrapS":10497,"wrapT":10497},{"magFilter":9729,"minFilter":9987,"wrapS":10497,"wrapT":10497},{"magFilter":9729,"minFilter":9987,"wrapS":10497,"wrapT":10497},{"magFilter":9729,"minFilter":9987,"wrapS":10497,"wrapT":10497},{"magFilter":9729,"minFilter":9987,"wrapS":10497,"wrapT":10497},{"magFilter":9729,"minFilter":9987,"wrapS":10497,"wrapT":10497},{"magFilter":9729,"minFilter":9987,"wrapS":10497,"wrapT":10497},{"magFilter":9729,"minFilter":9987,"wrapS":10497,"wrapT":10497}],"textures":[{"source":0,"sampler":0},{"source":1,"sampler":1},{"source":2,"sampler":2},{"source":3,"sampler":3},{"source":4,"sampler":4},{"source":5,"sampler":5},{"source":6,"sampler":6},{"source":7,"sampler":7},{"source":8,"sampler":8},{"source":9,"sampler":9},{"source":10,"sampler":10},{"source":11,"sampler":11},{"source":12,"sampler":12},{"source":13,"sampler":13},{"source":14,"sampler":14}],"extensionsUsed":["KHR_materials_emissive_strength"]}