{"asset":{"version":"2.0","generator":"rivals art-src"},"scene":0,"scenes":[{"nodes":[0]}],"nodes":[{"name":"flash","mesh":0}],"meshes":[{"name":"flash","primitives":[{"attributes":{"POSITION":0,"NORMAL":1,"TEXCOORD_0":2},"indices":3,"material":0}]}],"materials":[{"name":"flash","pbrMetallicRoughness":{"baseColorFactor":[1,0.7,0.3,0.9],"metallicFactor":0,"roughnessFactor":0.6},"emissiveFactor":[1,0.5625,0.1875],"extensions":{"KHR_materials_emissive_strength":{"emissiveStrength":16}},"alphaMode":"BLEND","doubleSided":true}],"accessors":[{"bufferView":0,"componentType":5126,"count":89,"type":"VEC3","min":[-0.05000000074505806,-0.04330126941204071,-0.2199999988079071],"max":[0.05000000074505806,0.04330126941204071,0.03328697755932808]},{"bufferView":1,"componentType":5126,"count":89,"type":"VEC3"},{"bufferView":2,"componentType":5126,"count":89,"type":"VEC2"},{"bufferView":3,"componentType":5125,"count":378,"type":"SCALAR"}],"bufferViews":[{"buffer":0,"byteOffset":0,"byteLength":1068,"target":34962},{"buffer":0,"byteOffset":1068,"byteLength":1068,"target":34962},{"buffer":0,"byteOffset":2136,"byteLength":712,"target":34962},{"buffer":0,"byteOffset":2848,"byteLength":1512,"target":34963}],"buffers":[{"byteLength":4360,"uri":"data:application/octet-stream;base64,"}],"extensionsUsed":["KHR_materials_emissive_strength"]}