{"asset":{"version":"2.0","generator":"rivals art-src"},"scene":0,"scenes":[{"nodes":[0]}],"nodes":[{"name":"knife","mesh":0}],"meshes":[{"name":"knife","primitives":[{"attributes":{"POSITION":0,"NORMAL":1,"TEXCOORD_0":2},"indices":3,"material":3},{"attributes":{"POSITION":4,"NORMAL":5,"TEXCOORD_0":6},"indices":7,"material":0},{"attributes":{"POSITION":8,"NORMAL":9,"TEXCOORD_0":10},"indices":11,"material":7},{"attributes":{"POSITION":12,"NORMAL":13,"TEXCOORD_0":14},"indices":15,"material":2},{"attributes":{"POSITION":16,"NORMAL":17,"TEXCOORD_0":18},"indices":19,"material":8},{"attributes":{"POSITION":20,"NORMAL":21,"TEXCOORD_0":22},"indices":23,"material":10},{"attributes":{"POSITION":24,"NORMAL":25,"TEXCOORD_0":26},"indices":27,"material":9}]}],"materials":[{"name":"gunmetal","pbrMetallicRoughness":{"baseColorFactor":[1,1,1,1],"metallicFactor":0,"roughnessFactor":0.6,"baseColorTexture":{"index":0},"metallicRoughnessTexture":{"index":1}},"normalTexture":{"index":2,"scale":1}},{"name":"polymer","pbrMetallicRoughness":{"baseColorFactor":[0.1,0.105,0.11,1],"metallicFactor":0,"roughnessFactor":0.55}},{"name":"accent","pbrMetallicRoughness":{"baseColorFactor":[0.95,0.42,0.06,1],"metallicFactor":0.1,"roughnessFactor":0.45}},{"name":"steel","pbrMetallicRoughness":{"baseColorFactor":[0.82,0.84,0.88,1],"metallicFactor":1,"roughnessFactor":0.18}},{"name":"lens","pbrMetallicRoughness":{"baseColorFactor":[0.1,0,0,1],"metallicFactor":0,"roughnessFactor":0.6},"emissiveFactor":[1,0.06666666666666667,0.03333333333333333],"extensions":{"KHR_materials_emissive_strength":{"emissiveStrength":3}}},{"name":"olive","pbrMetallicRoughness":{"baseColorFactor":[0.18,0.24,0.14,1],"metallicFactor":0.05,"roughnessFactor":0.65}},{"name":"hazard","pbrMetallicRoughness":{"baseColorFactor":[0.95,0.72,0.05,1],"metallicFactor":0,"roughnessFactor":0.5}},{"name":"grip","pbrMetallicRoughness":{"baseColorFactor":[0.11,0.08,0.06,1],"metallicFactor":0,"roughnessFactor":0.9}},{"name":"glove","pbrMetallicRoughness":{"baseColorFactor":[0.22,0.18,0.13,1],"metallicFactor":0,"roughnessFactor":0.8}},{"name":"sleeve","pbrMetallicRoughness":{"baseColorFactor":[0.08,0.13,0.21,1],"metallicFactor":0,"roughnessFactor":0.95}},{"name":"cuff","pbrMetallicRoughness":{"baseColorFactor":[0.11,0.12,0.09,1],"metallicFactor":0,"roughnessFactor":0.85}}],"accessors":[{"bufferView":0,"componentType":5126,"count":42,"type":"VEC3","min":[-0.003000000026077032,-0.017999999225139618,-0.25],"max":[0.003000000026077032,0.017999999225139618,-0.019999999552965164]},{"bufferView":1,"componentType":5126,"count":42,"type":"VEC3"},{"bufferView":2,"componentType":5126,"count":42,"type":"VEC2"},{"bufferView":3,"componentType":5125,"count":72,"type":"SCALAR"},{"bufferView":4,"componentType":5126,"count":262,"type":"VEC3","min":[-0.01600000075995922,-0.02500000037252903,-0.01600000075995922],"max":[0.01600000075995922,0.02500000037252903,0.12600000202655792]},{"bufferView":5,"componentType":5126,"count":262,"type":"VEC3"},{"bufferView":6,"componentType":5126,"count":262,"type":"VEC2"},{"bufferView":7,"componentType":5125,"count":1020,"type":"SCALAR"},{"bufferView":8,"componentType":5126,"count":138,"type":"VEC3","min":[-0.014000000432133675,-0.013314791023731232,0.0010000000474974513],"max":[0.014000000432133675,0.013314791023731232,0.09099999815225601]},{"bufferView":9,"componentType":5126,"count":138,"type":"VEC3"},{"bufferView":10,"componentType":5126,"count":138,"type":"VEC2"},{"bufferView":11,"componentType":5125,"count":360,"type":"SCALAR"},{"bufferView":12,"componentType":5126,"count":138,"type":"VEC3","min":[-0.014000000432133675,-0.013314791023731232,0.01899999938905239],"max":[0.014000000432133675,0.013314791023731232,0.10899999737739563]},{"bufferView":13,"componentType":5126,"count":138,"type":"VEC3"},{"bufferView":14,"componentType":5126,"count":138,"type":"VEC2"},{"bufferView":15,"componentType":5125,"count":360,"type":"SCALAR"},{"bufferView":16,"componentType":5126,"count":1080,"type":"VEC3","min":[-0.029249999672174454,-0.04149999842047691,-0.009999999776482582],"max":[0.0364999994635582,0.03350000083446503,0.11999999731779099]},{"bufferView":17,"componentType":5126,"count":1080,"type":"VEC3"},{"bufferView":18,"componentType":5126,"count":1080,"type":"VEC2"},{"bufferView":19,"componentType":5125,"count":4500,"type":"SCALAR"},{"bufferView":20,"componentType":5126,"count":216,"type":"VEC3","min":[-0.012316197156906128,-0.08101506531238556,0.07254654914140701],"max":[0.07483940571546555,-0.0019543454982340336,0.15559522807598114]},{"bufferView":21,"componentType":5126,"count":216,"type":"VEC3"},{"bufferView":22,"componentType":5126,"count":216,"type":"VEC2"},{"bufferView":23,"componentType":5125,"count":900,"type":"SCALAR"},{"bufferView":24,"componentType":5126,"count":216,"type":"VEC3","min":[0.0050118593499064445,-0.274776428937912,0.10710940510034561],"max":[0.21583057940006256,-0.025881938636302948,0.40600699186325073]},{"bufferView":25,"componentType":5126,"count":216,"type":"VEC3"},{"bufferView":26,"componentType":5126,"count":216,"type":"VEC2"},{"bufferView":27,"componentType":5125,"count":900,"type":"SCALAR"}],"bufferViews":[{"buffer":0,"byteOffset":0,"byteLength":504,"target":34962},{"buffer":0,"byteOffset":504,"byteLength":504,"target":34962},{"buffer":0,"byteOffset":1008,"byteLength":336,"target":34962},{"buffer":0,"byteOffset":1344,"byteLength":288,"target":34963},{"buffer":0,"byteOffset":1632,"byteLength":3144,"target":34962},{"buffer":0,"byteOffset":4776,"byteLength":3144,"target":34962},{"buffer":0,"byteOffset":7920,"byteLength":2096,"target":34962},{"buffer":0,"byteOffset":10016,"byteLength":4080,"target":34963},{"buffer":0,"byteOffset":14096,"byteLength":1656,"target":34962},{"buffer":0,"byteOffset":15752,"byteLength":1656,"target":34962},{"buffer":0,"byteOffset":17408,"byteLength":1104,"target":34962},{"buffer":0,"byteOffset":18512,"byteLength":1440,"target":34963},{"buffer":0,"byteOffset":19952,"byteLength":1656,"target":34962},{"buffer":0,"byteOffset":21608,"byteLength":1656,"target":34962},{"buffer":0,"byteOffset":23264,"byteLength":1104,"target":34962},{"buffer":0,"byteOffset":24368,"byteLength":1440,"target":34963},{"buffer":0,"byteOffset":25808,"byteLength":12960,"target":34962},{"buffer":0,"byteOffset":38768,"byteLength":12960,"target":34962},{"buffer":0,"byteOffset":51728,"byteLength":8640,"target":34962},{"buffer":0,"byteOffset":60368,"byteLength":18000,"target":34963},{"buffer":0,"byteOffset":78368,"byteLength":2592,"target":34962},{"buffer":0,"byteOffset":80960,"byteLength":2592,"target":34962},{"buffer":0,"byteOffset":83552,"byteLength":1728,"target":34962},{"buffer":0,"byteOffset":85280,"byteLength":3600,"target":34963},{"buffer":0,"byteOffset":88880,"byteLength":2592,"target":34962},{"buffer":0,"byteOffset":91472,"byteLength":2592,"target":34962},{"buffer":0,"byteOffset":94064,"byteLength":1728,"target":34962},{"buffer":0,"byteOffset":95792,"byteLength":3600,"target":34963}],"buffers":[{"byteLength":99392,"uri":"data:application/octet-stream;base64,"}],"images":[{"uri":"textures/gunmetal.png"},{"uri":"data/gunmetal_mr.png"},{"uri":"data/gunmetal_n.png"}],"samplers":[{"magFilter":9729,"minFilter":9987,"wrapS":10497,"wrapT":10497},{"magFilter":9729,"minFilter":9987,"wrapS":10497,"wrapT":10497},{"magFilter":9729,"minFilter":9987,"wrapS":10497,"wrapT":10497}],"textures":[{"source":0,"sampler":0},{"source":1,"sampler":1},{"source":2,"sampler":2}],"extensionsUsed":["KHR_materials_emissive_strength"]}