{"asset":{"version":"2.0","generator":"rivals art-src"},"scene":0,"scenes":[{"nodes":[0]}],"nodes":[{"name":"launcher","mesh":0}],"meshes":[{"name":"launcher","primitives":[{"attributes":{"POSITION":0,"NORMAL":1,"TEXCOORD_0":2},"indices":3,"material":5},{"attributes":{"POSITION":4,"NORMAL":5,"TEXCOORD_0":6},"indices":7,"material":0},{"attributes":{"POSITION":8,"NORMAL":9,"TEXCOORD_0":10},"indices":11,"material":6},{"attributes":{"POSITION":12,"NORMAL":13,"TEXCOORD_0":14},"indices":15,"material":1},{"attributes":{"POSITION":16,"NORMAL":17,"TEXCOORD_0":18},"indices":19,"material":4}]}],"materials":[{"name":"gunmetal","pbrMetallicRoughness":{"baseColorFactor":[1,1,1,1],"metallicFactor":0,"roughnessFactor":0.6,"baseColorTexture":{"index":0},"metallicRoughnessTexture":{"index":1}},"normalTexture":{"index":2,"scale":1}},{"name":"polymer","pbrMetallicRoughness":{"baseColorFactor":[0.05,0.055,0.06,1],"metallicFactor":0,"roughnessFactor":0.75}},{"name":"accent","pbrMetallicRoughness":{"baseColorFactor":[0.95,0.42,0.06,1],"metallicFactor":0.1,"roughnessFactor":0.45}},{"name":"steel","pbrMetallicRoughness":{"baseColorFactor":[0.82,0.84,0.88,1],"metallicFactor":1,"roughnessFactor":0.18}},{"name":"lens","pbrMetallicRoughness":{"baseColorFactor":[0.1,0,0,1],"metallicFactor":0,"roughnessFactor":0.6},"emissiveFactor":[1,0.06666666666666667,0.03333333333333333],"extensions":{"KHR_materials_emissive_strength":{"emissiveStrength":3}}},{"name":"olive","pbrMetallicRoughness":{"baseColorFactor":[0.18,0.24,0.14,1],"metallicFactor":0.05,"roughnessFactor":0.65}},{"name":"hazard","pbrMetallicRoughness":{"baseColorFactor":[0.95,0.72,0.05,1],"metallicFactor":0,"roughnessFactor":0.5}},{"name":"grip","pbrMetallicRoughness":{"baseColorFactor":[0.11,0.08,0.06,1],"metallicFactor":0,"roughnessFactor":0.9}}],"accessors":[{"bufferView":3,"componentType":5126,"count":86,"type":"VEC3","min":[-0.06499999761581421,-0.06499999761581421,-0.550000011920929],"max":[0.06499999761581421,0.06499999761581421,0.15000000596046448]},{"bufferView":4,"componentType":5126,"count":86,"type":"VEC3"},{"bufferView":5,"componentType":5126,"count":86,"type":"VEC2"},{"bufferView":6,"componentType":5125,"count":240,"type":"SCALAR"},{"bufferView":7,"componentType":5126,"count":388,"type":"VEC3","min":[-0.08500000089406967,-0.08500000089406967,-0.625],"max":[0.08500000089406967,0.10000000149011612,0.2199999988079071]},{"bufferView":8,"componentType":5126,"count":388,"type":"VEC3"},{"bufferView":9,"componentType":5126,"count":388,"type":"VEC2"},{"bufferView":10,"componentType":5125,"count":1380,"type":"SCALAR"},{"bufferView":11,"componentType":5126,"count":172,"type":"VEC3","min":[-0.06700000166893005,-0.06700000166893005,-0.4449999928474426],"max":[0.06700000166893005,0.06700000166893005,-0.33000001311302185]},{"bufferView":12,"componentType":5126,"count":172,"type":"VEC3"},{"bufferView":13,"componentType":5126,"count":172,"type":"VEC2"},{"bufferView":14,"componentType":5125,"count":480,"type":"SCALAR"},{"bufferView":15,"componentType":5126,"count":24,"type":"VEC3","min":[-0.019999999552965164,-0.18000000715255737,-0.05000000074505806],"max":[0.019999999552965164,-0.07000000029802322,0.019999999552965164]},{"bufferView":16,"componentType":5126,"count":24,"type":"VEC3"},{"bufferView":17,"componentType":5126,"count":24,"type":"VEC2"},{"bufferView":18,"componentType":5125,"count":36,"type":"SCALAR"},{"bufferView":19,"componentType":5126,"count":120,"type":"VEC3","min":[0.0405038483440876,0.058003850281238556,-0.16500000655651093],"max":[0.06949614733457565,0.09199614822864532,-0.1589999943971634]},{"bufferView":20,"componentType":5126,"count":120,"type":"VEC3"},{"bufferView":21,"componentType":5126,"count":120,"type":"VEC2"},{"bufferView":22,"componentType":5125,"count":420,"type":"SCALAR"}],"bufferViews":[{"buffer":0,"byteOffset":0,"byteLength":45491},{"buffer":0,"byteOffset":45492,"byteLength":5393},{"buffer":0,"byteOffset":50888,"byteLength":28737},{"buffer":0,"byteOffset":79628,"byteLength":1032,"target":34962},{"buffer":0,"byteOffset":80660,"byteLength":1032,"target":34962},{"buffer":0,"byteOffset":81692,"byteLength":688,"target":34962},{"buffer":0,"byteOffset":82380,"byteLength":960,"target":34963},{"buffer":0,"byteOffset":83340,"byteLength":4656,"target":34962},{"buffer":0,"byteOffset":87996,"byteLength":4656,"target":34962},{"buffer":0,"byteOffset":92652,"byteLength":3104,"target":34962},{"buffer":0,"byteOffset":95756,"byteLength":5520,"target":34963},{"buffer":0,"byteOffset":101276,"byteLength":2064,"target":34962},{"buffer":0,"byteOffset":103340,"byteLength":2064,"target":34962},{"buffer":0,"byteOffset":105404,"byteLength":1376,"target":34962},{"buffer":0,"byteOffset":106780,"byteLength":1920,"target":34963},{"buffer":0,"byteOffset":108700,"byteLength":288,"target":34962},{"buffer":0,"byteOffset":108988,"byteLength":288,"target":34962},{"buffer":0,"byteOffset":109276,"byteLength":192,"target":34962},{"buffer":0,"byteOffset":109468,"byteLength":144,"target":34963},{"buffer":0,"byteOffset":109612,"byteLength":1440,"target":34962},{"buffer":0,"byteOffset":111052,"byteLength":1440,"target":34962},{"buffer":0,"byteOffset":112492,"byteLength":960,"target":34962},{"buffer":0,"byteOffset":113452,"byteLength":1680,"target":34963}],"buffers":[{"byteLength":115132,"uri":"data:application/octet-stream;base64,"}],"images":[{"name":"gunmetal.png","mimeType":"image/png","bufferView":0},{"name":"gunmetal_mr.png","mimeType":"image/png","bufferView":1},{"name":"gunmetal_n.png","mimeType":"image/png","bufferView":2}],"samplers":[{"magFilter":9729,"minFilter":9987,"wrapS":10497,"wrapT":10497},{"magFilter":9729,"minFilter":9987,"wrapS":10497,"wrapT":10497},{"magFilter":9729,"minFilter":9987,"wrapS":10497,"wrapT":10497}],"textures":[{"source":0,"sampler":0},{"source":1,"sampler":1},{"source":2,"sampler":2}],"extensionsUsed":["KHR_materials_emissive_strength"]}