{"asset":{"version":"2.0","generator":"rivals art-src"},"scene":0,"scenes":[{"nodes":[0]}],"nodes":[{"name":"mag","mesh":0}],"meshes":[{"name":"mag","primitives":[{"attributes":{"POSITION":0,"NORMAL":1,"TEXCOORD_0":2},"indices":3,"material":0},{"attributes":{"POSITION":4,"NORMAL":5,"TEXCOORD_0":6},"indices":7,"material":2}]}],"materials":[{"name":"gunmetal","pbrMetallicRoughness":{"baseColorFactor":[1,1,1,1],"metallicFactor":0,"roughnessFactor":0.6,"baseColorTexture":{"index":0},"metallicRoughnessTexture":{"index":1}},"normalTexture":{"index":2,"scale":1}},{"name":"polymer","pbrMetallicRoughness":{"baseColorFactor":[0.1,0.105,0.11,1],"metallicFactor":0,"roughnessFactor":0.55}},{"name":"accent","pbrMetallicRoughness":{"baseColorFactor":[0.95,0.42,0.06,1],"metallicFactor":0.1,"roughnessFactor":0.45}},{"name":"steel","pbrMetallicRoughness":{"baseColorFactor":[0.82,0.84,0.88,1],"metallicFactor":1,"roughnessFactor":0.18}},{"name":"lens","pbrMetallicRoughness":{"baseColorFactor":[0.1,0,0,1],"metallicFactor":0,"roughnessFactor":0.6},"emissiveFactor":[1,0.06666666666666667,0.03333333333333333],"extensions":{"KHR_materials_emissive_strength":{"emissiveStrength":3}}},{"name":"olive","pbrMetallicRoughness":{"baseColorFactor":[0.18,0.24,0.14,1],"metallicFactor":0.05,"roughnessFactor":0.65}},{"name":"hazard","pbrMetallicRoughness":{"baseColorFactor":[0.95,0.72,0.05,1],"metallicFactor":0,"roughnessFactor":0.5}},{"name":"grip","pbrMetallicRoughness":{"baseColorFactor":[0.11,0.08,0.06,1],"metallicFactor":0,"roughnessFactor":0.9}},{"name":"glove","pbrMetallicRoughness":{"baseColorFactor":[0.22,0.18,0.13,1],"metallicFactor":0,"roughnessFactor":0.8}},{"name":"sleeve","pbrMetallicRoughness":{"baseColorFactor":[0.08,0.13,0.21,1],"metallicFactor":0,"roughnessFactor":0.95}},{"name":"cuff","pbrMetallicRoughness":{"baseColorFactor":[0.11,0.12,0.09,1],"metallicFactor":0,"roughnessFactor":0.85}}],"accessors":[{"bufferView":0,"componentType":5126,"count":432,"type":"VEC3","min":[-0.01600000075995922,-0.16382834315299988,-0.02500000037252903],"max":[0.01600000075995922,0,0.048931099474430084]},{"bufferView":1,"componentType":5126,"count":432,"type":"VEC3"},{"bufferView":2,"componentType":5126,"count":432,"type":"VEC2"},{"bufferView":3,"componentType":5125,"count":1800,"type":"SCALAR"},{"bufferView":4,"componentType":5126,"count":216,"type":"VEC3","min":[-0.019999999552965164,-0.18058735132217407,-0.002082756720483303],"max":[0.019999999552965164,-0.14941264688968658,0.06208275631070137]},{"bufferView":5,"componentType":5126,"count":216,"type":"VEC3"},{"bufferView":6,"componentType":5126,"count":216,"type":"VEC2"},{"bufferView":7,"componentType":5125,"count":900,"type":"SCALAR"}],"bufferViews":[{"buffer":0,"byteOffset":0,"byteLength":5184,"target":34962},{"buffer":0,"byteOffset":5184,"byteLength":5184,"target":34962},{"buffer":0,"byteOffset":10368,"byteLength":3456,"target":34962},{"buffer":0,"byteOffset":13824,"byteLength":7200,"target":34963},{"buffer":0,"byteOffset":21024,"byteLength":2592,"target":34962},{"buffer":0,"byteOffset":23616,"byteLength":2592,"target":34962},{"buffer":0,"byteOffset":26208,"byteLength":1728,"target":34962},{"buffer":0,"byteOffset":27936,"byteLength":3600,"target":34963}],"buffers":[{"byteLength":31536,"uri":"data:application/octet-stream;base64,"}],"images":[{"uri":"textures/gunmetal.png"},{"uri":"data/gunmetal_mr.png"},{"uri":"data/gunmetal_n.png"}],"samplers":[{"magFilter":9729,"minFilter":9987,"wrapS":10497,"wrapT":10497},{"magFilter":9729,"minFilter":9987,"wrapS":10497,"wrapT":10497},{"magFilter":9729,"minFilter":9987,"wrapS":10497,"wrapT":10497}],"textures":[{"source":0,"sampler":0},{"source":1,"sampler":1},{"source":2,"sampler":2}],"extensionsUsed":["KHR_materials_emissive_strength"]}