{"asset":{"version":"2.0","generator":"rivals art-src"},"scene":0,"scenes":[{"nodes":[0]}],"nodes":[{"name":"rifle","mesh":0}],"meshes":[{"name":"rifle","primitives":[{"attributes":{"POSITION":0,"NORMAL":1,"TEXCOORD_0":2},"indices":3,"material":0},{"attributes":{"POSITION":4,"NORMAL":5,"TEXCOORD_0":6},"indices":7,"material":1},{"attributes":{"POSITION":8,"NORMAL":9,"TEXCOORD_0":10},"indices":11,"material":2},{"attributes":{"POSITION":12,"NORMAL":13,"TEXCOORD_0":14},"indices":15,"material":4},{"attributes":{"POSITION":16,"NORMAL":17,"TEXCOORD_0":18},"indices":19,"material":8},{"attributes":{"POSITION":20,"NORMAL":21,"TEXCOORD_0":22},"indices":23,"material":10},{"attributes":{"POSITION":24,"NORMAL":25,"TEXCOORD_0":26},"indices":27,"material":9}]}],"materials":[{"name":"gunmetal","pbrMetallicRoughness":{"baseColorFactor":[1,1,1,1],"metallicFactor":0,"roughnessFactor":0.6,"baseColorTexture":{"index":0},"metallicRoughnessTexture":{"index":1}},"normalTexture":{"index":2,"scale":1}},{"name":"polymer","pbrMetallicRoughness":{"baseColorFactor":[0.1,0.105,0.11,1],"metallicFactor":0,"roughnessFactor":0.55}},{"name":"accent","pbrMetallicRoughness":{"baseColorFactor":[0.95,0.42,0.06,1],"metallicFactor":0.1,"roughnessFactor":0.45}},{"name":"steel","pbrMetallicRoughness":{"baseColorFactor":[0.82,0.84,0.88,1],"metallicFactor":1,"roughnessFactor":0.18}},{"name":"lens","pbrMetallicRoughness":{"baseColorFactor":[0.1,0,0,1],"metallicFactor":0,"roughnessFactor":0.6},"emissiveFactor":[1,0.06666666666666667,0.03333333333333333],"extensions":{"KHR_materials_emissive_strength":{"emissiveStrength":3}}},{"name":"olive","pbrMetallicRoughness":{"baseColorFactor":[0.18,0.24,0.14,1],"metallicFactor":0.05,"roughnessFactor":0.65}},{"name":"hazard","pbrMetallicRoughness":{"baseColorFactor":[0.95,0.72,0.05,1],"metallicFactor":0,"roughnessFactor":0.5}},{"name":"grip","pbrMetallicRoughness":{"baseColorFactor":[0.11,0.08,0.06,1],"metallicFactor":0,"roughnessFactor":0.9}},{"name":"glove","pbrMetallicRoughness":{"baseColorFactor":[0.22,0.18,0.13,1],"metallicFactor":0,"roughnessFactor":0.8}},{"name":"sleeve","pbrMetallicRoughness":{"baseColorFactor":[0.08,0.13,0.21,1],"metallicFactor":0,"roughnessFactor":0.95}},{"name":"cuff","pbrMetallicRoughness":{"baseColorFactor":[0.11,0.12,0.09,1],"metallicFactor":0,"roughnessFactor":0.85}}],"accessors":[{"bufferView":0,"componentType":5126,"count":602,"type":"VEC3","min":[-0.027499999850988388,-0.03750000149011612,-0.5550000071525574],"max":[0.027499999850988388,0.10449855774641037,0.05000000074505806]},{"bufferView":1,"componentType":5126,"count":602,"type":"VEC3"},{"bufferView":2,"componentType":5126,"count":602,"type":"VEC2"},{"bufferView":3,"componentType":5125,"count":2256,"type":"SCALAR"},{"bufferView":4,"componentType":5126,"count":264,"type":"VEC3","min":[-0.029999999329447746,-0.12999999523162842,-0.41999998688697815],"max":[0.029999999329447746,0.03500000014901161,0.25]},{"bufferView":5,"componentType":5126,"count":264,"type":"VEC3"},{"bufferView":6,"componentType":5126,"count":264,"type":"VEC2"},{"bufferView":7,"componentType":5125,"count":972,"type":"SCALAR"},{"bufferView":8,"componentType":5126,"count":432,"type":"VEC3","min":[-0.03099999949336052,-0.029999999329447746,-0.4099999964237213],"max":[0.03099999949336052,0.03999999910593033,-0.014999999664723873]},{"bufferView":9,"componentType":5126,"count":432,"type":"VEC3"},{"bufferView":10,"componentType":5126,"count":432,"type":"VEC2"},{"bufferView":11,"componentType":5125,"count":1800,"type":"SCALAR"},{"bufferView":12,"componentType":5126,"count":46,"type":"VEC3","min":[-0.006000000052154064,0.07929366081953049,-0.045499999076128006],"max":[0.006000000052154064,0.09070634096860886,-0.042500000447034836]},{"bufferView":13,"componentType":5126,"count":46,"type":"VEC3"},{"bufferView":14,"componentType":5126,"count":46,"type":"VEC2"},{"bufferView":15,"componentType":5125,"count":120,"type":"SCALAR"},{"bufferView":16,"componentType":5126,"count":1776,"type":"VEC3","min":[-0.04699999839067459,-0.12999999523162842,-0.36500000953674316],"max":[0.04100000113248825,-0.009999999776482582,0.10999999940395355]},{"bufferView":17,"componentType":5126,"count":1776,"type":"VEC3"},{"bufferView":18,"componentType":5126,"count":1776,"type":"VEC2"},{"bufferView":19,"componentType":5125,"count":7080,"type":"SCALAR"},{"bufferView":20,"componentType":5126,"count":432,"type":"VEC3","min":[-0.10081450641155243,-0.15963603556156158,-0.3189529776573181],"max":[0.07800091058015823,-0.021672667935490608,0.14683696627616882]},{"bufferView":21,"componentType":5126,"count":432,"type":"VEC3"},{"bufferView":22,"componentType":5126,"count":432,"type":"VEC2"},{"bufferView":23,"componentType":5125,"count":1800,"type":"SCALAR"},{"bufferView":24,"componentType":5126,"count":432,"type":"VEC3","min":[-0.4222228527069092,-0.3517705500125885,-0.29195529222488403],"max":[0.23500019311904907,-0.040135983377695084,0.38827070593833923]},{"bufferView":25,"componentType":5126,"count":432,"type":"VEC3"},{"bufferView":26,"componentType":5126,"count":432,"type":"VEC2"},{"bufferView":27,"componentType":5125,"count":1800,"type":"SCALAR"}],"bufferViews":[{"buffer":0,"byteOffset":0,"byteLength":7224,"target":34962},{"buffer":0,"byteOffset":7224,"byteLength":7224,"target":34962},{"buffer":0,"byteOffset":14448,"byteLength":4816,"target":34962},{"buffer":0,"byteOffset":19264,"byteLength":9024,"target":34963},{"buffer":0,"byteOffset":28288,"byteLength":3168,"target":34962},{"buffer":0,"byteOffset":31456,"byteLength":3168,"target":34962},{"buffer":0,"byteOffset":34624,"byteLength":2112,"target":34962},{"buffer":0,"byteOffset":36736,"byteLength":3888,"target":34963},{"buffer":0,"byteOffset":40624,"byteLength":5184,"target":34962},{"buffer":0,"byteOffset":45808,"byteLength":5184,"target":34962},{"buffer":0,"byteOffset":50992,"byteLength":3456,"target":34962},{"buffer":0,"byteOffset":54448,"byteLength":7200,"target":34963},{"buffer":0,"byteOffset":61648,"byteLength":552,"target":34962},{"buffer":0,"byteOffset":62200,"byteLength":552,"target":34962},{"buffer":0,"byteOffset":62752,"byteLength":368,"target":34962},{"buffer":0,"byteOffset":63120,"byteLength":480,"target":34963},{"buffer":0,"byteOffset":63600,"byteLength":21312,"target":34962},{"buffer":0,"byteOffset":84912,"byteLength":21312,"target":34962},{"buffer":0,"byteOffset":106224,"byteLength":14208,"target":34962},{"buffer":0,"byteOffset":120432,"byteLength":28320,"target":34963},{"buffer":0,"byteOffset":148752,"byteLength":5184,"target":34962},{"buffer":0,"byteOffset":153936,"byteLength":5184,"target":34962},{"buffer":0,"byteOffset":159120,"byteLength":3456,"target":34962},{"buffer":0,"byteOffset":162576,"byteLength":7200,"target":34963},{"buffer":0,"byteOffset":169776,"byteLength":5184,"target":34962},{"buffer":0,"byteOffset":174960,"byteLength":5184,"target":34962},{"buffer":0,"byteOffset":180144,"byteLength":3456,"target":34962},{"buffer":0,"byteOffset":183600,"byteLength":7200,"target":34963}],"buffers":[{"byteLength":190800,"uri":"data:application/octet-stream;base64,"}],"images":[{"uri":"textures/gunmetal.png"},{"uri":"data/gunmetal_mr.png"},{"uri":"data/gunmetal_n.png"}],"samplers":[{"magFilter":9729,"minFilter":9987,"wrapS":10497,"wrapT":10497},{"magFilter":9729,"minFilter":9987,"wrapS":10497,"wrapT":10497},{"magFilter":9729,"minFilter":9987,"wrapS":10497,"wrapT":10497}],"textures":[{"source":0,"sampler":0},{"source":1,"sampler":1},{"source":2,"sampler":2}],"extensionsUsed":["KHR_materials_emissive_strength"]}