{"asset":{"version":"2.0","generator":"rivals art-src"},"scene":0,"scenes":[{"nodes":[0]}],"nodes":[{"name":"rocket","mesh":0}],"meshes":[{"name":"rocket","primitives":[{"attributes":{"POSITION":0,"NORMAL":1,"TEXCOORD_0":2},"indices":3,"material":3},{"attributes":{"POSITION":4,"NORMAL":5,"TEXCOORD_0":6},"indices":7,"material":2},{"attributes":{"POSITION":8,"NORMAL":9,"TEXCOORD_0":10},"indices":11,"material":5},{"attributes":{"POSITION":12,"NORMAL":13,"TEXCOORD_0":14},"indices":15,"material":11}]}],"materials":[{"name":"gunmetal","pbrMetallicRoughness":{"baseColorFactor":[1,1,1,1],"metallicFactor":0,"roughnessFactor":0.6,"baseColorTexture":{"index":0},"metallicRoughnessTexture":{"index":1}},"normalTexture":{"index":2,"scale":1}},{"name":"polymer","pbrMetallicRoughness":{"baseColorFactor":[0.1,0.105,0.11,1],"metallicFactor":0,"roughnessFactor":0.55}},{"name":"accent","pbrMetallicRoughness":{"baseColorFactor":[0.95,0.42,0.06,1],"metallicFactor":0.1,"roughnessFactor":0.45}},{"name":"steel","pbrMetallicRoughness":{"baseColorFactor":[0.82,0.84,0.88,1],"metallicFactor":1,"roughnessFactor":0.18}},{"name":"lens","pbrMetallicRoughness":{"baseColorFactor":[0.1,0,0,1],"metallicFactor":0,"roughnessFactor":0.6},"emissiveFactor":[1,0.06666666666666667,0.03333333333333333],"extensions":{"KHR_materials_emissive_strength":{"emissiveStrength":3}}},{"name":"olive","pbrMetallicRoughness":{"baseColorFactor":[0.18,0.24,0.14,1],"metallicFactor":0.05,"roughnessFactor":0.65}},{"name":"hazard","pbrMetallicRoughness":{"baseColorFactor":[0.95,0.72,0.05,1],"metallicFactor":0,"roughnessFactor":0.5}},{"name":"grip","pbrMetallicRoughness":{"baseColorFactor":[0.11,0.08,0.06,1],"metallicFactor":0,"roughnessFactor":0.9}},{"name":"glove","pbrMetallicRoughness":{"baseColorFactor":[0.22,0.18,0.13,1],"metallicFactor":0,"roughnessFactor":0.8}},{"name":"sleeve","pbrMetallicRoughness":{"baseColorFactor":[0.08,0.13,0.21,1],"metallicFactor":0,"roughnessFactor":0.95}},{"name":"cuff","pbrMetallicRoughness":{"baseColorFactor":[0.11,0.12,0.09,1],"metallicFactor":0,"roughnessFactor":0.85}},{"name":"flame","pbrMetallicRoughness":{"baseColorFactor":[1,0.5,0.1,1],"metallicFactor":0,"roughnessFactor":0.6},"emissiveFactor":[1,0.35714285714285715,0.05714285714285715],"extensions":{"KHR_materials_emissive_strength":{"emissiveStrength":14}}}],"accessors":[{"bufferView":0,"componentType":5126,"count":62,"type":"VEC3","min":[-0.05000000074505806,-0.18000000715255737,-0.048746395856142044],"max":[0.05000000074505806,0.18000000715255737,0.048746395856142044]},{"bufferView":1,"componentType":5126,"count":62,"type":"VEC3"},{"bufferView":2,"componentType":5126,"count":62,"type":"VEC2"},{"bufferView":3,"componentType":5125,"count":168,"type":"SCALAR"},{"bufferView":4,"componentType":5126,"count":46,"type":"VEC3","min":[-0.05000000074505806,0.18000000715255737,-0.048746395856142044],"max":[0.05000000074505806,0.30000001192092896,0.048746395856142044]},{"bufferView":5,"componentType":5126,"count":46,"type":"VEC3"},{"bufferView":6,"componentType":5126,"count":46,"type":"VEC2"},{"bufferView":7,"componentType":5125,"count":126,"type":"SCALAR"},{"bufferView":8,"componentType":5126,"count":72,"type":"VEC3","min":[-0.11999999731779099,-0.18000000715255737,-0.11999999731779099],"max":[0.11999999731779099,-0.10000000149011612,0.11999999731779099]},{"bufferView":9,"componentType":5126,"count":72,"type":"VEC3"},{"bufferView":10,"componentType":5126,"count":72,"type":"VEC2"},{"bufferView":11,"componentType":5125,"count":96,"type":"SCALAR"},{"bufferView":12,"componentType":5126,"count":46,"type":"VEC3","min":[-0.04500000178813934,-0.22499999403953552,-0.04279754310846329],"max":[0.04500000178813934,-0.17499999701976776,0.04279754310846329]},{"bufferView":13,"componentType":5126,"count":46,"type":"VEC3"},{"bufferView":14,"componentType":5126,"count":46,"type":"VEC2"},{"bufferView":15,"componentType":5125,"count":120,"type":"SCALAR"}],"bufferViews":[{"buffer":0,"byteOffset":0,"byteLength":744,"target":34962},{"buffer":0,"byteOffset":744,"byteLength":744,"target":34962},{"buffer":0,"byteOffset":1488,"byteLength":496,"target":34962},{"buffer":0,"byteOffset":1984,"byteLength":672,"target":34963},{"buffer":0,"byteOffset":2656,"byteLength":552,"target":34962},{"buffer":0,"byteOffset":3208,"byteLength":552,"target":34962},{"buffer":0,"byteOffset":3760,"byteLength":368,"target":34962},{"buffer":0,"byteOffset":4128,"byteLength":504,"target":34963},{"buffer":0,"byteOffset":4632,"byteLength":864,"target":34962},{"buffer":0,"byteOffset":5496,"byteLength":864,"target":34962},{"buffer":0,"byteOffset":6360,"byteLength":576,"target":34962},{"buffer":0,"byteOffset":6936,"byteLength":384,"target":34963},{"buffer":0,"byteOffset":7320,"byteLength":552,"target":34962},{"buffer":0,"byteOffset":7872,"byteLength":552,"target":34962},{"buffer":0,"byteOffset":8424,"byteLength":368,"target":34962},{"buffer":0,"byteOffset":8792,"byteLength":480,"target":34963}],"buffers":[{"byteLength":9272,"uri":"data:application/octet-stream;base64,"}],"images":[{"uri":"textures/gunmetal.png"},{"uri":"data/gunmetal_mr.png"},{"uri":"data/gunmetal_n.png"}],"samplers":[{"magFilter":9729,"minFilter":9987,"wrapS":10497,"wrapT":10497},{"magFilter":9729,"minFilter":9987,"wrapS":10497,"wrapT":10497},{"magFilter":9729,"minFilter":9987,"wrapS":10497,"wrapT":10497}],"textures":[{"source":0,"sampler":0},{"source":1,"sampler":1},{"source":2,"sampler":2}],"extensionsUsed":["KHR_materials_emissive_strength"]}