{"asset":{"version":"2.0","generator":"rivals art-src"},"scene":0,"scenes":[{"nodes":[11]}],"nodes":[{"name":"gun","mesh":3,"translation":[0.12,0.3,-0.28],"children":[]},{"name":"foreR","mesh":4,"translation":[0,-0.29,0],"children":[]},{"name":"foreL","mesh":5,"translation":[0,-0.29,0],"children":[]},{"name":"armR","mesh":6,"translation":[0.26,0.43,0],"children":[1]},{"name":"armL","mesh":7,"translation":[-0.26,0.43,0],"children":[2]},{"name":"head","mesh":1,"translation":[0,0.66,0],"children":[]},{"name":"spine","mesh":0,"translation":[0,0.06,0],"children":[5,4,3,0]},{"name":"shinL","mesh":8,"translation":[0,-0.42,0],"children":[]},{"name":"shinR","mesh":9,"translation":[0,-0.42,0],"children":[]},{"name":"legL","mesh":10,"translation":[-0.1,-0.04,0],"children":[7]},{"name":"legR","mesh":11,"translation":[0.1,-0.04,0],"children":[8]},{"name":"hips","mesh":2,"translation":[0,0,0],"children":[6,9,10]}],"meshes":[{"name":"torso","primitives":[{"attributes":{"POSITION":0,"NORMAL":1,"TEXCOORD_0":2,"COLOR_0":3},"indices":4,"material":1},{"attributes":{"POSITION":5,"NORMAL":6,"TEXCOORD_0":7},"indices":8,"material":0}]},{"name":"head","primitives":[{"attributes":{"POSITION":9,"NORMAL":10,"TEXCOORD_0":11,"COLOR_0":12},"indices":13,"material":1},{"attributes":{"POSITION":14,"NORMAL":15,"TEXCOORD_0":16},"indices":17,"material":0},{"attributes":{"POSITION":18,"NORMAL":19,"TEXCOORD_0":20},"indices":21,"material":2}]},{"name":"hips","primitives":[{"attributes":{"POSITION":22,"NORMAL":23,"TEXCOORD_0":24,"COLOR_0":25},"indices":26,"material":1}]},{"name":"gun","primitives":[{"attributes":{"POSITION":27,"NORMAL":28,"TEXCOORD_0":29,"COLOR_0":30},"indices":31,"material":1}]},{"name":"fore-r","primitives":[{"attributes":{"POSITION":32,"NORMAL":33,"TEXCOORD_0":34,"COLOR_0":35},"indices":36,"material":1}]},{"name":"fore-l","primitives":[{"attributes":{"POSITION":37,"NORMAL":38,"TEXCOORD_0":39,"COLOR_0":40},"indices":41,"material":1}]},{"name":"arm-r","primitives":[{"attributes":{"POSITION":42,"NORMAL":43,"TEXCOORD_0":44,"COLOR_0":45},"indices":46,"material":1},{"attributes":{"POSITION":47,"NORMAL":48,"TEXCOORD_0":49},"indices":50,"material":0}]},{"name":"arm-l","primitives":[{"attributes":{"POSITION":51,"NORMAL":52,"TEXCOORD_0":53,"COLOR_0":54},"indices":55,"material":1},{"attributes":{"POSITION":56,"NORMAL":57,"TEXCOORD_0":58},"indices":59,"material":0}]},{"name":"shin-l","primitives":[{"attributes":{"POSITION":60,"NORMAL":61,"TEXCOORD_0":62,"COLOR_0":63},"indices":64,"material":1},{"attributes":{"POSITION":65,"NORMAL":66,"TEXCOORD_0":67},"indices":68,"material":0}]},{"name":"shin-r","primitives":[{"attributes":{"POSITION":69,"NORMAL":70,"TEXCOORD_0":71,"COLOR_0":72},"indices":73,"material":1},{"attributes":{"POSITION":74,"NORMAL":75,"TEXCOORD_0":76},"indices":77,"material":0}]},{"name":"leg-l","primitives":[{"attributes":{"POSITION":78,"NORMAL":79,"TEXCOORD_0":80,"COLOR_0":81},"indices":82,"material":1},{"attributes":{"POSITION":83,"NORMAL":84,"TEXCOORD_0":85},"indices":86,"material":0}]},{"name":"leg-r","primitives":[{"attributes":{"POSITION":87,"NORMAL":88,"TEXCOORD_0":89,"COLOR_0":90},"indices":91,"material":1},{"attributes":{"POSITION":92,"NORMAL":93,"TEXCOORD_0":94},"indices":95,"material":0}]}],"materials":[{"name":"armour","pbrMetallicRoughness":{"baseColorFactor":[0.15,0.7,0.45,1],"metallicFactor":0.25,"roughnessFactor":0.35}},{"name":"body","pbrMetallicRoughness":{"baseColorFactor":[1,1,1,1],"metallicFactor":0.1,"roughnessFactor":0.75}},{"name":"visor","pbrMetallicRoughness":{"baseColorFactor":[0.02,0.02,0.03,1],"metallicFactor":0.8,"roughnessFactor":0.1},"emissiveFactor":[0.2826086956521739,1,0.673913043478261],"extensions":{"KHR_materials_emissive_strength":{"emissiveStrength":4.6}}}],"accessors":[{"bufferView":0,"componentType":5126,"count":648,"type":"VEC3","min":[-0.20000000298023224,0,-0.1899999976158142],"max":[0.20000000298023224,0.5,0.2199999988079071]},{"bufferView":1,"componentType":5126,"count":648,"type":"VEC3"},{"bufferView":2,"componentType":5126,"count":648,"type":"VEC2"},{"bufferView":3,"componentType":5126,"count":648,"type":"VEC4"},{"bufferView":4,"componentType":5125,"count":2700,"type":"SCALAR"},{"bufferView":5,"componentType":5126,"count":216,"type":"VEC3","min":[-0.20999999344348907,0.12999999523162842,-0.14000000059604645],"max":[0.20999999344348907,0.4699999988079071,0.14000000059604645]},{"bufferView":6,"componentType":5126,"count":216,"type":"VEC3"},{"bufferView":7,"componentType":5126,"count":216,"type":"VEC2"},{"bufferView":8,"componentType":5125,"count":900,"type":"SCALAR"},{"bufferView":9,"componentType":5126,"count":135,"type":"VEC3","min":[-0.11999999731779099,-0.13199999928474426,-0.12284091860055923],"max":[0.11999999731779099,0.13199999928474426,0.12284091860055923]},{"bufferView":10,"componentType":5126,"count":135,"type":"VEC3"},{"bufferView":11,"componentType":5126,"count":135,"type":"VEC2"},{"bufferView":12,"componentType":5126,"count":135,"type":"VEC4"},{"bufferView":13,"componentType":5125,"count":672,"type":"SCALAR"},{"bufferView":14,"componentType":5126,"count":135,"type":"VEC3","min":[-0.1522500067949295,-0.07325000315904617,-0.1455010026693344],"max":[0.1522500067949295,0.1732500046491623,0.16550099849700928]},{"bufferView":15,"componentType":5126,"count":135,"type":"VEC3"},{"bufferView":16,"componentType":5126,"count":135,"type":"VEC2"},{"bufferView":17,"componentType":5125,"count":672,"type":"SCALAR"},{"bufferView":18,"componentType":5126,"count":216,"type":"VEC3","min":[-0.10000000149011612,-0.029999999329447746,-0.14000000059604645],"max":[0.10000000149011612,0.029999999329447746,-0.07999999821186066]},{"bufferView":19,"componentType":5126,"count":216,"type":"VEC3"},{"bufferView":20,"componentType":5126,"count":216,"type":"VEC2"},{"bufferView":21,"componentType":5125,"count":900,"type":"SCALAR"},{"bufferView":22,"componentType":5126,"count":432,"type":"VEC3","min":[-0.1899999976158142,-0.09000000357627869,-0.11999999731779099],"max":[0.1899999976158142,0.10000000149011612,0.11999999731779099]},{"bufferView":23,"componentType":5126,"count":432,"type":"VEC3"},{"bufferView":24,"componentType":5126,"count":432,"type":"VEC2"},{"bufferView":25,"componentType":5126,"count":432,"type":"VEC4"},{"bufferView":26,"componentType":5125,"count":1800,"type":"SCALAR"},{"bufferView":27,"componentType":5126,"count":254,"type":"VEC3","min":[-0.029999999329447746,-0.03999999910593033,-0.6499999761581421],"max":[0.029999999329447746,0.03999999910593033,0.05000000074505806]},{"bufferView":28,"componentType":5126,"count":254,"type":"VEC3"},{"bufferView":29,"componentType":5126,"count":254,"type":"VEC2"},{"bufferView":30,"componentType":5126,"count":254,"type":"VEC4"},{"bufferView":31,"componentType":5125,"count":996,"type":"SCALAR"},{"bufferView":32,"componentType":5126,"count":432,"type":"VEC3","min":[-0.05000000074505806,-0.3400000035762787,-0.054999999701976776],"max":[0.05000000074505806,0,0.054999999701976776]},{"bufferView":33,"componentType":5126,"count":432,"type":"VEC3"},{"bufferView":34,"componentType":5126,"count":432,"type":"VEC2"},{"bufferView":35,"componentType":5126,"count":432,"type":"VEC4"},{"bufferView":36,"componentType":5125,"count":1800,"type":"SCALAR"},{"bufferView":37,"componentType":5126,"count":432,"type":"VEC3","min":[-0.05000000074505806,-0.3400000035762787,-0.054999999701976776],"max":[0.05000000074505806,0,0.054999999701976776]},{"bufferView":38,"componentType":5126,"count":432,"type":"VEC3"},{"bufferView":39,"componentType":5126,"count":432,"type":"VEC2"},{"bufferView":40,"componentType":5126,"count":432,"type":"VEC4"},{"bufferView":41,"componentType":5125,"count":1800,"type":"SCALAR"},{"bufferView":42,"componentType":5126,"count":216,"type":"VEC3","min":[-0.054999999701976776,-0.30000001192092896,-0.054999999701976776],"max":[0.054999999701976776,0,0.054999999701976776]},{"bufferView":43,"componentType":5126,"count":216,"type":"VEC3"},{"bufferView":44,"componentType":5126,"count":216,"type":"VEC2"},{"bufferView":45,"componentType":5126,"count":216,"type":"VEC4"},{"bufferView":46,"componentType":5125,"count":900,"type":"SCALAR"},{"bufferView":47,"componentType":5126,"count":77,"type":"VEC3","min":[-0.10199999809265137,-0.08649999648332596,-0.08892378211021423],"max":[0.10199999809265137,0.06650000065565109,0.08892378211021423]},{"bufferView":48,"componentType":5126,"count":77,"type":"VEC3"},{"bufferView":49,"componentType":5126,"count":77,"type":"VEC2"},{"bufferView":50,"componentType":5125,"count":360,"type":"SCALAR"},{"bufferView":51,"componentType":5126,"count":216,"type":"VEC3","min":[-0.054999999701976776,-0.30000001192092896,-0.054999999701976776],"max":[0.054999999701976776,0,0.054999999701976776]},{"bufferView":52,"componentType":5126,"count":216,"type":"VEC3"},{"bufferView":53,"componentType":5126,"count":216,"type":"VEC2"},{"bufferView":54,"componentType":5126,"count":216,"type":"VEC4"},{"bufferView":55,"componentType":5125,"count":900,"type":"SCALAR"},{"bufferView":56,"componentType":5126,"count":77,"type":"VEC3","min":[-0.10199999809265137,-0.08649999648332596,-0.08892378211021423],"max":[0.10199999809265137,0.06650000065565109,0.08892378211021423]},{"bufferView":57,"componentType":5126,"count":77,"type":"VEC3"},{"bufferView":58,"componentType":5126,"count":77,"type":"VEC2"},{"bufferView":59,"componentType":5125,"count":360,"type":"SCALAR"},{"bufferView":60,"componentType":5126,"count":432,"type":"VEC3","min":[-0.07500000298023224,-0.44999998807907104,-0.16500000655651093],"max":[0.07500000298023224,0,0.08500000089406967]},{"bufferView":61,"componentType":5126,"count":432,"type":"VEC3"},{"bufferView":62,"componentType":5126,"count":432,"type":"VEC2"},{"bufferView":63,"componentType":5126,"count":432,"type":"VEC4"},{"bufferView":64,"componentType":5125,"count":1800,"type":"SCALAR"},{"bufferView":65,"componentType":5126,"count":216,"type":"VEC3","min":[-0.07000000029802322,-0.1899999976158142,-0.10000000149011612],"max":[0.07000000029802322,-0.05000000074505806,-0.05000000074505806]},{"bufferView":66,"componentType":5126,"count":216,"type":"VEC3"},{"bufferView":67,"componentType":5126,"count":216,"type":"VEC2"},{"bufferView":68,"componentType":5125,"count":900,"type":"SCALAR"},{"bufferView":69,"componentType":5126,"count":432,"type":"VEC3","min":[-0.07500000298023224,-0.44999998807907104,-0.16500000655651093],"max":[0.07500000298023224,0,0.08500000089406967]},{"bufferView":70,"componentType":5126,"count":432,"type":"VEC3"},{"bufferView":71,"componentType":5126,"count":432,"type":"VEC2"},{"bufferView":72,"componentType":5126,"count":432,"type":"VEC4"},{"bufferView":73,"componentType":5125,"count":1800,"type":"SCALAR"},{"bufferView":74,"componentType":5126,"count":216,"type":"VEC3","min":[-0.07000000029802322,-0.1899999976158142,-0.10000000149011612],"max":[0.07000000029802322,-0.05000000074505806,-0.05000000074505806]},{"bufferView":75,"componentType":5126,"count":216,"type":"VEC3"},{"bufferView":76,"componentType":5126,"count":216,"type":"VEC2"},{"bufferView":77,"componentType":5125,"count":900,"type":"SCALAR"},{"bufferView":78,"componentType":5126,"count":216,"type":"VEC3","min":[-0.07500000298023224,-0.41999998688697815,-0.08500000089406967],"max":[0.07500000298023224,-2.7755575615628914e-17,0.08500000089406967]},{"bufferView":79,"componentType":5126,"count":216,"type":"VEC3"},{"bufferView":80,"componentType":5126,"count":216,"type":"VEC2"},{"bufferView":81,"componentType":5126,"count":216,"type":"VEC4"},{"bufferView":82,"componentType":5125,"count":900,"type":"SCALAR"},{"bufferView":83,"componentType":5126,"count":216,"type":"VEC3","min":[-0.07750000059604645,-0.18000000715255737,-0.125],"max":[0.07750000059604645,-0.05999999865889549,0.004999999888241291]},{"bufferView":84,"componentType":5126,"count":216,"type":"VEC3"},{"bufferView":85,"componentType":5126,"count":216,"type":"VEC2"},{"bufferView":86,"componentType":5125,"count":900,"type":"SCALAR"},{"bufferView":87,"componentType":5126,"count":216,"type":"VEC3","min":[-0.07500000298023224,-0.41999998688697815,-0.08500000089406967],"max":[0.07500000298023224,-2.7755575615628914e-17,0.08500000089406967]},{"bufferView":88,"componentType":5126,"count":216,"type":"VEC3"},{"bufferView":89,"componentType":5126,"count":216,"type":"VEC2"},{"bufferView":90,"componentType":5126,"count":216,"type":"VEC4"},{"bufferView":91,"componentType":5125,"count":900,"type":"SCALAR"},{"bufferView":92,"componentType":5126,"count":216,"type":"VEC3","min":[-0.07750000059604645,-0.18000000715255737,-0.125],"max":[0.07750000059604645,-0.05999999865889549,0.004999999888241291]},{"bufferView":93,"componentType":5126,"count":216,"type":"VEC3"},{"bufferView":94,"componentType":5126,"count":216,"type":"VEC2"},{"bufferView":95,"componentType":5125,"count":900,"type":"SCALAR"},{"bufferView":96,"componentType":5126,"count":3,"type":"SCALAR","min":[0],"max":[2.4000000953674316]},{"bufferView":97,"componentType":5126,"count":3,"type":"VEC4"},{"bufferView":98,"componentType":5126,"count":3,"type":"SCALAR","min":[0],"max":[2.4000000953674316]},{"bufferView":99,"componentType":5126,"count":3,"type":"VEC4"},{"bufferView":100,"componentType":5126,"count":3,"type":"SCALAR","min":[0],"max":[2.4000000953674316]},{"bufferView":101,"componentType":5126,"count":3,"type":"VEC4"},{"bufferView":102,"componentType":5126,"count":3,"type":"SCALAR","min":[0],"max":[2.4000000953674316]},{"bufferView":103,"componentType":5126,"count":3,"type":"VEC4"},{"bufferView":104,"componentType":5126,"count":3,"type":"SCALAR","min":[0],"max":[2.4000000953674316]},{"bufferView":105,"componentType":5126,"count":3,"type":"VEC4"},{"bufferView":106,"componentType":5126,"count":3,"type":"SCALAR","min":[0],"max":[2.4000000953674316]},{"bufferView":107,"componentType":5126,"count":3,"type":"VEC4"},{"bufferView":108,"componentType":5126,"count":3,"type":"SCALAR","min":[0],"max":[2.4000000953674316]},{"bufferView":109,"componentType":5126,"count":3,"type":"VEC4"},{"bufferView":110,"componentType":5126,"count":3,"type":"SCALAR","min":[0],"max":[2.4000000953674316]},{"bufferView":111,"componentType":5126,"count":3,"type":"VEC4"},{"bufferView":112,"componentType":5126,"count":3,"type":"SCALAR","min":[0],"max":[2.4000000953674316]},{"bufferView":113,"componentType":5126,"count":3,"type":"VEC4"},{"bufferView":114,"componentType":5126,"count":3,"type":"SCALAR","min":[0],"max":[2.4000000953674316]},{"bufferView":115,"componentType":5126,"count":3,"type":"VEC4"},{"bufferView":116,"componentType":5126,"count":3,"type":"SCALAR","min":[0],"max":[2.4000000953674316]},{"bufferView":117,"componentType":5126,"count":3,"type":"VEC3"},{"bufferView":118,"componentType":5126,"count":5,"type":"SCALAR","min":[0],"max":[0.6000000238418579]},{"bufferView":119,"componentType":5126,"count":5,"type":"VEC4"},{"bufferView":120,"componentType":5126,"count":5,"type":"SCALAR","min":[0],"max":[0.6000000238418579]},{"bufferView":121,"componentType":5126,"count":5,"type":"VEC4"},{"bufferView":122,"componentType":5126,"count":5,"type":"SCALAR","min":[0],"max":[0.6000000238418579]},{"bufferView":123,"componentType":5126,"count":5,"type":"VEC4"},{"bufferView":124,"componentType":5126,"count":5,"type":"SCALAR","min":[0],"max":[0.6000000238418579]},{"bufferView":125,"componentType":5126,"count":5,"type":"VEC4"},{"bufferView":126,"componentType":5126,"count":5,"type":"SCALAR","min":[0],"max":[0.6000000238418579]},{"bufferView":127,"componentType":5126,"count":5,"type":"VEC4"},{"bufferView":128,"componentType":5126,"count":5,"type":"SCALAR","min":[0],"max":[0.6000000238418579]},{"bufferView":129,"componentType":5126,"count":5,"type":"VEC4"},{"bufferView":130,"componentType":5126,"count":5,"type":"SCALAR","min":[0],"max":[0.6000000238418579]},{"bufferView":131,"componentType":5126,"count":5,"type":"VEC4"},{"bufferView":132,"componentType":5126,"count":5,"type":"SCALAR","min":[0],"max":[0.6000000238418579]},{"bufferView":133,"componentType":5126,"count":5,"type":"VEC4"},{"bufferView":134,"componentType":5126,"count":5,"type":"SCALAR","min":[0],"max":[0.6000000238418579]},{"bufferView":135,"componentType":5126,"count":5,"type":"VEC4"},{"bufferView":136,"componentType":5126,"count":5,"type":"SCALAR","min":[0],"max":[0.6000000238418579]},{"bufferView":137,"componentType":5126,"count":5,"type":"VEC4"},{"bufferView":138,"componentType":5126,"count":5,"type":"SCALAR","min":[0],"max":[0.6000000238418579]},{"bufferView":139,"componentType":5126,"count":5,"type":"VEC3"},{"bufferView":140,"componentType":5126,"count":3,"type":"SCALAR","min":[0],"max":[0.30000001192092896]},{"bufferView":141,"componentType":5126,"count":3,"type":"VEC4"},{"bufferView":142,"componentType":5126,"count":3,"type":"SCALAR","min":[0],"max":[0.30000001192092896]},{"bufferView":143,"componentType":5126,"count":3,"type":"VEC4"},{"bufferView":144,"componentType":5126,"count":3,"type":"SCALAR","min":[0],"max":[0.30000001192092896]},{"bufferView":145,"componentType":5126,"count":3,"type":"VEC3"}],"bufferViews":[{"buffer":0,"byteOffset":0,"byteLength":7776,"target":34962},{"buffer":0,"byteOffset":7776,"byteLength":7776,"target":34962},{"buffer":0,"byteOffset":15552,"byteLength":5184,"target":34962},{"buffer":0,"byteOffset":20736,"byteLength":10368,"target":34962},{"buffer":0,"byteOffset":31104,"byteLength":10800,"target":34963},{"buffer":0,"byteOffset":41904,"byteLength":2592,"target":34962},{"buffer":0,"byteOffset":44496,"byteLength":2592,"target":34962},{"buffer":0,"byteOffset":47088,"byteLength":1728,"target":34962},{"buffer":0,"byteOffset":48816,"byteLength":3600,"target":34963},{"buffer":0,"byteOffset":52416,"byteLength":1620,"target":34962},{"buffer":0,"byteOffset":54036,"byteLength":1620,"target":34962},{"buffer":0,"byteOffset":55656,"byteLength":1080,"target":34962},{"buffer":0,"byteOffset":56736,"byteLength":2160,"target":34962},{"buffer":0,"byteOffset":58896,"byteLength":2688,"target":34963},{"buffer":0,"byteOffset":61584,"byteLength":1620,"target":34962},{"buffer":0,"byteOffset":63204,"byteLength":1620,"target":34962},{"buffer":0,"byteOffset":64824,"byteLength":1080,"target":34962},{"buffer":0,"byteOffset":65904,"byteLength":2688,"target":34963},{"buffer":0,"byteOffset":68592,"byteLength":2592,"target":34962},{"buffer":0,"byteOffset":71184,"byteLength":2592,"target":34962},{"buffer":0,"byteOffset":73776,"byteLength":1728,"target":34962},{"buffer":0,"byteOffset":75504,"byteLength":3600,"target":34963},{"buffer":0,"byteOffset":79104,"byteLength":5184,"target":34962},{"buffer":0,"byteOffset":84288,"byteLength":5184,"target":34962},{"buffer":0,"byteOffset":89472,"byteLength":3456,"target":34962},{"buffer":0,"byteOffset":92928,"byteLength":6912,"target":34962},{"buffer":0,"byteOffset":99840,"byteLength":7200,"target":34963},{"buffer":0,"byteOffset":107040,"byteLength":3048,"target":34962},{"buffer":0,"byteOffset":110088,"byteLength":3048,"target":34962},{"buffer":0,"byteOffset":113136,"byteLength":2032,"target":34962},{"buffer":0,"byteOffset":115168,"byteLength":4064,"target":34962},{"buffer":0,"byteOffset":119232,"byteLength":3984,"target":34963},{"buffer":0,"byteOffset":123216,"byteLength":5184,"target":34962},{"buffer":0,"byteOffset":128400,"byteLength":5184,"target":34962},{"buffer":0,"byteOffset":133584,"byteLength":3456,"target":34962},{"buffer":0,"byteOffset":137040,"byteLength":6912,"target":34962},{"buffer":0,"byteOffset":143952,"byteLength":7200,"target":34963},{"buffer":0,"byteOffset":151152,"byteLength":5184,"target":34962},{"buffer":0,"byteOffset":156336,"byteLength":5184,"target":34962},{"buffer":0,"byteOffset":161520,"byteLength":3456,"target":34962},{"buffer":0,"byteOffset":164976,"byteLength":6912,"target":34962},{"buffer":0,"byteOffset":171888,"byteLength":7200,"target":34963},{"buffer":0,"byteOffset":179088,"byteLength":2592,"target":34962},{"buffer":0,"byteOffset":181680,"byteLength":2592,"target":34962},{"buffer":0,"byteOffset":184272,"byteLength":1728,"target":34962},{"buffer":0,"byteOffset":186000,"byteLength":3456,"target":34962},{"buffer":0,"byteOffset":189456,"byteLength":3600,"target":34963},{"buffer":0,"byteOffset":193056,"byteLength":924,"target":34962},{"buffer":0,"byteOffset":193980,"byteLength":924,"target":34962},{"buffer":0,"byteOffset":194904,"byteLength":616,"target":34962},{"buffer":0,"byteOffset":195520,"byteLength":1440,"target":34963},{"buffer":0,"byteOffset":196960,"byteLength":2592,"target":34962},{"buffer":0,"byteOffset":199552,"byteLength":2592,"target":34962},{"buffer":0,"byteOffset":202144,"byteLength":1728,"target":34962},{"buffer":0,"byteOffset":203872,"byteLength":3456,"target":34962},{"buffer":0,"byteOffset":207328,"byteLength":3600,"target":34963},{"buffer":0,"byteOffset":210928,"byteLength":924,"target":34962},{"buffer":0,"byteOffset":211852,"byteLength":924,"target":34962},{"buffer":0,"byteOffset":212776,"byteLength":616,"target":34962},{"buffer":0,"byteOffset":213392,"byteLength":1440,"target":34963},{"buffer":0,"byteOffset":214832,"byteLength":5184,"target":34962},{"buffer":0,"byteOffset":220016,"byteLength":5184,"target":34962},{"buffer":0,"byteOffset":225200,"byteLength":3456,"target":34962},{"buffer":0,"byteOffset":228656,"byteLength":6912,"target":34962},{"buffer":0,"byteOffset":235568,"byteLength":7200,"target":34963},{"buffer":0,"byteOffset":242768,"byteLength":2592,"target":34962},{"buffer":0,"byteOffset":245360,"byteLength":2592,"target":34962},{"buffer":0,"byteOffset":247952,"byteLength":1728,"target":34962},{"buffer":0,"byteOffset":249680,"byteLength":3600,"target":34963},{"buffer":0,"byteOffset":253280,"byteLength":5184,"target":34962},{"buffer":0,"byteOffset":258464,"byteLength":5184,"target":34962},{"buffer":0,"byteOffset":263648,"byteLength":3456,"target":34962},{"buffer":0,"byteOffset":267104,"byteLength":6912,"target":34962},{"buffer":0,"byteOffset":274016,"byteLength":7200,"target":34963},{"buffer":0,"byteOffset":281216,"byteLength":2592,"target":34962},{"buffer":0,"byteOffset":283808,"byteLength":2592,"target":34962},{"buffer":0,"byteOffset":286400,"byteLength":1728,"target":34962},{"buffer":0,"byteOffset":288128,"byteLength":3600,"target":34963},{"buffer":0,"byteOffset":291728,"byteLength":2592,"target":34962},{"buffer":0,"byteOffset":294320,"byteLength":2592,"target":34962},{"buffer":0,"byteOffset":296912,"byteLength":1728,"target":34962},{"buffer":0,"byteOffset":298640,"byteLength":3456,"target":34962},{"buffer":0,"byteOffset":302096,"byteLength":3600,"target":34963},{"buffer":0,"byteOffset":305696,"byteLength":2592,"target":34962},{"buffer":0,"byteOffset":308288,"byteLength":2592,"target":34962},{"buffer":0,"byteOffset":310880,"byteLength":1728,"target":34962},{"buffer":0,"byteOffset":312608,"byteLength":3600,"target":34963},{"buffer":0,"byteOffset":316208,"byteLength":2592,"target":34962},{"buffer":0,"byteOffset":318800,"byteLength":2592,"target":34962},{"buffer":0,"byteOffset":321392,"byteLength":1728,"target":34962},{"buffer":0,"byteOffset":323120,"byteLength":3456,"target":34962},{"buffer":0,"byteOffset":326576,"byteLength":3600,"target":34963},{"buffer":0,"byteOffset":330176,"byteLength":2592,"target":34962},{"buffer":0,"byteOffset":332768,"byteLength":2592,"target":34962},{"buffer":0,"byteOffset":335360,"byteLength":1728,"target":34962},{"buffer":0,"byteOffset":337088,"byteLength":3600,"target":34963},{"buffer":0,"byteOffset":340688,"byteLength":12},{"buffer":0,"byteOffset":340700,"byteLength":48},{"buffer":0,"byteOffset":340748,"byteLength":12},{"buffer":0,"byteOffset":340760,"byteLength":48},{"buffer":0,"byteOffset":340808,"byteLength":12},{"buffer":0,"byteOffset":340820,"byteLength":48},{"buffer":0,"byteOffset":340868,"byteLength":12},{"buffer":0,"byteOffset":340880,"byteLength":48},{"buffer":0,"byteOffset":340928,"byteLength":12},{"buffer":0,"byteOffset":340940,"byteLength":48},{"buffer":0,"byteOffset":340988,"byteLength":12},{"buffer":0,"byteOffset":341000,"byteLength":48},{"buffer":0,"byteOffset":341048,"byteLength":12},{"buffer":0,"byteOffset":341060,"byteLength":48},{"buffer":0,"byteOffset":341108,"byteLength":12},{"buffer":0,"byteOffset":341120,"byteLength":48},{"buffer":0,"byteOffset":341168,"byteLength":12},{"buffer":0,"byteOffset":341180,"byteLength":48},{"buffer":0,"byteOffset":341228,"byteLength":12},{"buffer":0,"byteOffset":341240,"byteLength":48},{"buffer":0,"byteOffset":341288,"byteLength":12},{"buffer":0,"byteOffset":341300,"byteLength":36},{"buffer":0,"byteOffset":341336,"byteLength":20},{"buffer":0,"byteOffset":341356,"byteLength":80},{"buffer":0,"byteOffset":341436,"byteLength":20},{"buffer":0,"byteOffset":341456,"byteLength":80},{"buffer":0,"byteOffset":341536,"byteLength":20},{"buffer":0,"byteOffset":341556,"byteLength":80},{"buffer":0,"byteOffset":341636,"byteLength":20},{"buffer":0,"byteOffset":341656,"byteLength":80},{"buffer":0,"byteOffset":341736,"byteLength":20},{"buffer":0,"byteOffset":341756,"byteLength":80},{"buffer":0,"byteOffset":341836,"byteLength":20},{"buffer":0,"byteOffset":341856,"byteLength":80},{"buffer":0,"byteOffset":341936,"byteLength":20},{"buffer":0,"byteOffset":341956,"byteLength":80},{"buffer":0,"byteOffset":342036,"byteLength":20},{"buffer":0,"byteOffset":342056,"byteLength":80},{"buffer":0,"byteOffset":342136,"byteLength":20},{"buffer":0,"byteOffset":342156,"byteLength":80},{"buffer":0,"byteOffset":342236,"byteLength":20},{"buffer":0,"byteOffset":342256,"byteLength":80},{"buffer":0,"byteOffset":342336,"byteLength":20},{"buffer":0,"byteOffset":342356,"byteLength":60},{"buffer":0,"byteOffset":342416,"byteLength":12},{"buffer":0,"byteOffset":342428,"byteLength":48},{"buffer":0,"byteOffset":342476,"byteLength":12},{"buffer":0,"byteOffset":342488,"byteLength":48},{"buffer":0,"byteOffset":342536,"byteLength":12},{"buffer":0,"byteOffset":342548,"byteLength":36}],"buffers":[{"byteLength":342584,"uri":"data:application/octet-stream;base64,"}],"extensionsUsed":["KHR_materials_emissive_strength"],"animations":[{"name":"Idle","samplers":[{"input":96,"output":97,"interpolation":"LINEAR"},{"input":98,"output":99,"interpolation":"LINEAR"},{"input":100,"output":101,"interpolation":"LINEAR"},{"input":102,"output":103,"interpolation":"LINEAR"},{"input":104,"output":105,"interpolation":"LINEAR"},{"input":106,"output":107,"interpolation":"LINEAR"},{"input":108,"output":109,"interpolation":"LINEAR"},{"input":110,"output":111,"interpolation":"LINEAR"},{"input":112,"output":113,"interpolation":"LINEAR"},{"input":114,"output":115,"interpolation":"LINEAR"},{"input":116,"output":117,"interpolation":"LINEAR"}],"channels":[{"sampler":0,"target":{"node":3,"path":"rotation"}},{"sampler":1,"target":{"node":4,"path":"rotation"}},{"sampler":2,"target":{"node":1,"path":"rotation"}},{"sampler":3,"target":{"node":2,"path":"rotation"}},{"sampler":4,"target":{"node":9,"path":"rotation"}},{"sampler":5,"target":{"node":10,"path":"rotation"}},{"sampler":6,"target":{"node":7,"path":"rotation"}},{"sampler":7,"target":{"node":8,"path":"rotation"}},{"sampler":8,"target":{"node":6,"path":"rotation"}},{"sampler":9,"target":{"node":5,"path":"rotation"}},{"sampler":10,"target":{"node":11,"path":"translation"}}]},{"name":"Run","samplers":[{"input":118,"output":119,"interpolation":"LINEAR"},{"input":120,"output":121,"interpolation":"LINEAR"},{"input":122,"output":123,"interpolation":"LINEAR"},{"input":124,"output":125,"interpolation":"LINEAR"},{"input":126,"output":127,"interpolation":"LINEAR"},{"input":128,"output":129,"interpolation":"LINEAR"},{"input":130,"output":131,"interpolation":"LINEAR"},{"input":132,"output":133,"interpolation":"LINEAR"},{"input":134,"output":135,"interpolation":"LINEAR"},{"input":136,"output":137,"interpolation":"LINEAR"},{"input":138,"output":139,"interpolation":"LINEAR"}],"channels":[{"sampler":0,"target":{"node":3,"path":"rotation"}},{"sampler":1,"target":{"node":4,"path":"rotation"}},{"sampler":2,"target":{"node":1,"path":"rotation"}},{"sampler":3,"target":{"node":2,"path":"rotation"}},{"sampler":4,"target":{"node":9,"path":"rotation"}},{"sampler":5,"target":{"node":10,"path":"rotation"}},{"sampler":6,"target":{"node":7,"path":"rotation"}},{"sampler":7,"target":{"node":8,"path":"rotation"}},{"sampler":8,"target":{"node":6,"path":"rotation"}},{"sampler":9,"target":{"node":5,"path":"rotation"}},{"sampler":10,"target":{"node":11,"path":"translation"}}]},{"name":"Flinch","samplers":[{"input":140,"output":141,"interpolation":"LINEAR"},{"input":142,"output":143,"interpolation":"LINEAR"},{"input":144,"output":145,"interpolation":"LINEAR"}],"channels":[{"sampler":0,"target":{"node":6,"path":"rotation"}},{"sampler":1,"target":{"node":5,"path":"rotation"}},{"sampler":2,"target":{"node":11,"path":"translation"}}]}]}