{"asset":{"version":"2.0","generator":"rivals art-src"},"scene":0,"scenes":[{"nodes":[0]}],"nodes":[{"name":"gun","mesh":0}],"meshes":[{"name":"gun","primitives":[{"attributes":{"POSITION":0,"NORMAL":1,"TEXCOORD_0":2,"COLOR_0":3},"indices":4,"material":1},{"attributes":{"POSITION":5,"NORMAL":6,"TEXCOORD_0":7},"indices":8,"material":0}]}],"materials":[{"name":"armour","pbrMetallicRoughness":{"baseColorFactor":[0.7,0.7,0.72,1],"metallicFactor":0.25,"roughnessFactor":0.35}},{"name":"body","pbrMetallicRoughness":{"baseColorFactor":[1,1,1,1],"metallicFactor":0.1,"roughnessFactor":0.75}},{"name":"visor","pbrMetallicRoughness":{"baseColorFactor":[0.02,0.02,0.03,1],"metallicFactor":0.8,"roughnessFactor":0.1},"emissiveFactor":[0.4,0.4,0.4]}],"accessors":[{"bufferView":0,"componentType":5126,"count":470,"type":"VEC3","min":[-0.029999999329447746,-0.14000000059604645,-0.6499999761581421],"max":[0.029999999329447746,0.03999999910593033,0.05000000074505806]},{"bufferView":1,"componentType":5126,"count":470,"type":"VEC3"},{"bufferView":2,"componentType":5126,"count":470,"type":"VEC2"},{"bufferView":3,"componentType":5126,"count":470,"type":"VEC4"},{"bufferView":4,"componentType":5125,"count":1896,"type":"SCALAR"},{"bufferView":5,"componentType":5126,"count":216,"type":"VEC3","min":[-0.03099999949336052,0.039000000804662704,-0.33000001311302185],"max":[0.03099999949336052,0.050999999046325684,-0.17000000178813934]},{"bufferView":6,"componentType":5126,"count":216,"type":"VEC3"},{"bufferView":7,"componentType":5126,"count":216,"type":"VEC2"},{"bufferView":8,"componentType":5125,"count":900,"type":"SCALAR"}],"bufferViews":[{"buffer":0,"byteOffset":0,"byteLength":5640,"target":34962},{"buffer":0,"byteOffset":5640,"byteLength":5640,"target":34962},{"buffer":0,"byteOffset":11280,"byteLength":3760,"target":34962},{"buffer":0,"byteOffset":15040,"byteLength":7520,"target":34962},{"buffer":0,"byteOffset":22560,"byteLength":7584,"target":34963},{"buffer":0,"byteOffset":30144,"byteLength":2592,"target":34962},{"buffer":0,"byteOffset":32736,"byteLength":2592,"target":34962},{"buffer":0,"byteOffset":35328,"byteLength":1728,"target":34962},{"buffer":0,"byteOffset":37056,"byteLength":3600,"target":34963}],"buffers":[{"byteLength":40656,"uri":"data:application/octet-stream;base64,"}]}