{"asset":{"version":"2.0","generator":"rivals art-src"},"scene":0,"scenes":[{"nodes":[0]}],"nodes":[{"name":"head","mesh":0}],"meshes":[{"name":"head","primitives":[{"attributes":{"POSITION":0,"NORMAL":1,"TEXCOORD_0":2,"COLOR_0":3},"indices":4,"material":1},{"attributes":{"POSITION":5,"NORMAL":6,"TEXCOORD_0":7},"indices":8,"material":0},{"attributes":{"POSITION":9,"NORMAL":10,"TEXCOORD_0":11},"indices":12,"material":2}]}],"materials":[{"name":"armour","pbrMetallicRoughness":{"baseColorFactor":[0.7,0.7,0.72,1],"metallicFactor":0.25,"roughnessFactor":0.35}},{"name":"body","pbrMetallicRoughness":{"baseColorFactor":[1,1,1,1],"metallicFactor":0.1,"roughnessFactor":0.75}},{"name":"visor","pbrMetallicRoughness":{"baseColorFactor":[0.02,0.02,0.03,1],"metallicFactor":0.8,"roughnessFactor":0.1},"emissiveFactor":[0.4,0.4,0.4]}],"accessors":[{"bufferView":0,"componentType":5126,"count":351,"type":"VEC3","min":[-0.11999999731779099,-0.18000000715255737,-0.12284091860055923],"max":[0.11999999731779099,0.13199999928474426,0.12284091860055923]},{"bufferView":1,"componentType":5126,"count":351,"type":"VEC3"},{"bufferView":2,"componentType":5126,"count":351,"type":"VEC2"},{"bufferView":3,"componentType":5126,"count":351,"type":"VEC4"},{"bufferView":4,"componentType":5125,"count":1572,"type":"SCALAR"},{"bufferView":5,"componentType":5126,"count":135,"type":"VEC3","min":[-0.1522500067949295,-0.07325000315904617,-0.1455010026693344],"max":[0.1522500067949295,0.1732500046491623,0.16550099849700928]},{"bufferView":6,"componentType":5126,"count":135,"type":"VEC3"},{"bufferView":7,"componentType":5126,"count":135,"type":"VEC2"},{"bufferView":8,"componentType":5125,"count":672,"type":"SCALAR"},{"bufferView":9,"componentType":5126,"count":216,"type":"VEC3","min":[-0.10000000149011612,-0.029999999329447746,-0.14000000059604645],"max":[0.10000000149011612,0.029999999329447746,-0.07999999821186066]},{"bufferView":10,"componentType":5126,"count":216,"type":"VEC3"},{"bufferView":11,"componentType":5126,"count":216,"type":"VEC2"},{"bufferView":12,"componentType":5125,"count":900,"type":"SCALAR"}],"bufferViews":[{"buffer":0,"byteOffset":0,"byteLength":4212,"target":34962},{"buffer":0,"byteOffset":4212,"byteLength":4212,"target":34962},{"buffer":0,"byteOffset":8424,"byteLength":2808,"target":34962},{"buffer":0,"byteOffset":11232,"byteLength":5616,"target":34962},{"buffer":0,"byteOffset":16848,"byteLength":6288,"target":34963},{"buffer":0,"byteOffset":23136,"byteLength":1620,"target":34962},{"buffer":0,"byteOffset":24756,"byteLength":1620,"target":34962},{"buffer":0,"byteOffset":26376,"byteLength":1080,"target":34962},{"buffer":0,"byteOffset":27456,"byteLength":2688,"target":34963},{"buffer":0,"byteOffset":30144,"byteLength":2592,"target":34962},{"buffer":0,"byteOffset":32736,"byteLength":2592,"target":34962},{"buffer":0,"byteOffset":35328,"byteLength":1728,"target":34962},{"buffer":0,"byteOffset":37056,"byteLength":3600,"target":34963}],"buffers":[{"byteLength":40656,"uri":"data:application/octet-stream;base64,"}]}