{"asset":{"version":"2.0","generator":"rivals art-src"},"scene":0,"scenes":[{"nodes":[0]}],"nodes":[{"name":"thigh","mesh":0}],"meshes":[{"name":"thigh","primitives":[{"attributes":{"POSITION":0,"NORMAL":1,"TEXCOORD_0":2,"COLOR_0":3},"indices":4,"material":1},{"attributes":{"POSITION":5,"NORMAL":6,"TEXCOORD_0":7},"indices":8,"material":0}]}],"materials":[{"name":"armour","pbrMetallicRoughness":{"baseColorFactor":[0.7,0.7,0.72,1],"metallicFactor":0.25,"roughnessFactor":0.35}},{"name":"body","pbrMetallicRoughness":{"baseColorFactor":[1,1,1,1],"metallicFactor":0.1,"roughnessFactor":0.75}},{"name":"visor","pbrMetallicRoughness":{"baseColorFactor":[0.02,0.02,0.03,1],"metallicFactor":0.8,"roughnessFactor":0.1},"emissiveFactor":[0.4,0.4,0.4]}],"accessors":[{"bufferView":0,"componentType":5126,"count":216,"type":"VEC3","min":[-0.07500000298023224,-0.41999998688697815,-0.08500000089406967],"max":[0.07500000298023224,-2.7755575615628914e-17,0.08500000089406967]},{"bufferView":1,"componentType":5126,"count":216,"type":"VEC3"},{"bufferView":2,"componentType":5126,"count":216,"type":"VEC2"},{"bufferView":3,"componentType":5126,"count":216,"type":"VEC4"},{"bufferView":4,"componentType":5125,"count":900,"type":"SCALAR"},{"bufferView":5,"componentType":5126,"count":216,"type":"VEC3","min":[-0.07750000059604645,-0.18000000715255737,-0.125],"max":[0.07750000059604645,-0.05999999865889549,0.004999999888241291]},{"bufferView":6,"componentType":5126,"count":216,"type":"VEC3"},{"bufferView":7,"componentType":5126,"count":216,"type":"VEC2"},{"bufferView":8,"componentType":5125,"count":900,"type":"SCALAR"}],"bufferViews":[{"buffer":0,"byteOffset":0,"byteLength":2592,"target":34962},{"buffer":0,"byteOffset":2592,"byteLength":2592,"target":34962},{"buffer":0,"byteOffset":5184,"byteLength":1728,"target":34962},{"buffer":0,"byteOffset":6912,"byteLength":3456,"target":34962},{"buffer":0,"byteOffset":10368,"byteLength":3600,"target":34963},{"buffer":0,"byteOffset":13968,"byteLength":2592,"target":34962},{"buffer":0,"byteOffset":16560,"byteLength":2592,"target":34962},{"buffer":0,"byteOffset":19152,"byteLength":1728,"target":34962},{"buffer":0,"byteOffset":20880,"byteLength":3600,"target":34963}],"buffers":[{"byteLength":24480,"uri":"data:application/octet-stream;base64,"}]}