{"asset":{"version":"2.0","generator":"rivals art-src"},"scene":0,"scenes":[{"nodes":[0]}],"nodes":[{"name":"arm","mesh":0}],"meshes":[{"name":"arm","primitives":[{"attributes":{"POSITION":0,"NORMAL":1,"TEXCOORD_0":2,"COLOR_0":3},"indices":4,"material":1},{"attributes":{"POSITION":5,"NORMAL":6,"TEXCOORD_0":7},"indices":8,"material":0}]}],"materials":[{"name":"armour","pbrMetallicRoughness":{"baseColorFactor":[0.7,0.7,0.72,1],"metallicFactor":0.25,"roughnessFactor":0.35}},{"name":"body","pbrMetallicRoughness":{"baseColorFactor":[1,1,1,1],"metallicFactor":0.1,"roughnessFactor":0.75}},{"name":"visor","pbrMetallicRoughness":{"baseColorFactor":[0.02,0.02,0.03,1],"metallicFactor":0.8,"roughnessFactor":0.1},"emissiveFactor":[0.4,0.4,0.4]}],"accessors":[{"bufferView":0,"componentType":5126,"count":216,"type":"VEC3","min":[-0.054999999701976776,-0.30000001192092896,-0.054999999701976776],"max":[0.054999999701976776,0,0.054999999701976776]},{"bufferView":1,"componentType":5126,"count":216,"type":"VEC3"},{"bufferView":2,"componentType":5126,"count":216,"type":"VEC2"},{"bufferView":3,"componentType":5126,"count":216,"type":"VEC4"},{"bufferView":4,"componentType":5125,"count":900,"type":"SCALAR"},{"bufferView":5,"componentType":5126,"count":77,"type":"VEC3","min":[-0.10199999809265137,-0.08649999648332596,-0.08892378211021423],"max":[0.10199999809265137,0.06650000065565109,0.08892378211021423]},{"bufferView":6,"componentType":5126,"count":77,"type":"VEC3"},{"bufferView":7,"componentType":5126,"count":77,"type":"VEC2"},{"bufferView":8,"componentType":5125,"count":360,"type":"SCALAR"}],"bufferViews":[{"buffer":0,"byteOffset":0,"byteLength":2592,"target":34962},{"buffer":0,"byteOffset":2592,"byteLength":2592,"target":34962},{"buffer":0,"byteOffset":5184,"byteLength":1728,"target":34962},{"buffer":0,"byteOffset":6912,"byteLength":3456,"target":34962},{"buffer":0,"byteOffset":10368,"byteLength":3600,"target":34963},{"buffer":0,"byteOffset":13968,"byteLength":924,"target":34962},{"buffer":0,"byteOffset":14892,"byteLength":924,"target":34962},{"buffer":0,"byteOffset":15816,"byteLength":616,"target":34962},{"buffer":0,"byteOffset":16432,"byteLength":1440,"target":34963}],"buffers":[{"byteLength":17872,"uri":"data:application/octet-stream;base64,"}]}