{"asset":{"version":"2.0","generator":"rivals art-src"},"scene":0,"scenes":[{"nodes":[0]}],"nodes":[{"name":"hips","mesh":0}],"meshes":[{"name":"hips","primitives":[{"attributes":{"POSITION":0,"NORMAL":1,"TEXCOORD_0":2,"COLOR_0":3},"indices":4,"material":1}]}],"materials":[{"name":"armour","pbrMetallicRoughness":{"baseColorFactor":[0.7,0.7,0.72,1],"metallicFactor":0.25,"roughnessFactor":0.35}},{"name":"body","pbrMetallicRoughness":{"baseColorFactor":[1,1,1,1],"metallicFactor":0.1,"roughnessFactor":0.75}},{"name":"visor","pbrMetallicRoughness":{"baseColorFactor":[0.02,0.02,0.03,1],"metallicFactor":0.8,"roughnessFactor":0.1},"emissiveFactor":[0.4,0.4,0.4]}],"accessors":[{"bufferView":0,"componentType":5126,"count":648,"type":"VEC3","min":[-0.1899999976158142,-0.09000000357627869,-0.11999999731779099],"max":[0.20999999344348907,0.10000000149011612,0.11999999731779099]},{"bufferView":1,"componentType":5126,"count":648,"type":"VEC3"},{"bufferView":2,"componentType":5126,"count":648,"type":"VEC2"},{"bufferView":3,"componentType":5126,"count":648,"type":"VEC4"},{"bufferView":4,"componentType":5125,"count":2700,"type":"SCALAR"}],"bufferViews":[{"buffer":0,"byteOffset":0,"byteLength":7776,"target":34962},{"buffer":0,"byteOffset":7776,"byteLength":7776,"target":34962},{"buffer":0,"byteOffset":15552,"byteLength":5184,"target":34962},{"buffer":0,"byteOffset":20736,"byteLength":10368,"target":34962},{"buffer":0,"byteOffset":31104,"byteLength":10800,"target":34963}],"buffers":[{"byteLength":41904,"uri":"data:application/octet-stream;base64,"}]}