{"asset":{"version":"2.0","generator":"rivals art-src"},"scene":0,"scenes":[{"nodes":[0]}],"nodes":[{"name":"torso","mesh":0}],"meshes":[{"name":"torso","primitives":[{"attributes":{"POSITION":0,"NORMAL":1,"TEXCOORD_0":2,"COLOR_0":3},"indices":4,"material":1},{"attributes":{"POSITION":5,"NORMAL":6,"TEXCOORD_0":7},"indices":8,"material":0},{"attributes":{"POSITION":9,"NORMAL":10,"TEXCOORD_0":11},"indices":12,"material":0},{"attributes":{"POSITION":13,"NORMAL":14,"TEXCOORD_0":15},"indices":16,"material":2}]}],"materials":[{"name":"armour","pbrMetallicRoughness":{"baseColorFactor":[0.7,0.7,0.72,1],"metallicFactor":0.25,"roughnessFactor":0.35}},{"name":"body","pbrMetallicRoughness":{"baseColorFactor":[1,1,1,1],"metallicFactor":0.1,"roughnessFactor":0.75}},{"name":"visor","pbrMetallicRoughness":{"baseColorFactor":[0.02,0.02,0.03,1],"metallicFactor":0.8,"roughnessFactor":0.1},"emissiveFactor":[0.4,0.4,0.4]}],"accessors":[{"bufferView":0,"componentType":5126,"count":648,"type":"VEC3","min":[-0.20000000298023224,0,-0.1899999976158142],"max":[0.20000000298023224,0.5,0.2199999988079071]},{"bufferView":1,"componentType":5126,"count":648,"type":"VEC3"},{"bufferView":2,"componentType":5126,"count":648,"type":"VEC2"},{"bufferView":3,"componentType":5126,"count":648,"type":"VEC4"},{"bufferView":4,"componentType":5125,"count":2700,"type":"SCALAR"},{"bufferView":5,"componentType":5126,"count":216,"type":"VEC3","min":[-0.20999999344348907,0.12999999523162842,-0.14000000059604645],"max":[0.20999999344348907,0.4699999988079071,0.14000000059604645]},{"bufferView":6,"componentType":5126,"count":216,"type":"VEC3"},{"bufferView":7,"componentType":5126,"count":216,"type":"VEC2"},{"bufferView":8,"componentType":5125,"count":900,"type":"SCALAR"},{"bufferView":9,"componentType":5126,"count":216,"type":"VEC3","min":[-0.10000000149011612,0.4699999988079071,-0.14499999582767487],"max":[0.10000000149011612,0.5299999713897705,0.14499999582767487]},{"bufferView":10,"componentType":5126,"count":216,"type":"VEC3"},{"bufferView":11,"componentType":5126,"count":216,"type":"VEC2"},{"bufferView":12,"componentType":5125,"count":900,"type":"SCALAR"},{"bufferView":13,"componentType":5126,"count":120,"type":"VEC3","min":[-0.14878398180007935,0.406216025352478,-0.15399999916553497],"max":[-0.09121601283550262,0.43378397822380066,-0.1379999965429306]},{"bufferView":14,"componentType":5126,"count":120,"type":"VEC3"},{"bufferView":15,"componentType":5126,"count":120,"type":"VEC2"},{"bufferView":16,"componentType":5125,"count":420,"type":"SCALAR"}],"bufferViews":[{"buffer":0,"byteOffset":0,"byteLength":7776,"target":34962},{"buffer":0,"byteOffset":7776,"byteLength":7776,"target":34962},{"buffer":0,"byteOffset":15552,"byteLength":5184,"target":34962},{"buffer":0,"byteOffset":20736,"byteLength":10368,"target":34962},{"buffer":0,"byteOffset":31104,"byteLength":10800,"target":34963},{"buffer":0,"byteOffset":41904,"byteLength":2592,"target":34962},{"buffer":0,"byteOffset":44496,"byteLength":2592,"target":34962},{"buffer":0,"byteOffset":47088,"byteLength":1728,"target":34962},{"buffer":0,"byteOffset":48816,"byteLength":3600,"target":34963},{"buffer":0,"byteOffset":52416,"byteLength":2592,"target":34962},{"buffer":0,"byteOffset":55008,"byteLength":2592,"target":34962},{"buffer":0,"byteOffset":57600,"byteLength":1728,"target":34962},{"buffer":0,"byteOffset":59328,"byteLength":3600,"target":34963},{"buffer":0,"byteOffset":62928,"byteLength":1440,"target":34962},{"buffer":0,"byteOffset":64368,"byteLength":1440,"target":34962},{"buffer":0,"byteOffset":65808,"byteLength":960,"target":34962},{"buffer":0,"byteOffset":66768,"byteLength":1680,"target":34963}],"buffers":[{"byteLength":68448,"uri":"data:application/octet-stream;base64,"}]}