{"asset":{"version":"2.0","generator":"garden art.mjs"},"scene":0,"scenes":[{"nodes":[0]}],"nodes":[{"mesh":0}],"meshes":[{"primitives":[{"attributes":{"POSITION":0,"NORMAL":1,"TEXCOORD_0":2,"COLOR_0":3},"indices":4,"material":0},{"attributes":{"POSITION":5,"NORMAL":6,"TEXCOORD_0":7,"COLOR_0":8},"indices":9,"material":1}]}],"materials":[{"name":"rainbow","pbrMetallicRoughness":{"baseColorFactor":[1,1,1,1],"metallicFactor":0,"roughnessFactor":0.15},"emissiveFactor":[1,1,1],"extensions":{"KHR_materials_emissive_strength":{"emissiveStrength":0.9}}},{"name":"leaf","pbrMetallicRoughness":{"baseColorFactor":[1,1,1,1],"metallicFactor":0,"roughnessFactor":0.55},"doubleSided":true}],"accessors":[{"bufferView":0,"componentType":5126,"count":90,"type":"VEC3","min":[-0.12600000000000003,-0.14,-0.1228409169349098],"max":[0.12600000000000003,0.09520000000000002,0.1228409169349098]},{"bufferView":1,"componentType":5126,"count":90,"type":"VEC3"},{"bufferView":2,"componentType":5126,"count":90,"type":"VEC2"},{"bufferView":3,"componentType":5126,"count":90,"type":"VEC4"},{"bufferView":4,"componentType":5125,"count":420,"type":"SCALAR"},{"bufferView":5,"componentType":5126,"count":180,"type":"VEC3","min":[-0.015011712988517287,0.0868,-0.014417428094287909],"max":[0.015011712988517287,0.14995412598954466,0.014167585799904504]},{"bufferView":6,"componentType":5126,"count":180,"type":"VEC3"},{"bufferView":7,"componentType":5126,"count":180,"type":"VEC2"},{"bufferView":8,"componentType":5126,"count":180,"type":"VEC4"},{"bufferView":9,"componentType":5125,"count":600,"type":"SCALAR"}],"bufferViews":[{"buffer":0,"byteOffset":0,"byteLength":1080,"target":34962},{"buffer":0,"byteOffset":1080,"byteLength":1080,"target":34962},{"buffer":0,"byteOffset":2160,"byteLength":720,"target":34962},{"buffer":0,"byteOffset":2880,"byteLength":1440,"target":34962},{"buffer":0,"byteOffset":4320,"byteLength":1680,"target":34963},{"buffer":0,"byteOffset":6000,"byteLength":2160,"target":34962},{"buffer":0,"byteOffset":8160,"byteLength":2160,"target":34962},{"buffer":0,"byteOffset":10320,"byteLength":1440,"target":34962},{"buffer":0,"byteOffset":11760,"byteLength":2880,"target":34962},{"buffer":0,"byteOffset":14640,"byteLength":2400,"target":34963}],"buffers":[{"byteLength":17040,"uri":"data:application/octet-stream;base64,"}],"extensionsUsed":["KHR_materials_emissive_strength"]}