{"asset":{"version":"2.0","generator":"garden art.mjs"},"scene":0,"scenes":[{"nodes":[0]}],"nodes":[{"mesh":0}],"meshes":[{"primitives":[{"attributes":{"POSITION":0,"NORMAL":1,"TEXCOORD_0":2,"COLOR_0":3},"indices":4,"material":0},{"attributes":{"POSITION":5,"NORMAL":6,"TEXCOORD_0":7,"COLOR_0":8},"indices":9,"material":1}]}],"materials":[{"name":"wet","pbrMetallicRoughness":{"baseColorFactor":[1,1,1,1],"metallicFactor":0,"roughnessFactor":0.04}},{"name":"drop","pbrMetallicRoughness":{"baseColorFactor":[0.75,0.88,1,0.55],"metallicFactor":0,"roughnessFactor":0.02},"alphaMode":"BLEND"}],"accessors":[{"bufferView":0,"componentType":5126,"count":55,"type":"VEC3","min":[-0.1125,-0.05,-0.10699385808320479],"max":[0.1125,0.375,0.10699385808320479]},{"bufferView":1,"componentType":5126,"count":55,"type":"VEC3"},{"bufferView":2,"componentType":5126,"count":55,"type":"VEC2"},{"bufferView":3,"componentType":5126,"count":55,"type":"VEC4"},{"bufferView":4,"componentType":5125,"count":240,"type":"SCALAR"},{"bufferView":5,"componentType":5126,"count":315,"type":"VEC3","min":[-0.2731693885431491,-0.1803427459252998,-0.250404220055414],"max":[0.2730040108739947,0.08715096363332123,0.20645293601172143]},{"bufferView":6,"componentType":5126,"count":315,"type":"VEC3"},{"bufferView":7,"componentType":5126,"count":315,"type":"VEC2"},{"bufferView":8,"componentType":5126,"count":315,"type":"VEC4"},{"bufferView":9,"componentType":5125,"count":1296,"type":"SCALAR"}],"bufferViews":[{"buffer":0,"byteOffset":0,"byteLength":660,"target":34962},{"buffer":0,"byteOffset":660,"byteLength":660,"target":34962},{"buffer":0,"byteOffset":1320,"byteLength":440,"target":34962},{"buffer":0,"byteOffset":1760,"byteLength":880,"target":34962},{"buffer":0,"byteOffset":2640,"byteLength":960,"target":34963},{"buffer":0,"byteOffset":3600,"byteLength":3780,"target":34962},{"buffer":0,"byteOffset":7380,"byteLength":3780,"target":34962},{"buffer":0,"byteOffset":11160,"byteLength":2520,"target":34962},{"buffer":0,"byteOffset":13680,"byteLength":5040,"target":34962},{"buffer":0,"byteOffset":18720,"byteLength":5184,"target":34963}],"buffers":[{"byteLength":23904,"uri":"data:application/octet-stream;base64,"}]}