{"asset":{"version":"2.0","generator":"garden art.mjs"},"scene":0,"scenes":[{"nodes":[0]}],"nodes":[{"mesh":0}],"meshes":[{"primitives":[{"attributes":{"POSITION":0,"NORMAL":1,"TEXCOORD_0":2,"COLOR_0":3},"indices":4,"material":0},{"attributes":{"POSITION":5,"NORMAL":6,"TEXCOORD_0":7,"COLOR_0":8},"indices":9,"material":1},{"attributes":{"POSITION":10,"NORMAL":11,"TEXCOORD_0":12,"COLOR_0":13},"indices":14,"material":2}]}],"materials":[{"name":"rainbow","pbrMetallicRoughness":{"baseColorFactor":[1,1,1,1],"metallicFactor":0,"roughnessFactor":0.15},"emissiveFactor":[1,1,1],"extensions":{"KHR_materials_emissive_strength":{"emissiveStrength":0.9}}},{"name":"stem","pbrMetallicRoughness":{"baseColorFactor":[1,1,1,1],"metallicFactor":0,"roughnessFactor":0.6}},{"name":"leaf","pbrMetallicRoughness":{"baseColorFactor":[1,1,1,1],"metallicFactor":0,"roughnessFactor":0.55},"doubleSided":true}],"accessors":[{"bufferView":0,"componentType":5126,"count":102,"type":"VEC3","min":[-0.19,-0.17,-0.19],"max":[0.19,0.164,0.19]},{"bufferView":1,"componentType":5126,"count":102,"type":"VEC3"},{"bufferView":2,"componentType":5126,"count":102,"type":"VEC2"},{"bufferView":3,"componentType":5126,"count":102,"type":"VEC4"},{"bufferView":4,"componentType":5125,"count":480,"type":"SCALAR"},{"bufferView":5,"componentType":5126,"count":54,"type":"VEC3","min":[-0.008090169943749476,0.13999999999999999,-0.009510565162951538],"max":[0.010000000000000002,0.20999999999999996,0.009510565162951536]},{"bufferView":6,"componentType":5126,"count":54,"type":"VEC3"},{"bufferView":7,"componentType":5126,"count":54,"type":"VEC2"},{"bufferView":8,"componentType":5126,"count":54,"type":"VEC4"},{"bufferView":9,"componentType":5125,"count":240,"type":"SCALAR"},{"bufferView":10,"componentType":5126,"count":36,"type":"VEC3","min":[-0.029243596730877827,0.19,0],"max":[0.029243596730877827,0.28226068823626993,0.10895854902746255]},{"bufferView":11,"componentType":5126,"count":36,"type":"VEC3"},{"bufferView":12,"componentType":5126,"count":36,"type":"VEC2"},{"bufferView":13,"componentType":5126,"count":36,"type":"VEC4"},{"bufferView":14,"componentType":5125,"count":120,"type":"SCALAR"}],"bufferViews":[{"buffer":0,"byteOffset":0,"byteLength":1224,"target":34962},{"buffer":0,"byteOffset":1224,"byteLength":1224,"target":34962},{"buffer":0,"byteOffset":2448,"byteLength":816,"target":34962},{"buffer":0,"byteOffset":3264,"byteLength":1632,"target":34962},{"buffer":0,"byteOffset":4896,"byteLength":1920,"target":34963},{"buffer":0,"byteOffset":6816,"byteLength":648,"target":34962},{"buffer":0,"byteOffset":7464,"byteLength":648,"target":34962},{"buffer":0,"byteOffset":8112,"byteLength":432,"target":34962},{"buffer":0,"byteOffset":8544,"byteLength":864,"target":34962},{"buffer":0,"byteOffset":9408,"byteLength":960,"target":34963},{"buffer":0,"byteOffset":10368,"byteLength":432,"target":34962},{"buffer":0,"byteOffset":10800,"byteLength":432,"target":34962},{"buffer":0,"byteOffset":11232,"byteLength":288,"target":34962},{"buffer":0,"byteOffset":11520,"byteLength":576,"target":34962},{"buffer":0,"byteOffset":12096,"byteLength":480,"target":34963}],"buffers":[{"byteLength":12576,"uri":"data:application/octet-stream;base64,"}],"extensionsUsed":["KHR_materials_emissive_strength"]}