{"asset":{"version":"2.0","generator":"garden art.mjs"},"scene":0,"scenes":[{"nodes":[0]}],"nodes":[{"mesh":0}],"meshes":[{"primitives":[{"attributes":{"POSITION":0,"NORMAL":1,"TEXCOORD_0":2,"COLOR_0":3},"indices":4,"material":0}]}],"materials":[{"name":"shocked","pbrMetallicRoughness":{"baseColorFactor":[1,0.9215818562772946,0.39157247774972326,1],"metallicFactor":0,"roughnessFactor":0.3},"emissiveFactor":[1,0.7529422167760779,0.06847816984440017],"extensions":{"KHR_materials_emissive_strength":{"emissiveStrength":4}}}],"accessors":[{"bufferView":0,"componentType":5126,"count":353,"type":"VEC3","min":[-0.6529323005474293,-0.42900000000000005,-0.677055330195893],"max":[0.6168840722741415,0.42900000000000005,0.677055330195893]},{"bufferView":1,"componentType":5126,"count":353,"type":"VEC3"},{"bufferView":2,"componentType":5126,"count":353,"type":"VEC2"},{"bufferView":3,"componentType":5126,"count":353,"type":"VEC4"},{"bufferView":4,"componentType":5125,"count":1296,"type":"SCALAR"}],"bufferViews":[{"buffer":0,"byteOffset":0,"byteLength":4236,"target":34962},{"buffer":0,"byteOffset":4236,"byteLength":4236,"target":34962},{"buffer":0,"byteOffset":8472,"byteLength":2824,"target":34962},{"buffer":0,"byteOffset":11296,"byteLength":5648,"target":34962},{"buffer":0,"byteOffset":16944,"byteLength":5184,"target":34963}],"buffers":[{"byteLength":22128,"uri":"data:application/octet-stream;base64,"}],"extensionsUsed":["KHR_materials_emissive_strength"]}