{"asset":{"version":"2.0","generator":"garden art.mjs"},"scene":0,"scenes":[{"nodes":[0]}],"nodes":[{"mesh":0}],"meshes":[{"primitives":[{"attributes":{"POSITION":0,"NORMAL":1,"TEXCOORD_0":2,"COLOR_0":3},"indices":4,"material":0},{"attributes":{"POSITION":5,"NORMAL":6,"TEXCOORD_0":7,"COLOR_0":8},"indices":9,"material":1}]}],"materials":[{"name":"frozen","pbrMetallicRoughness":{"baseColorFactor":[0.6239603916750761,0.8631572134541023,1,1],"metallicFactor":0,"roughnessFactor":0.05},"emissiveFactor":[0.10224173308810132,0.43415363617474895,1],"extensions":{"KHR_materials_emissive_strength":{"emissiveStrength":0.35}}},{"name":"ice","pbrMetallicRoughness":{"baseColorFactor":[0.8,0.95,1,0.35],"metallicFactor":0,"roughnessFactor":0.02},"alphaMode":"BLEND"}],"accessors":[{"bufferView":0,"componentType":5126,"count":150,"type":"VEC3","min":[-0.19049075070275634,-0.26368227933611305,-0.1728209819780397],"max":[0.19049075070275634,0.26368227933611305,0.1728209819780397]},{"bufferView":1,"componentType":5126,"count":150,"type":"VEC3"},{"bufferView":2,"componentType":5126,"count":150,"type":"VEC2"},{"bufferView":3,"componentType":5126,"count":150,"type":"VEC4"},{"bufferView":4,"componentType":5125,"count":756,"type":"SCALAR"},{"bufferView":5,"componentType":5126,"count":88,"type":"VEC3","min":[-0.28817826114955586,-0.28319999999999995,-0.2850652723467221],"max":[0.30084838159514365,0.28319999999999995,0.2841058068071784]},{"bufferView":6,"componentType":5126,"count":88,"type":"VEC3"},{"bufferView":7,"componentType":5126,"count":88,"type":"VEC2"},{"bufferView":8,"componentType":5126,"count":88,"type":"VEC4"},{"bufferView":9,"componentType":5125,"count":420,"type":"SCALAR"}],"bufferViews":[{"buffer":0,"byteOffset":0,"byteLength":1800,"target":34962},{"buffer":0,"byteOffset":1800,"byteLength":1800,"target":34962},{"buffer":0,"byteOffset":3600,"byteLength":1200,"target":34962},{"buffer":0,"byteOffset":4800,"byteLength":2400,"target":34962},{"buffer":0,"byteOffset":7200,"byteLength":3024,"target":34963},{"buffer":0,"byteOffset":10224,"byteLength":1056,"target":34962},{"buffer":0,"byteOffset":11280,"byteLength":1056,"target":34962},{"buffer":0,"byteOffset":12336,"byteLength":704,"target":34962},{"buffer":0,"byteOffset":13040,"byteLength":1408,"target":34962},{"buffer":0,"byteOffset":14448,"byteLength":1680,"target":34963}],"buffers":[{"byteLength":16128,"uri":"data:application/octet-stream;base64,"}],"extensionsUsed":["KHR_materials_emissive_strength"]}