{"asset":{"version":"2.0","generator":"garden art.mjs"},"scene":0,"scenes":[{"nodes":[0]}],"nodes":[{"mesh":0}],"meshes":[{"primitives":[{"attributes":{"POSITION":0,"NORMAL":1,"TEXCOORD_0":2,"COLOR_0":3},"indices":4,"material":0},{"attributes":{"POSITION":5,"NORMAL":6,"TEXCOORD_0":7,"COLOR_0":8},"indices":9,"material":1}]}],"materials":[{"name":"wet","pbrMetallicRoughness":{"baseColorFactor":[1,1,1,1],"metallicFactor":0,"roughnessFactor":0.04}},{"name":"drop","pbrMetallicRoughness":{"baseColorFactor":[0.75,0.88,1,0.55],"metallicFactor":0,"roughnessFactor":0.02},"alphaMode":"BLEND"}],"accessors":[{"bufferView":0,"componentType":5126,"count":474,"type":"VEC3","min":[-0.2242574791544336,-0.252,-0.19586377957511167],"max":[0.22210479303606884,0.33723424280652675,0.25730118510914124]},{"bufferView":1,"componentType":5126,"count":474,"type":"VEC3"},{"bufferView":2,"componentType":5126,"count":474,"type":"VEC2"},{"bufferView":3,"componentType":5126,"count":474,"type":"VEC4"},{"bufferView":4,"componentType":5125,"count":1836,"type":"SCALAR"},{"bufferView":5,"componentType":5126,"count":315,"type":"VEC3","min":[-0.26224261300142315,-0.1731290360882878,-0.2403880512531974],"max":[0.26208385043903487,0.08366492508798837,0.1981948185712526]},{"bufferView":6,"componentType":5126,"count":315,"type":"VEC3"},{"bufferView":7,"componentType":5126,"count":315,"type":"VEC2"},{"bufferView":8,"componentType":5126,"count":315,"type":"VEC4"},{"bufferView":9,"componentType":5125,"count":1296,"type":"SCALAR"}],"bufferViews":[{"buffer":0,"byteOffset":0,"byteLength":5688,"target":34962},{"buffer":0,"byteOffset":5688,"byteLength":5688,"target":34962},{"buffer":0,"byteOffset":11376,"byteLength":3792,"target":34962},{"buffer":0,"byteOffset":15168,"byteLength":7584,"target":34962},{"buffer":0,"byteOffset":22752,"byteLength":7344,"target":34963},{"buffer":0,"byteOffset":30096,"byteLength":3780,"target":34962},{"buffer":0,"byteOffset":33876,"byteLength":3780,"target":34962},{"buffer":0,"byteOffset":37656,"byteLength":2520,"target":34962},{"buffer":0,"byteOffset":40176,"byteLength":5040,"target":34962},{"buffer":0,"byteOffset":45216,"byteLength":5184,"target":34963}],"buffers":[{"byteLength":50400,"uri":"data:application/octet-stream;base64,"}]}