{"asset":{"version":"2.0","generator":"garden art.mjs"},"scene":0,"scenes":[{"nodes":[0]}],"nodes":[{"mesh":0}],"meshes":[{"primitives":[{"attributes":{"POSITION":0,"NORMAL":1,"TEXCOORD_0":2,"COLOR_0":3},"indices":4,"material":0},{"attributes":{"POSITION":5,"NORMAL":6,"TEXCOORD_0":7,"COLOR_0":8},"indices":9,"material":1},{"attributes":{"POSITION":10,"NORMAL":11,"TEXCOORD_0":12,"COLOR_0":13},"indices":14,"material":2}]}],"materials":[{"name":"frozen","pbrMetallicRoughness":{"baseColorFactor":[0.6239603916750761,0.8631572134541023,1,1],"metallicFactor":0,"roughnessFactor":0.05},"emissiveFactor":[0.10224173308810132,0.43415363617474895,1],"extensions":{"KHR_materials_emissive_strength":{"emissiveStrength":0.35}}},{"name":"leaf","pbrMetallicRoughness":{"baseColorFactor":[1,1,1,1],"metallicFactor":0,"roughnessFactor":0.55},"doubleSided":true},{"name":"ice","pbrMetallicRoughness":{"baseColorFactor":[0.8,0.95,1,0.35],"metallicFactor":0,"roughnessFactor":0.02},"alphaMode":"BLEND"}],"accessors":[{"bufferView":0,"componentType":5126,"count":90,"type":"VEC3","min":[-0.18000000000000002,-0.2,-0.17548702419272827],"max":[0.18000000000000002,0.136,0.17548702419272827]},{"bufferView":1,"componentType":5126,"count":90,"type":"VEC3"},{"bufferView":2,"componentType":5126,"count":90,"type":"VEC2"},{"bufferView":3,"componentType":5126,"count":90,"type":"VEC4"},{"bufferView":4,"componentType":5125,"count":420,"type":"SCALAR"},{"bufferView":5,"componentType":5126,"count":180,"type":"VEC3","min":[-0.02144530426931041,0.124,-0.020596325848982723],"max":[0.02144530426931041,0.21422017998506376,0.02023940828557786]},{"bufferView":6,"componentType":5126,"count":180,"type":"VEC3"},{"bufferView":7,"componentType":5126,"count":180,"type":"VEC2"},{"bufferView":8,"componentType":5126,"count":180,"type":"VEC4"},{"bufferView":9,"componentType":5125,"count":600,"type":"SCALAR"},{"bufferView":10,"componentType":5126,"count":88,"type":"VEC3","min":[-0.24014855095796325,-0.236,-0.2375543936222684],"max":[0.25070698466261976,0.236,0.23675483900598202]},{"bufferView":11,"componentType":5126,"count":88,"type":"VEC3"},{"bufferView":12,"componentType":5126,"count":88,"type":"VEC2"},{"bufferView":13,"componentType":5126,"count":88,"type":"VEC4"},{"bufferView":14,"componentType":5125,"count":420,"type":"SCALAR"}],"bufferViews":[{"buffer":0,"byteOffset":0,"byteLength":1080,"target":34962},{"buffer":0,"byteOffset":1080,"byteLength":1080,"target":34962},{"buffer":0,"byteOffset":2160,"byteLength":720,"target":34962},{"buffer":0,"byteOffset":2880,"byteLength":1440,"target":34962},{"buffer":0,"byteOffset":4320,"byteLength":1680,"target":34963},{"buffer":0,"byteOffset":6000,"byteLength":2160,"target":34962},{"buffer":0,"byteOffset":8160,"byteLength":2160,"target":34962},{"buffer":0,"byteOffset":10320,"byteLength":1440,"target":34962},{"buffer":0,"byteOffset":11760,"byteLength":2880,"target":34962},{"buffer":0,"byteOffset":14640,"byteLength":2400,"target":34963},{"buffer":0,"byteOffset":17040,"byteLength":1056,"target":34962},{"buffer":0,"byteOffset":18096,"byteLength":1056,"target":34962},{"buffer":0,"byteOffset":19152,"byteLength":704,"target":34962},{"buffer":0,"byteOffset":19856,"byteLength":1408,"target":34962},{"buffer":0,"byteOffset":21264,"byteLength":1680,"target":34963}],"buffers":[{"byteLength":22944,"uri":"data:application/octet-stream;base64,"}],"extensionsUsed":["KHR_materials_emissive_strength"]}