{"asset":{"version":"2.0","generator":"garden art.mjs"},"scene":0,"scenes":[{"nodes":[0]}],"nodes":[{"mesh":0}],"meshes":[{"primitives":[{"attributes":{"POSITION":0,"NORMAL":1,"TEXCOORD_0":2,"COLOR_0":3},"indices":4,"material":0}]}],"materials":[{"name":"chilled","pbrMetallicRoughness":{"baseColorFactor":[0.768151147247507,0.9046611743911496,1,1],"metallicFactor":0,"roughnessFactor":0.25}}],"accessors":[{"bufferView":0,"componentType":5126,"count":474,"type":"VEC3","min":[-0.2242574791544336,-0.252,-0.19586377957511167],"max":[0.22210479303606884,0.33723424280652675,0.25730118510914124]},{"bufferView":1,"componentType":5126,"count":474,"type":"VEC3"},{"bufferView":2,"componentType":5126,"count":474,"type":"VEC2"},{"bufferView":3,"componentType":5126,"count":474,"type":"VEC4"},{"bufferView":4,"componentType":5125,"count":1836,"type":"SCALAR"}],"bufferViews":[{"buffer":0,"byteOffset":0,"byteLength":5688,"target":34962},{"buffer":0,"byteOffset":5688,"byteLength":5688,"target":34962},{"buffer":0,"byteOffset":11376,"byteLength":3792,"target":34962},{"buffer":0,"byteOffset":15168,"byteLength":7584,"target":34962},{"buffer":0,"byteOffset":22752,"byteLength":7344,"target":34963}],"buffers":[{"byteLength":30096,"uri":"data:application/octet-stream;base64,"}]}