{"asset":{"version":"2.0","generator":"garden art.mjs"},"scene":0,"scenes":[{"nodes":[0]}],"nodes":[{"mesh":0}],"meshes":[{"primitives":[{"attributes":{"POSITION":0,"NORMAL":1,"TEXCOORD_0":2,"COLOR_0":3},"indices":4,"material":0}]}],"materials":[{"name":"rainbow","pbrMetallicRoughness":{"baseColorFactor":[1,1,1,1],"metallicFactor":0,"roughnessFactor":0.15},"emissiveFactor":[1,1,1],"extensions":{"KHR_materials_emissive_strength":{"emissiveStrength":0.9}}}],"accessors":[{"bufferView":0,"componentType":5126,"count":209,"type":"VEC3","min":[-0.55,-0.42900000000000005,-0.677055330195893],"max":[0.55,0.42900000000000005,0.677055330195893]},{"bufferView":1,"componentType":5126,"count":209,"type":"VEC3"},{"bufferView":2,"componentType":5126,"count":209,"type":"VEC2"},{"bufferView":3,"componentType":5126,"count":209,"type":"VEC4"},{"bufferView":4,"componentType":5125,"count":1080,"type":"SCALAR"}],"bufferViews":[{"buffer":0,"byteOffset":0,"byteLength":2508,"target":34962},{"buffer":0,"byteOffset":2508,"byteLength":2508,"target":34962},{"buffer":0,"byteOffset":5016,"byteLength":1672,"target":34962},{"buffer":0,"byteOffset":6688,"byteLength":3344,"target":34962},{"buffer":0,"byteOffset":10032,"byteLength":4320,"target":34963}],"buffers":[{"byteLength":14352,"uri":"data:application/octet-stream;base64,"}],"extensionsUsed":["KHR_materials_emissive_strength"]}