{"asset":{"version":"2.0","generator":"garden art.mjs"},"scene":0,"scenes":[{"nodes":[0]}],"nodes":[{"mesh":0}],"meshes":[{"primitives":[{"attributes":{"POSITION":0,"NORMAL":1,"TEXCOORD_0":2,"COLOR_0":3},"indices":4,"material":0},{"attributes":{"POSITION":5,"NORMAL":6,"TEXCOORD_0":7,"COLOR_0":8},"indices":9,"material":1}]}],"materials":[{"name":"shocked","pbrMetallicRoughness":{"baseColorFactor":[1,0.9215818562772946,0.39157247774972326,1],"metallicFactor":0,"roughnessFactor":0.3},"emissiveFactor":[1,0.7529422167760779,0.06847816984440017],"extensions":{"KHR_materials_emissive_strength":{"emissiveStrength":4}}},{"name":"leaf","pbrMetallicRoughness":{"baseColorFactor":[1,1,1,1],"metallicFactor":0,"roughnessFactor":0.55},"doubleSided":true}],"accessors":[{"bufferView":0,"componentType":5126,"count":219,"type":"VEC3","min":[-0.21996967291551134,-0.252,-0.1973991324699766],"max":[0.21040845433361322,0.261,0.20061589940248029]},{"bufferView":1,"componentType":5126,"count":219,"type":"VEC3"},{"bufferView":2,"componentType":5126,"count":219,"type":"VEC2"},{"bufferView":3,"componentType":5126,"count":219,"type":"VEC4"},{"bufferView":4,"componentType":5125,"count":552,"type":"SCALAR"},{"bufferView":5,"componentType":5126,"count":108,"type":"VEC3","min":[-0.30879731650202996,-0.23399999999999999,-0.17886582817146895],"max":[0.30583311794272805,-0.02092123643598187,0.354297728637978]},{"bufferView":6,"componentType":5126,"count":108,"type":"VEC3"},{"bufferView":7,"componentType":5126,"count":108,"type":"VEC2"},{"bufferView":8,"componentType":5126,"count":108,"type":"VEC4"},{"bufferView":9,"componentType":5125,"count":360,"type":"SCALAR"}],"bufferViews":[{"buffer":0,"byteOffset":0,"byteLength":2628,"target":34962},{"buffer":0,"byteOffset":2628,"byteLength":2628,"target":34962},{"buffer":0,"byteOffset":5256,"byteLength":1752,"target":34962},{"buffer":0,"byteOffset":7008,"byteLength":3504,"target":34962},{"buffer":0,"byteOffset":10512,"byteLength":2208,"target":34963},{"buffer":0,"byteOffset":12720,"byteLength":1296,"target":34962},{"buffer":0,"byteOffset":14016,"byteLength":1296,"target":34962},{"buffer":0,"byteOffset":15312,"byteLength":864,"target":34962},{"buffer":0,"byteOffset":16176,"byteLength":1728,"target":34962},{"buffer":0,"byteOffset":17904,"byteLength":1440,"target":34963}],"buffers":[{"byteLength":19344,"uri":"data:application/octet-stream;base64,"}],"extensionsUsed":["KHR_materials_emissive_strength"]}