{"asset":{"version":"2.0","generator":"garden art.mjs"},"scene":0,"scenes":[{"nodes":[0]}],"nodes":[{"mesh":0}],"meshes":[{"primitives":[{"attributes":{"POSITION":0,"NORMAL":1,"TEXCOORD_0":2,"COLOR_0":3},"indices":4,"material":0},{"attributes":{"POSITION":5,"NORMAL":6,"TEXCOORD_0":7,"COLOR_0":8},"indices":9,"material":1}]}],"materials":[{"name":"shocked","pbrMetallicRoughness":{"baseColorFactor":[1,0.9215818562772946,0.39157247774972326,1],"metallicFactor":0,"roughnessFactor":0.3},"emissiveFactor":[1,0.7529422167760779,0.06847816984440017],"extensions":{"KHR_materials_emissive_strength":{"emissiveStrength":4}}},{"name":"leaf","pbrMetallicRoughness":{"baseColorFactor":[1,1,1,1],"metallicFactor":0,"roughnessFactor":0.55},"doubleSided":true}],"accessors":[{"bufferView":0,"componentType":5126,"count":222,"type":"VEC3","min":[-0.2783884132728952,-0.308,-0.24237391897690985],"max":[0.23864861261849352,0.18179996892168637,0.23466410122142145]},{"bufferView":1,"componentType":5126,"count":222,"type":"VEC3"},{"bufferView":2,"componentType":5126,"count":222,"type":"VEC2"},{"bufferView":3,"componentType":5126,"count":222,"type":"VEC4"},{"bufferView":4,"componentType":5125,"count":576,"type":"SCALAR"},{"bufferView":5,"componentType":5126,"count":72,"type":"VEC3","min":[-0.03216795640396561,0.066,-0.060949275463162755],"max":[0.10421390794321736,0.3062554227987611,0.12149556294691885]},{"bufferView":6,"componentType":5126,"count":72,"type":"VEC3"},{"bufferView":7,"componentType":5126,"count":72,"type":"VEC2"},{"bufferView":8,"componentType":5126,"count":72,"type":"VEC4"},{"bufferView":9,"componentType":5125,"count":240,"type":"SCALAR"}],"bufferViews":[{"buffer":0,"byteOffset":0,"byteLength":2664,"target":34962},{"buffer":0,"byteOffset":2664,"byteLength":2664,"target":34962},{"buffer":0,"byteOffset":5328,"byteLength":1776,"target":34962},{"buffer":0,"byteOffset":7104,"byteLength":3552,"target":34962},{"buffer":0,"byteOffset":10656,"byteLength":2304,"target":34963},{"buffer":0,"byteOffset":12960,"byteLength":864,"target":34962},{"buffer":0,"byteOffset":13824,"byteLength":864,"target":34962},{"buffer":0,"byteOffset":14688,"byteLength":576,"target":34962},{"buffer":0,"byteOffset":15264,"byteLength":1152,"target":34962},{"buffer":0,"byteOffset":16416,"byteLength":960,"target":34963}],"buffers":[{"byteLength":17376,"uri":"data:application/octet-stream;base64,"}],"extensionsUsed":["KHR_materials_emissive_strength"]}