{"asset":{"version":"2.0","generator":"garden art.mjs"},"scene":0,"scenes":[{"nodes":[0]}],"nodes":[{"mesh":0}],"meshes":[{"primitives":[{"attributes":{"POSITION":0,"NORMAL":1,"TEXCOORD_0":2,"COLOR_0":3},"indices":4,"material":0},{"attributes":{"POSITION":5,"NORMAL":6,"TEXCOORD_0":7,"COLOR_0":8},"indices":9,"material":1}]}],"materials":[{"name":"shocked","pbrMetallicRoughness":{"baseColorFactor":[1,0.9215818562772946,0.39157247774972326,1],"metallicFactor":0,"roughnessFactor":0.3},"emissiveFactor":[1,0.7529422167760779,0.06847816984440017],"extensions":{"KHR_materials_emissive_strength":{"emissiveStrength":4}}},{"name":"stem","pbrMetallicRoughness":{"baseColorFactor":[1,1,1,1],"metallicFactor":0,"roughnessFactor":0.6}}],"accessors":[{"bufferView":0,"componentType":5126,"count":294,"type":"VEC3","min":[-0.3322382233760631,-0.28,-0.277162271791677],"max":[0.349879700937419,0.28,0.3139815264561545]},{"bufferView":1,"componentType":5126,"count":294,"type":"VEC3"},{"bufferView":2,"componentType":5126,"count":294,"type":"VEC2"},{"bufferView":3,"componentType":5126,"count":294,"type":"VEC4"},{"bufferView":4,"componentType":5125,"count":972,"type":"SCALAR"},{"bufferView":5,"componentType":5126,"count":54,"type":"VEC3","min":[-0.013591485505499119,0.266,-0.015977749473758584],"max":[0.016800000000000002,0.336,0.01597774947375858]},{"bufferView":6,"componentType":5126,"count":54,"type":"VEC3"},{"bufferView":7,"componentType":5126,"count":54,"type":"VEC2"},{"bufferView":8,"componentType":5126,"count":54,"type":"VEC4"},{"bufferView":9,"componentType":5125,"count":240,"type":"SCALAR"}],"bufferViews":[{"buffer":0,"byteOffset":0,"byteLength":3528,"target":34962},{"buffer":0,"byteOffset":3528,"byteLength":3528,"target":34962},{"buffer":0,"byteOffset":7056,"byteLength":2352,"target":34962},{"buffer":0,"byteOffset":9408,"byteLength":4704,"target":34962},{"buffer":0,"byteOffset":14112,"byteLength":3888,"target":34963},{"buffer":0,"byteOffset":18000,"byteLength":648,"target":34962},{"buffer":0,"byteOffset":18648,"byteLength":648,"target":34962},{"buffer":0,"byteOffset":19296,"byteLength":432,"target":34962},{"buffer":0,"byteOffset":19728,"byteLength":864,"target":34962},{"buffer":0,"byteOffset":20592,"byteLength":960,"target":34963}],"buffers":[{"byteLength":21552,"uri":"data:application/octet-stream;base64,"}],"extensionsUsed":["KHR_materials_emissive_strength"]}