{"asset":{"version":"2.0","generator":"garden art.mjs"},"scene":0,"scenes":[{"nodes":[0]}],"nodes":[{"mesh":0}],"meshes":[{"primitives":[{"attributes":{"POSITION":0,"NORMAL":1,"TEXCOORD_0":2,"COLOR_0":3},"indices":4,"material":0},{"attributes":{"POSITION":5,"NORMAL":6,"TEXCOORD_0":7,"COLOR_0":8},"indices":9,"material":1},{"attributes":{"POSITION":10,"NORMAL":11,"TEXCOORD_0":12,"COLOR_0":13},"indices":14,"material":2}]}],"materials":[{"name":"frozen","pbrMetallicRoughness":{"baseColorFactor":[0.6239603916750761,0.8631572134541023,1,1],"metallicFactor":0,"roughnessFactor":0.05},"emissiveFactor":[0.10224173308810132,0.43415363617474895,1],"extensions":{"KHR_materials_emissive_strength":{"emissiveStrength":0.35}}},{"name":"stem","pbrMetallicRoughness":{"baseColorFactor":[1,1,1,1],"metallicFactor":0,"roughnessFactor":0.6}},{"name":"ice","pbrMetallicRoughness":{"baseColorFactor":[0.8,0.95,1,0.35],"metallicFactor":0,"roughnessFactor":0.02},"alphaMode":"BLEND"}],"accessors":[{"bufferView":0,"componentType":5126,"count":150,"type":"VEC3","min":[-0.11817693036146495,-0.12,-0.1152139879853598],"max":[0.11817693036146495,0.12,0.1152139879853598]},{"bufferView":1,"componentType":5126,"count":150,"type":"VEC3"},{"bufferView":2,"componentType":5126,"count":150,"type":"VEC2"},{"bufferView":3,"componentType":5126,"count":150,"type":"VEC4"},{"bufferView":4,"componentType":5125,"count":756,"type":"SCALAR"},{"bufferView":5,"componentType":5126,"count":54,"type":"VEC3","min":[-0.005824922359499622,0.11399999999999999,-0.006847606917325106],"max":[0.0072,0.144,0.006847606917325105]},{"bufferView":6,"componentType":5126,"count":54,"type":"VEC3"},{"bufferView":7,"componentType":5126,"count":54,"type":"VEC2"},{"bufferView":8,"componentType":5126,"count":54,"type":"VEC4"},{"bufferView":9,"componentType":5125,"count":240,"type":"SCALAR"},{"bufferView":10,"componentType":5126,"count":88,"type":"VEC3","min":[-0.14408913057477793,-0.14159999999999998,-0.14253263617336104],"max":[0.15042419079757183,0.14159999999999998,0.1420529034035892]},{"bufferView":11,"componentType":5126,"count":88,"type":"VEC3"},{"bufferView":12,"componentType":5126,"count":88,"type":"VEC2"},{"bufferView":13,"componentType":5126,"count":88,"type":"VEC4"},{"bufferView":14,"componentType":5125,"count":420,"type":"SCALAR"}],"bufferViews":[{"buffer":0,"byteOffset":0,"byteLength":1800,"target":34962},{"buffer":0,"byteOffset":1800,"byteLength":1800,"target":34962},{"buffer":0,"byteOffset":3600,"byteLength":1200,"target":34962},{"buffer":0,"byteOffset":4800,"byteLength":2400,"target":34962},{"buffer":0,"byteOffset":7200,"byteLength":3024,"target":34963},{"buffer":0,"byteOffset":10224,"byteLength":648,"target":34962},{"buffer":0,"byteOffset":10872,"byteLength":648,"target":34962},{"buffer":0,"byteOffset":11520,"byteLength":432,"target":34962},{"buffer":0,"byteOffset":11952,"byteLength":864,"target":34962},{"buffer":0,"byteOffset":12816,"byteLength":960,"target":34963},{"buffer":0,"byteOffset":13776,"byteLength":1056,"target":34962},{"buffer":0,"byteOffset":14832,"byteLength":1056,"target":34962},{"buffer":0,"byteOffset":15888,"byteLength":704,"target":34962},{"buffer":0,"byteOffset":16592,"byteLength":1408,"target":34962},{"buffer":0,"byteOffset":18000,"byteLength":1680,"target":34963}],"buffers":[{"byteLength":19680,"uri":"data:application/octet-stream;base64,"}],"extensionsUsed":["KHR_materials_emissive_strength"]}