{"asset":{"version":"2.0","generator":"garden art.mjs"},"scene":0,"scenes":[{"nodes":[0]}],"nodes":[{"mesh":0}],"meshes":[{"primitives":[{"attributes":{"POSITION":0,"NORMAL":1,"TEXCOORD_0":2,"COLOR_0":3},"indices":4,"material":0},{"attributes":{"POSITION":5,"NORMAL":6,"TEXCOORD_0":7,"COLOR_0":8},"indices":9,"material":1}]}],"materials":[{"name":"plain","pbrMetallicRoughness":{"baseColorFactor":[1,1,1,1],"metallicFactor":0,"roughnessFactor":0.5}},{"name":"stem","pbrMetallicRoughness":{"baseColorFactor":[1,1,1,1],"metallicFactor":0,"roughnessFactor":0.6}}],"accessors":[{"bufferView":0,"componentType":5126,"count":231,"type":"VEC3","min":[-0.54,-0.35,-0.54],"max":[0.54,0.35,0.54]},{"bufferView":1,"componentType":5126,"count":231,"type":"VEC3"},{"bufferView":2,"componentType":5126,"count":231,"type":"VEC2"},{"bufferView":3,"componentType":5126,"count":231,"type":"VEC4"},{"bufferView":4,"componentType":5125,"count":1200,"type":"SCALAR"},{"bufferView":5,"componentType":5126,"count":63,"type":"VEC3","min":[-0.0803761308395026,0.285223989666933,-0.04330127018922193],"max":[0.047766824456280305,0.4760494917968212,0.04330127018922194]},{"bufferView":6,"componentType":5126,"count":63,"type":"VEC3"},{"bufferView":7,"componentType":5126,"count":63,"type":"VEC2"},{"bufferView":8,"componentType":5126,"count":63,"type":"VEC4"},{"bufferView":9,"componentType":5125,"count":288,"type":"SCALAR"}],"bufferViews":[{"buffer":0,"byteOffset":0,"byteLength":2772,"target":34962},{"buffer":0,"byteOffset":2772,"byteLength":2772,"target":34962},{"buffer":0,"byteOffset":5544,"byteLength":1848,"target":34962},{"buffer":0,"byteOffset":7392,"byteLength":3696,"target":34962},{"buffer":0,"byteOffset":11088,"byteLength":4800,"target":34963},{"buffer":0,"byteOffset":15888,"byteLength":756,"target":34962},{"buffer":0,"byteOffset":16644,"byteLength":756,"target":34962},{"buffer":0,"byteOffset":17400,"byteLength":504,"target":34962},{"buffer":0,"byteOffset":17904,"byteLength":1008,"target":34962},{"buffer":0,"byteOffset":18912,"byteLength":1152,"target":34963}],"buffers":[{"byteLength":20064,"uri":"data:application/octet-stream;base64,"}]}