{"asset":{"version":"2.0","generator":"garden art.mjs"},"scene":0,"scenes":[{"nodes":[0]}],"nodes":[{"mesh":0}],"meshes":[{"primitives":[{"attributes":{"POSITION":0,"NORMAL":1,"TEXCOORD_0":2,"COLOR_0":3},"indices":4,"material":0},{"attributes":{"POSITION":5,"NORMAL":6,"TEXCOORD_0":7,"COLOR_0":8},"indices":9,"material":1}]}],"materials":[{"name":"gold","pbrMetallicRoughness":{"baseColorFactor":[1,0.6239603916750761,0.06847816984440017,1],"metallicFactor":1,"roughnessFactor":0.2}},{"name":"leaf","pbrMetallicRoughness":{"baseColorFactor":[1,1,1,1],"metallicFactor":0,"roughnessFactor":0.55},"doubleSided":true}],"accessors":[{"bufferView":0,"componentType":5126,"count":171,"type":"VEC3","min":[-0.16244908709974135,-0.252,-0.16463263181100815],"max":[0.16667577881532852,0.261,0.1601270067951753]},{"bufferView":1,"componentType":5126,"count":171,"type":"VEC3"},{"bufferView":2,"componentType":5126,"count":171,"type":"VEC2"},{"bufferView":3,"componentType":5126,"count":171,"type":"VEC4"},{"bufferView":4,"componentType":5125,"count":480,"type":"SCALAR"},{"bufferView":5,"componentType":5126,"count":108,"type":"VEC3","min":[-0.30879731650202996,-0.23399999999999999,-0.17886582817146895],"max":[0.30583311794272805,-0.02092123643598187,0.354297728637978]},{"bufferView":6,"componentType":5126,"count":108,"type":"VEC3"},{"bufferView":7,"componentType":5126,"count":108,"type":"VEC2"},{"bufferView":8,"componentType":5126,"count":108,"type":"VEC4"},{"bufferView":9,"componentType":5125,"count":360,"type":"SCALAR"}],"bufferViews":[{"buffer":0,"byteOffset":0,"byteLength":2052,"target":34962},{"buffer":0,"byteOffset":2052,"byteLength":2052,"target":34962},{"buffer":0,"byteOffset":4104,"byteLength":1368,"target":34962},{"buffer":0,"byteOffset":5472,"byteLength":2736,"target":34962},{"buffer":0,"byteOffset":8208,"byteLength":1920,"target":34963},{"buffer":0,"byteOffset":10128,"byteLength":1296,"target":34962},{"buffer":0,"byteOffset":11424,"byteLength":1296,"target":34962},{"buffer":0,"byteOffset":12720,"byteLength":864,"target":34962},{"buffer":0,"byteOffset":13584,"byteLength":1728,"target":34962},{"buffer":0,"byteOffset":15312,"byteLength":1440,"target":34963}],"buffers":[{"byteLength":16752,"uri":"data:application/octet-stream;base64,"}]}