{"asset":{"version":"2.0","generator":"garden art.mjs"},"scene":0,"scenes":[{"nodes":[0]}],"nodes":[{"mesh":0}],"meshes":[{"primitives":[{"attributes":{"POSITION":0,"NORMAL":1,"TEXCOORD_0":2,"COLOR_0":3},"indices":4,"material":0},{"attributes":{"POSITION":5,"NORMAL":6,"TEXCOORD_0":7,"COLOR_0":8},"indices":9,"material":1}]}],"materials":[{"name":"wet","pbrMetallicRoughness":{"baseColorFactor":[1,1,1,1],"metallicFactor":0,"roughnessFactor":0.04}},{"name":"drop","pbrMetallicRoughness":{"baseColorFactor":[0.75,0.88,1,0.55],"metallicFactor":0,"roughnessFactor":0.02},"alphaMode":"BLEND"}],"accessors":[{"bufferView":0,"componentType":5126,"count":150,"type":"VEC3","min":[-0.19049075070275634,-0.26368227933611305,-0.1728209819780397],"max":[0.19049075070275634,0.26368227933611305,0.1728209819780397]},{"bufferView":1,"componentType":5126,"count":150,"type":"VEC3"},{"bufferView":2,"componentType":5126,"count":150,"type":"VEC2"},{"bufferView":3,"componentType":5126,"count":150,"type":"VEC4"},{"bufferView":4,"componentType":5125,"count":756,"type":"SCALAR"},{"bufferView":5,"componentType":5126,"count":315,"type":"VEC3","min":[-0.22856702364799114,-0.14317836446017027,-0.18899590124552998],"max":[0.2545211888981286,0.14243280983045695,0.23309466365216047]},{"bufferView":6,"componentType":5126,"count":315,"type":"VEC3"},{"bufferView":7,"componentType":5126,"count":315,"type":"VEC2"},{"bufferView":8,"componentType":5126,"count":315,"type":"VEC4"},{"bufferView":9,"componentType":5125,"count":1296,"type":"SCALAR"}],"bufferViews":[{"buffer":0,"byteOffset":0,"byteLength":1800,"target":34962},{"buffer":0,"byteOffset":1800,"byteLength":1800,"target":34962},{"buffer":0,"byteOffset":3600,"byteLength":1200,"target":34962},{"buffer":0,"byteOffset":4800,"byteLength":2400,"target":34962},{"buffer":0,"byteOffset":7200,"byteLength":3024,"target":34963},{"buffer":0,"byteOffset":10224,"byteLength":3780,"target":34962},{"buffer":0,"byteOffset":14004,"byteLength":3780,"target":34962},{"buffer":0,"byteOffset":17784,"byteLength":2520,"target":34962},{"buffer":0,"byteOffset":20304,"byteLength":5040,"target":34962},{"buffer":0,"byteOffset":25344,"byteLength":5184,"target":34963}],"buffers":[{"byteLength":30528,"uri":"data:application/octet-stream;base64,"}]}