{"asset":{"version":"2.0","generator":"garden art.mjs"},"scene":0,"scenes":[{"nodes":[0]}],"nodes":[{"mesh":0}],"meshes":[{"primitives":[{"attributes":{"POSITION":0,"NORMAL":1,"TEXCOORD_0":2,"COLOR_0":3},"indices":4,"material":0},{"attributes":{"POSITION":5,"NORMAL":6,"TEXCOORD_0":7,"COLOR_0":8},"indices":9,"material":1},{"attributes":{"POSITION":10,"NORMAL":11,"TEXCOORD_0":12,"COLOR_0":13},"indices":14,"material":2}]}],"materials":[{"name":"gold","pbrMetallicRoughness":{"baseColorFactor":[1,0.6239603916750761,0.06847816984440017,1],"metallicFactor":1,"roughnessFactor":0.2}},{"name":"stem","pbrMetallicRoughness":{"baseColorFactor":[1,1,1,1],"metallicFactor":0,"roughnessFactor":0.6}},{"name":"leaf","pbrMetallicRoughness":{"baseColorFactor":[1,1,1,1],"metallicFactor":0,"roughnessFactor":0.55},"doubleSided":true}],"accessors":[{"bufferView":0,"componentType":5126,"count":198,"type":"VEC3","min":[-0.19,-0.17,-0.19],"max":[0.19,0.1795081658332553,0.19]},{"bufferView":1,"componentType":5126,"count":198,"type":"VEC3"},{"bufferView":2,"componentType":5126,"count":198,"type":"VEC2"},{"bufferView":3,"componentType":5126,"count":198,"type":"VEC4"},{"bufferView":4,"componentType":5125,"count":624,"type":"SCALAR"},{"bufferView":5,"componentType":5126,"count":54,"type":"VEC3","min":[-0.008090169943749476,0.13999999999999999,-0.009510565162951538],"max":[0.010000000000000002,0.20999999999999996,0.009510565162951536]},{"bufferView":6,"componentType":5126,"count":54,"type":"VEC3"},{"bufferView":7,"componentType":5126,"count":54,"type":"VEC2"},{"bufferView":8,"componentType":5126,"count":54,"type":"VEC4"},{"bufferView":9,"componentType":5125,"count":240,"type":"SCALAR"},{"bufferView":10,"componentType":5126,"count":36,"type":"VEC3","min":[-0.029243596730877827,0.19,0],"max":[0.029243596730877827,0.28226068823626993,0.10895854902746255]},{"bufferView":11,"componentType":5126,"count":36,"type":"VEC3"},{"bufferView":12,"componentType":5126,"count":36,"type":"VEC2"},{"bufferView":13,"componentType":5126,"count":36,"type":"VEC4"},{"bufferView":14,"componentType":5125,"count":120,"type":"SCALAR"}],"bufferViews":[{"buffer":0,"byteOffset":0,"byteLength":2376,"target":34962},{"buffer":0,"byteOffset":2376,"byteLength":2376,"target":34962},{"buffer":0,"byteOffset":4752,"byteLength":1584,"target":34962},{"buffer":0,"byteOffset":6336,"byteLength":3168,"target":34962},{"buffer":0,"byteOffset":9504,"byteLength":2496,"target":34963},{"buffer":0,"byteOffset":12000,"byteLength":648,"target":34962},{"buffer":0,"byteOffset":12648,"byteLength":648,"target":34962},{"buffer":0,"byteOffset":13296,"byteLength":432,"target":34962},{"buffer":0,"byteOffset":13728,"byteLength":864,"target":34962},{"buffer":0,"byteOffset":14592,"byteLength":960,"target":34963},{"buffer":0,"byteOffset":15552,"byteLength":432,"target":34962},{"buffer":0,"byteOffset":15984,"byteLength":432,"target":34962},{"buffer":0,"byteOffset":16416,"byteLength":288,"target":34962},{"buffer":0,"byteOffset":16704,"byteLength":576,"target":34962},{"buffer":0,"byteOffset":17280,"byteLength":480,"target":34963}],"buffers":[{"byteLength":17760,"uri":"data:application/octet-stream;base64,"}]}