{"asset":{"version":"2.0","generator":"garden art.mjs"},"scene":0,"scenes":[{"nodes":[0]}],"nodes":[{"mesh":0}],"meshes":[{"primitives":[{"attributes":{"POSITION":0,"NORMAL":1,"TEXCOORD_0":2,"COLOR_0":3},"indices":4,"material":0},{"attributes":{"POSITION":5,"NORMAL":6,"TEXCOORD_0":7,"COLOR_0":8},"indices":9,"material":1}]}],"materials":[{"name":"wet","pbrMetallicRoughness":{"baseColorFactor":[1,1,1,1],"metallicFactor":0,"roughnessFactor":0.04}},{"name":"drop","pbrMetallicRoughness":{"baseColorFactor":[0.75,0.88,1,0.55],"metallicFactor":0,"roughnessFactor":0.02},"alphaMode":"BLEND"}],"accessors":[{"bufferView":0,"componentType":5126,"count":209,"type":"VEC3","min":[-0.55,-0.42900000000000005,-0.677055330195893],"max":[0.55,0.42900000000000005,0.677055330195893]},{"bufferView":1,"componentType":5126,"count":209,"type":"VEC3"},{"bufferView":2,"componentType":5126,"count":209,"type":"VEC2"},{"bufferView":3,"componentType":5126,"count":209,"type":"VEC4"},{"bufferView":4,"componentType":5125,"count":1080,"type":"SCALAR"},{"bufferView":5,"componentType":5126,"count":315,"type":"VEC3","min":[-0.4944843842172616,-0.4564809253681451,-0.5657571498982663],"max":[0.5722838297012718,0.4044156612255611,0.476666329851284]},{"bufferView":6,"componentType":5126,"count":315,"type":"VEC3"},{"bufferView":7,"componentType":5126,"count":315,"type":"VEC2"},{"bufferView":8,"componentType":5126,"count":315,"type":"VEC4"},{"bufferView":9,"componentType":5125,"count":1296,"type":"SCALAR"}],"bufferViews":[{"buffer":0,"byteOffset":0,"byteLength":2508,"target":34962},{"buffer":0,"byteOffset":2508,"byteLength":2508,"target":34962},{"buffer":0,"byteOffset":5016,"byteLength":1672,"target":34962},{"buffer":0,"byteOffset":6688,"byteLength":3344,"target":34962},{"buffer":0,"byteOffset":10032,"byteLength":4320,"target":34963},{"buffer":0,"byteOffset":14352,"byteLength":3780,"target":34962},{"buffer":0,"byteOffset":18132,"byteLength":3780,"target":34962},{"buffer":0,"byteOffset":21912,"byteLength":2520,"target":34962},{"buffer":0,"byteOffset":24432,"byteLength":5040,"target":34962},{"buffer":0,"byteOffset":29472,"byteLength":5184,"target":34963}],"buffers":[{"byteLength":34656,"uri":"data:application/octet-stream;base64,"}]}