{"asset":{"version":"2.0","generator":"garden art.mjs"},"scene":0,"scenes":[{"nodes":[0]}],"nodes":[{"mesh":0}],"meshes":[{"primitives":[{"attributes":{"POSITION":0,"NORMAL":1,"TEXCOORD_0":2,"COLOR_0":3},"indices":4,"material":0},{"attributes":{"POSITION":5,"NORMAL":6,"TEXCOORD_0":7,"COLOR_0":8},"indices":9,"material":1}]}],"materials":[{"name":"chilled","pbrMetallicRoughness":{"baseColorFactor":[0.768151147247507,0.9046611743911496,1,1],"metallicFactor":0,"roughnessFactor":0.25}},{"name":"stem","pbrMetallicRoughness":{"baseColorFactor":[1,1,1,1],"metallicFactor":0,"roughnessFactor":0.6}}],"accessors":[{"bufferView":0,"componentType":5126,"count":882,"type":"VEC3","min":[-0.12909466522134513,-0.20548571428571427,-0.14233927335218913],"max":[0.1552,0.2112,0.12239499132503692]},{"bufferView":1,"componentType":5126,"count":882,"type":"VEC3"},{"bufferView":2,"componentType":5126,"count":882,"type":"VEC2"},{"bufferView":3,"componentType":5126,"count":882,"type":"VEC4"},{"bufferView":4,"componentType":5125,"count":4032,"type":"SCALAR"},{"bufferView":5,"componentType":5126,"count":54,"type":"VEC3","min":[-0.006472135954999581,0.14400000000000002,-0.0076084521303612295],"max":[0.008,0.20800000000000002,0.007608452130361229]},{"bufferView":6,"componentType":5126,"count":54,"type":"VEC3"},{"bufferView":7,"componentType":5126,"count":54,"type":"VEC2"},{"bufferView":8,"componentType":5126,"count":54,"type":"VEC4"},{"bufferView":9,"componentType":5125,"count":240,"type":"SCALAR"}],"bufferViews":[{"buffer":0,"byteOffset":0,"byteLength":10584,"target":34962},{"buffer":0,"byteOffset":10584,"byteLength":10584,"target":34962},{"buffer":0,"byteOffset":21168,"byteLength":7056,"target":34962},{"buffer":0,"byteOffset":28224,"byteLength":14112,"target":34962},{"buffer":0,"byteOffset":42336,"byteLength":16128,"target":34963},{"buffer":0,"byteOffset":58464,"byteLength":648,"target":34962},{"buffer":0,"byteOffset":59112,"byteLength":648,"target":34962},{"buffer":0,"byteOffset":59760,"byteLength":432,"target":34962},{"buffer":0,"byteOffset":60192,"byteLength":864,"target":34962},{"buffer":0,"byteOffset":61056,"byteLength":960,"target":34963}],"buffers":[{"byteLength":62016,"uri":"data:application/octet-stream;base64,"}]}