{"asset":{"version":"2.0","generator":"garden art.mjs"},"scene":0,"scenes":[{"nodes":[0]}],"nodes":[{"mesh":0}],"meshes":[{"primitives":[{"attributes":{"POSITION":0,"NORMAL":1,"TEXCOORD_0":2,"COLOR_0":3},"indices":4,"material":0},{"attributes":{"POSITION":5,"NORMAL":6,"TEXCOORD_0":7,"COLOR_0":8},"indices":9,"material":1},{"attributes":{"POSITION":10,"NORMAL":11,"TEXCOORD_0":12,"COLOR_0":13},"indices":14,"material":2}]}],"materials":[{"name":"wet","pbrMetallicRoughness":{"baseColorFactor":[1,1,1,1],"metallicFactor":0,"roughnessFactor":0.04}},{"name":"stem","pbrMetallicRoughness":{"baseColorFactor":[1,1,1,1],"metallicFactor":0,"roughnessFactor":0.6}},{"name":"drop","pbrMetallicRoughness":{"baseColorFactor":[0.75,0.88,1,0.55],"metallicFactor":0,"roughnessFactor":0.02},"alphaMode":"BLEND"}],"accessors":[{"bufferView":0,"componentType":5126,"count":231,"type":"VEC3","min":[-0.54,-0.35,-0.54],"max":[0.54,0.35,0.54]},{"bufferView":1,"componentType":5126,"count":231,"type":"VEC3"},{"bufferView":2,"componentType":5126,"count":231,"type":"VEC2"},{"bufferView":3,"componentType":5126,"count":231,"type":"VEC4"},{"bufferView":4,"componentType":5125,"count":1200,"type":"SCALAR"},{"bufferView":5,"componentType":5126,"count":63,"type":"VEC3","min":[-0.0803761308395026,0.285223989666933,-0.04330127018922193],"max":[0.047766824456280305,0.4760494917968212,0.04330127018922194]},{"bufferView":6,"componentType":5126,"count":63,"type":"VEC3"},{"bufferView":7,"componentType":5126,"count":63,"type":"VEC2"},{"bufferView":8,"componentType":5126,"count":63,"type":"VEC4"},{"bufferView":9,"componentType":5125,"count":288,"type":"SCALAR"},{"bufferView":10,"componentType":5126,"count":315,"type":"VEC3","min":[-0.4945236991652708,-0.13466418949887154,-0.5055893664379315],"max":[0.5492988014687064,0.40775099318474534,0.532272682116869]},{"bufferView":11,"componentType":5126,"count":315,"type":"VEC3"},{"bufferView":12,"componentType":5126,"count":315,"type":"VEC2"},{"bufferView":13,"componentType":5126,"count":315,"type":"VEC4"},{"bufferView":14,"componentType":5125,"count":1296,"type":"SCALAR"}],"bufferViews":[{"buffer":0,"byteOffset":0,"byteLength":2772,"target":34962},{"buffer":0,"byteOffset":2772,"byteLength":2772,"target":34962},{"buffer":0,"byteOffset":5544,"byteLength":1848,"target":34962},{"buffer":0,"byteOffset":7392,"byteLength":3696,"target":34962},{"buffer":0,"byteOffset":11088,"byteLength":4800,"target":34963},{"buffer":0,"byteOffset":15888,"byteLength":756,"target":34962},{"buffer":0,"byteOffset":16644,"byteLength":756,"target":34962},{"buffer":0,"byteOffset":17400,"byteLength":504,"target":34962},{"buffer":0,"byteOffset":17904,"byteLength":1008,"target":34962},{"buffer":0,"byteOffset":18912,"byteLength":1152,"target":34963},{"buffer":0,"byteOffset":20064,"byteLength":3780,"target":34962},{"buffer":0,"byteOffset":23844,"byteLength":3780,"target":34962},{"buffer":0,"byteOffset":27624,"byteLength":2520,"target":34962},{"buffer":0,"byteOffset":30144,"byteLength":5040,"target":34962},{"buffer":0,"byteOffset":35184,"byteLength":5184,"target":34963}],"buffers":[{"byteLength":40368,"uri":"data:application/octet-stream;base64,"}]}