{"asset":{"version":"2.0","generator":"garden art.mjs"},"scene":0,"scenes":[{"nodes":[0]}],"nodes":[{"mesh":0}],"meshes":[{"primitives":[{"attributes":{"POSITION":0,"NORMAL":1,"TEXCOORD_0":2,"COLOR_0":3},"indices":4,"material":0},{"attributes":{"POSITION":5,"NORMAL":6,"TEXCOORD_0":7,"COLOR_0":8},"indices":9,"material":1}]}],"materials":[{"name":"juicy","pbrMetallicRoughness":{"baseColorFactor":[1,1,1,1],"metallicFactor":0,"roughnessFactor":0.22}},{"name":"leaf","pbrMetallicRoughness":{"baseColorFactor":[1,1,1,1],"metallicFactor":0,"roughnessFactor":0.55},"doubleSided":true}],"accessors":[{"bufferView":0,"componentType":5126,"count":78,"type":"VEC3","min":[-0.0924,-0.308,-0.0924],"max":[0.0924,0.0704,0.0924]},{"bufferView":1,"componentType":5126,"count":78,"type":"VEC3"},{"bufferView":2,"componentType":5126,"count":78,"type":"VEC2"},{"bufferView":3,"componentType":5126,"count":78,"type":"VEC4"},{"bufferView":4,"componentType":5125,"count":360,"type":"SCALAR"},{"bufferView":5,"componentType":5126,"count":72,"type":"VEC3","min":[-0.03216795640396561,0.066,-0.060949275463162755],"max":[0.10421390794321736,0.3062554227987611,0.12149556294691885]},{"bufferView":6,"componentType":5126,"count":72,"type":"VEC3"},{"bufferView":7,"componentType":5126,"count":72,"type":"VEC2"},{"bufferView":8,"componentType":5126,"count":72,"type":"VEC4"},{"bufferView":9,"componentType":5125,"count":240,"type":"SCALAR"}],"bufferViews":[{"buffer":0,"byteOffset":0,"byteLength":936,"target":34962},{"buffer":0,"byteOffset":936,"byteLength":936,"target":34962},{"buffer":0,"byteOffset":1872,"byteLength":624,"target":34962},{"buffer":0,"byteOffset":2496,"byteLength":1248,"target":34962},{"buffer":0,"byteOffset":3744,"byteLength":1440,"target":34963},{"buffer":0,"byteOffset":5184,"byteLength":864,"target":34962},{"buffer":0,"byteOffset":6048,"byteLength":864,"target":34962},{"buffer":0,"byteOffset":6912,"byteLength":576,"target":34962},{"buffer":0,"byteOffset":7488,"byteLength":1152,"target":34962},{"buffer":0,"byteOffset":8640,"byteLength":960,"target":34963}],"buffers":[{"byteLength":9600,"uri":"data:application/octet-stream;base64,"}]}