{"asset":{"version":"2.0","generator":"garden art.mjs"},"scene":0,"scenes":[{"nodes":[0]}],"nodes":[{"mesh":0}],"meshes":[{"primitives":[{"attributes":{"POSITION":0,"NORMAL":1,"TEXCOORD_0":2,"COLOR_0":3},"indices":4,"material":0},{"attributes":{"POSITION":5,"NORMAL":6,"TEXCOORD_0":7,"COLOR_0":8},"indices":9,"material":1}]}],"materials":[{"name":"gold","pbrMetallicRoughness":{"baseColorFactor":[1,0.6239603916750761,0.06847816984440017,1],"metallicFactor":1,"roughnessFactor":0.2}},{"name":"leaf","pbrMetallicRoughness":{"baseColorFactor":[1,1,1,1],"metallicFactor":0,"roughnessFactor":0.55},"doubleSided":true}],"accessors":[{"bufferView":0,"componentType":5126,"count":266,"type":"VEC3","min":[-0.1871134730723195,-0.16000000000000003,-0.19696155060244158],"max":[0.20680962813256368,0.1634170115270596,0.1969615506024416]},{"bufferView":1,"componentType":5126,"count":266,"type":"VEC3"},{"bufferView":2,"componentType":5126,"count":266,"type":"VEC2"},{"bufferView":3,"componentType":5126,"count":266,"type":"VEC4"},{"bufferView":4,"componentType":5125,"count":1008,"type":"SCALAR"},{"bufferView":5,"componentType":5126,"count":180,"type":"VEC3","min":[-0.014621798365438914,0.15600000000000003,-0.014240361232993248],"max":[0.014621798365438914,0.23638106143794613,0.013602184767843509]},{"bufferView":6,"componentType":5126,"count":180,"type":"VEC3"},{"bufferView":7,"componentType":5126,"count":180,"type":"VEC2"},{"bufferView":8,"componentType":5126,"count":180,"type":"VEC4"},{"bufferView":9,"componentType":5125,"count":600,"type":"SCALAR"}],"bufferViews":[{"buffer":0,"byteOffset":0,"byteLength":3192,"target":34962},{"buffer":0,"byteOffset":3192,"byteLength":3192,"target":34962},{"buffer":0,"byteOffset":6384,"byteLength":2128,"target":34962},{"buffer":0,"byteOffset":8512,"byteLength":4256,"target":34962},{"buffer":0,"byteOffset":12768,"byteLength":4032,"target":34963},{"buffer":0,"byteOffset":16800,"byteLength":2160,"target":34962},{"buffer":0,"byteOffset":18960,"byteLength":2160,"target":34962},{"buffer":0,"byteOffset":21120,"byteLength":1440,"target":34962},{"buffer":0,"byteOffset":22560,"byteLength":2880,"target":34962},{"buffer":0,"byteOffset":25440,"byteLength":2400,"target":34963}],"buffers":[{"byteLength":27840,"uri":"data:application/octet-stream;base64,"}]}