{"asset":{"version":"2.0","generator":"garden art.mjs"},"scene":0,"scenes":[{"nodes":[0]}],"nodes":[{"mesh":0}],"meshes":[{"primitives":[{"attributes":{"POSITION":0,"NORMAL":1,"TEXCOORD_0":2,"COLOR_0":3},"indices":4,"material":0},{"attributes":{"POSITION":5,"NORMAL":6,"TEXCOORD_0":7,"COLOR_0":8},"indices":9,"material":1},{"attributes":{"POSITION":10,"NORMAL":11,"TEXCOORD_0":12,"COLOR_0":13},"indices":14,"material":2}]}],"materials":[{"name":"wet","pbrMetallicRoughness":{"baseColorFactor":[1,1,1,1],"metallicFactor":0,"roughnessFactor":0.04}},{"name":"leaf","pbrMetallicRoughness":{"baseColorFactor":[1,1,1,1],"metallicFactor":0,"roughnessFactor":0.55},"doubleSided":true},{"name":"drop","pbrMetallicRoughness":{"baseColorFactor":[0.75,0.88,1,0.55],"metallicFactor":0,"roughnessFactor":0.02},"alphaMode":"BLEND"}],"accessors":[{"bufferView":0,"componentType":5126,"count":170,"type":"VEC3","min":[-0.1871134730723195,-0.16000000000000003,-0.19696155060244158],"max":[0.20680962813256368,0.16000000000000003,0.1969615506024416]},{"bufferView":1,"componentType":5126,"count":170,"type":"VEC3"},{"bufferView":2,"componentType":5126,"count":170,"type":"VEC2"},{"bufferView":3,"componentType":5126,"count":170,"type":"VEC4"},{"bufferView":4,"componentType":5125,"count":864,"type":"SCALAR"},{"bufferView":5,"componentType":5126,"count":180,"type":"VEC3","min":[-0.014621798365438914,0.15600000000000003,-0.014240361232993248],"max":[0.014621798365438914,0.23638106143794613,0.013602184767843509]},{"bufferView":6,"componentType":5126,"count":180,"type":"VEC3"},{"bufferView":7,"componentType":5126,"count":180,"type":"VEC2"},{"bufferView":8,"componentType":5126,"count":180,"type":"VEC4"},{"bufferView":9,"componentType":5125,"count":600,"type":"SCALAR"},{"bufferView":10,"componentType":5126,"count":315,"type":"VEC3","min":[-0.2185355108345193,-0.14427419674023986,-0.2003233760443312],"max":[0.21840320869919574,0.06972077090665699,0.16516234880937716]},{"bufferView":11,"componentType":5126,"count":315,"type":"VEC3"},{"bufferView":12,"componentType":5126,"count":315,"type":"VEC2"},{"bufferView":13,"componentType":5126,"count":315,"type":"VEC4"},{"bufferView":14,"componentType":5125,"count":1296,"type":"SCALAR"}],"bufferViews":[{"buffer":0,"byteOffset":0,"byteLength":2040,"target":34962},{"buffer":0,"byteOffset":2040,"byteLength":2040,"target":34962},{"buffer":0,"byteOffset":4080,"byteLength":1360,"target":34962},{"buffer":0,"byteOffset":5440,"byteLength":2720,"target":34962},{"buffer":0,"byteOffset":8160,"byteLength":3456,"target":34963},{"buffer":0,"byteOffset":11616,"byteLength":2160,"target":34962},{"buffer":0,"byteOffset":13776,"byteLength":2160,"target":34962},{"buffer":0,"byteOffset":15936,"byteLength":1440,"target":34962},{"buffer":0,"byteOffset":17376,"byteLength":2880,"target":34962},{"buffer":0,"byteOffset":20256,"byteLength":2400,"target":34963},{"buffer":0,"byteOffset":22656,"byteLength":3780,"target":34962},{"buffer":0,"byteOffset":26436,"byteLength":3780,"target":34962},{"buffer":0,"byteOffset":30216,"byteLength":2520,"target":34962},{"buffer":0,"byteOffset":32736,"byteLength":5040,"target":34962},{"buffer":0,"byteOffset":37776,"byteLength":5184,"target":34963}],"buffers":[{"byteLength":42960,"uri":"data:application/octet-stream;base64,"}]}