{"asset":{"version":"2.0","generator":"garden art.mjs"},"scene":0,"scenes":[{"nodes":[0]}],"nodes":[{"mesh":0}],"meshes":[{"primitives":[{"attributes":{"POSITION":0,"NORMAL":1,"TEXCOORD_0":2,"COLOR_0":3},"indices":4,"material":0}]}],"materials":[{"name":"shocked","pbrMetallicRoughness":{"baseColorFactor":[1,0.9215818562772946,0.39157247774972326,1],"metallicFactor":0,"roughnessFactor":0.3},"emissiveFactor":[1,0.7529422167760779,0.06847816984440017],"extensions":{"KHR_materials_emissive_strength":{"emissiveStrength":4}}}],"accessors":[{"bufferView":0,"componentType":5126,"count":294,"type":"VEC3","min":[-0.30391555028909745,-0.26368227933611305,-0.2696232844271549],"max":[0.2900252525006828,0.26368227933611305,0.25917766314351304]},{"bufferView":1,"componentType":5126,"count":294,"type":"VEC3"},{"bufferView":2,"componentType":5126,"count":294,"type":"VEC2"},{"bufferView":3,"componentType":5126,"count":294,"type":"VEC4"},{"bufferView":4,"componentType":5125,"count":972,"type":"SCALAR"}],"bufferViews":[{"buffer":0,"byteOffset":0,"byteLength":3528,"target":34962},{"buffer":0,"byteOffset":3528,"byteLength":3528,"target":34962},{"buffer":0,"byteOffset":7056,"byteLength":2352,"target":34962},{"buffer":0,"byteOffset":9408,"byteLength":4704,"target":34962},{"buffer":0,"byteOffset":14112,"byteLength":3888,"target":34963}],"buffers":[{"byteLength":18000,"uri":"data:application/octet-stream;base64,"}],"extensionsUsed":["KHR_materials_emissive_strength"]}