{"asset":{"version":"2.0","generator":"garden art.mjs"},"scene":0,"scenes":[{"nodes":[0]}],"nodes":[{"mesh":0}],"meshes":[{"primitives":[{"attributes":{"POSITION":0,"NORMAL":1,"TEXCOORD_0":2,"COLOR_0":3},"indices":4,"material":0},{"attributes":{"POSITION":5,"NORMAL":6,"TEXCOORD_0":7,"COLOR_0":8},"indices":9,"material":1}]}],"materials":[{"name":"shocked","pbrMetallicRoughness":{"baseColorFactor":[1,0.9215818562772946,0.39157247774972326,1],"metallicFactor":0,"roughnessFactor":0.3},"emissiveFactor":[1,0.7529422167760779,0.06847816984440017],"extensions":{"KHR_materials_emissive_strength":{"emissiveStrength":4}}},{"name":"stem","pbrMetallicRoughness":{"baseColorFactor":[1,1,1,1],"metallicFactor":0,"roughnessFactor":0.6}}],"accessors":[{"bufferView":0,"componentType":5126,"count":375,"type":"VEC3","min":[-0.5932825417429698,-0.35,-0.54],"max":[0.624785180245391,0.41473994835124095,0.560681297243133]},{"bufferView":1,"componentType":5126,"count":375,"type":"VEC3"},{"bufferView":2,"componentType":5126,"count":375,"type":"VEC2"},{"bufferView":3,"componentType":5126,"count":375,"type":"VEC4"},{"bufferView":4,"componentType":5125,"count":1416,"type":"SCALAR"},{"bufferView":5,"componentType":5126,"count":63,"type":"VEC3","min":[-0.0803761308395026,0.285223989666933,-0.04330127018922193],"max":[0.047766824456280305,0.4760494917968212,0.04330127018922194]},{"bufferView":6,"componentType":5126,"count":63,"type":"VEC3"},{"bufferView":7,"componentType":5126,"count":63,"type":"VEC2"},{"bufferView":8,"componentType":5126,"count":63,"type":"VEC4"},{"bufferView":9,"componentType":5125,"count":288,"type":"SCALAR"}],"bufferViews":[{"buffer":0,"byteOffset":0,"byteLength":4500,"target":34962},{"buffer":0,"byteOffset":4500,"byteLength":4500,"target":34962},{"buffer":0,"byteOffset":9000,"byteLength":3000,"target":34962},{"buffer":0,"byteOffset":12000,"byteLength":6000,"target":34962},{"buffer":0,"byteOffset":18000,"byteLength":5664,"target":34963},{"buffer":0,"byteOffset":23664,"byteLength":756,"target":34962},{"buffer":0,"byteOffset":24420,"byteLength":756,"target":34962},{"buffer":0,"byteOffset":25176,"byteLength":504,"target":34962},{"buffer":0,"byteOffset":25680,"byteLength":1008,"target":34962},{"buffer":0,"byteOffset":26688,"byteLength":1152,"target":34963}],"buffers":[{"byteLength":27840,"uri":"data:application/octet-stream;base64,"}],"extensionsUsed":["KHR_materials_emissive_strength"]}