{"asset":{"version":"2.0","generator":"garden art.mjs"},"scene":0,"scenes":[{"nodes":[0]}],"nodes":[{"mesh":0}],"meshes":[{"primitives":[{"attributes":{"POSITION":0,"NORMAL":1,"TEXCOORD_0":2,"COLOR_0":3},"indices":4,"material":0}]}],"materials":[{"name":"gold","pbrMetallicRoughness":{"baseColorFactor":[1,0.6239603916750761,0.06847816984440017,1],"metallicFactor":1,"roughnessFactor":0.2}}],"accessors":[{"bufferView":0,"componentType":5126,"count":151,"type":"VEC3","min":[-0.2256237320829741,-0.05,-0.22865643307084466],"max":[0.23149413724351184,0.375,0.2223986205488546]},{"bufferView":1,"componentType":5126,"count":151,"type":"VEC3"},{"bufferView":2,"componentType":5126,"count":151,"type":"VEC2"},{"bufferView":3,"componentType":5126,"count":151,"type":"VEC4"},{"bufferView":4,"componentType":5125,"count":384,"type":"SCALAR"}],"bufferViews":[{"buffer":0,"byteOffset":0,"byteLength":1812,"target":34962},{"buffer":0,"byteOffset":1812,"byteLength":1812,"target":34962},{"buffer":0,"byteOffset":3624,"byteLength":1208,"target":34962},{"buffer":0,"byteOffset":4832,"byteLength":2416,"target":34962},{"buffer":0,"byteOffset":7248,"byteLength":1536,"target":34963}],"buffers":[{"byteLength":8784,"uri":"data:application/octet-stream;base64,"}]}