{"asset":{"version":"2.0","generator":"garden art.mjs"},"scene":0,"scenes":[{"nodes":[0]}],"nodes":[{"mesh":0}],"meshes":[{"primitives":[{"attributes":{"POSITION":0,"NORMAL":1,"TEXCOORD_0":2,"COLOR_0":3},"indices":4,"material":0},{"attributes":{"POSITION":5,"NORMAL":6,"TEXCOORD_0":7,"COLOR_0":8},"indices":9,"material":1},{"attributes":{"POSITION":10,"NORMAL":11,"TEXCOORD_0":12,"COLOR_0":13},"indices":14,"material":2}]}],"materials":[{"name":"wet","pbrMetallicRoughness":{"baseColorFactor":[1,1,1,1],"metallicFactor":0,"roughnessFactor":0.04}},{"name":"leaf","pbrMetallicRoughness":{"baseColorFactor":[1,1,1,1],"metallicFactor":0,"roughnessFactor":0.55},"doubleSided":true},{"name":"drop","pbrMetallicRoughness":{"baseColorFactor":[0.75,0.88,1,0.55],"metallicFactor":0,"roughnessFactor":0.02},"alphaMode":"BLEND"}],"accessors":[{"bufferView":0,"componentType":5126,"count":90,"type":"VEC3","min":[-0.18000000000000002,-0.2,-0.17548702419272827],"max":[0.18000000000000002,0.136,0.17548702419272827]},{"bufferView":1,"componentType":5126,"count":90,"type":"VEC3"},{"bufferView":2,"componentType":5126,"count":90,"type":"VEC2"},{"bufferView":3,"componentType":5126,"count":90,"type":"VEC4"},{"bufferView":4,"componentType":5125,"count":420,"type":"SCALAR"},{"bufferView":5,"componentType":5126,"count":180,"type":"VEC3","min":[-0.02144530426931041,0.124,-0.020596325848982723],"max":[0.02144530426931041,0.21422017998506376,0.02023940828557786]},{"bufferView":6,"componentType":5126,"count":180,"type":"VEC3"},{"bufferView":7,"componentType":5126,"count":180,"type":"VEC2"},{"bufferView":8,"componentType":5126,"count":180,"type":"VEC4"},{"bufferView":9,"componentType":5125,"count":600,"type":"SCALAR"},{"bufferView":10,"componentType":5126,"count":315,"type":"VEC3","min":[-0.2185355108345193,-0.14427419674023986,-0.2003233760443312],"max":[0.21840320869919574,0.06972077090665699,0.16516234880937716]},{"bufferView":11,"componentType":5126,"count":315,"type":"VEC3"},{"bufferView":12,"componentType":5126,"count":315,"type":"VEC2"},{"bufferView":13,"componentType":5126,"count":315,"type":"VEC4"},{"bufferView":14,"componentType":5125,"count":1296,"type":"SCALAR"}],"bufferViews":[{"buffer":0,"byteOffset":0,"byteLength":1080,"target":34962},{"buffer":0,"byteOffset":1080,"byteLength":1080,"target":34962},{"buffer":0,"byteOffset":2160,"byteLength":720,"target":34962},{"buffer":0,"byteOffset":2880,"byteLength":1440,"target":34962},{"buffer":0,"byteOffset":4320,"byteLength":1680,"target":34963},{"buffer":0,"byteOffset":6000,"byteLength":2160,"target":34962},{"buffer":0,"byteOffset":8160,"byteLength":2160,"target":34962},{"buffer":0,"byteOffset":10320,"byteLength":1440,"target":34962},{"buffer":0,"byteOffset":11760,"byteLength":2880,"target":34962},{"buffer":0,"byteOffset":14640,"byteLength":2400,"target":34963},{"buffer":0,"byteOffset":17040,"byteLength":3780,"target":34962},{"buffer":0,"byteOffset":20820,"byteLength":3780,"target":34962},{"buffer":0,"byteOffset":24600,"byteLength":2520,"target":34962},{"buffer":0,"byteOffset":27120,"byteLength":5040,"target":34962},{"buffer":0,"byteOffset":32160,"byteLength":5184,"target":34963}],"buffers":[{"byteLength":37344,"uri":"data:application/octet-stream;base64,"}]}