{"asset":{"version":"2.0","generator":"garden art.mjs"},"scene":0,"scenes":[{"nodes":[0]}],"nodes":[{"mesh":0}],"meshes":[{"primitives":[{"attributes":{"POSITION":0,"NORMAL":1,"TEXCOORD_0":2,"COLOR_0":3},"indices":4,"material":0},{"attributes":{"POSITION":5,"NORMAL":6,"TEXCOORD_0":7,"COLOR_0":8},"indices":9,"material":1}]}],"materials":[{"name":"gold","pbrMetallicRoughness":{"baseColorFactor":[1,0.6239603916750761,0.06847816984440017,1],"metallicFactor":1,"roughnessFactor":0.2}},{"name":"leaf","pbrMetallicRoughness":{"baseColorFactor":[1,1,1,1],"metallicFactor":0,"roughnessFactor":0.55},"doubleSided":true}],"accessors":[{"bufferView":0,"componentType":5126,"count":186,"type":"VEC3","min":[-0.18049898566637929,-0.2,-0.18292514645667574],"max":[0.18519530979480947,0.1634170115270596,0.17791889643908368]},{"bufferView":1,"componentType":5126,"count":186,"type":"VEC3"},{"bufferView":2,"componentType":5126,"count":186,"type":"VEC2"},{"bufferView":3,"componentType":5126,"count":186,"type":"VEC4"},{"bufferView":4,"componentType":5125,"count":564,"type":"SCALAR"},{"bufferView":5,"componentType":5126,"count":180,"type":"VEC3","min":[-0.02144530426931041,0.124,-0.020596325848982723],"max":[0.02144530426931041,0.21422017998506376,0.02023940828557786]},{"bufferView":6,"componentType":5126,"count":180,"type":"VEC3"},{"bufferView":7,"componentType":5126,"count":180,"type":"VEC2"},{"bufferView":8,"componentType":5126,"count":180,"type":"VEC4"},{"bufferView":9,"componentType":5125,"count":600,"type":"SCALAR"}],"bufferViews":[{"buffer":0,"byteOffset":0,"byteLength":2232,"target":34962},{"buffer":0,"byteOffset":2232,"byteLength":2232,"target":34962},{"buffer":0,"byteOffset":4464,"byteLength":1488,"target":34962},{"buffer":0,"byteOffset":5952,"byteLength":2976,"target":34962},{"buffer":0,"byteOffset":8928,"byteLength":2256,"target":34963},{"buffer":0,"byteOffset":11184,"byteLength":2160,"target":34962},{"buffer":0,"byteOffset":13344,"byteLength":2160,"target":34962},{"buffer":0,"byteOffset":15504,"byteLength":1440,"target":34962},{"buffer":0,"byteOffset":16944,"byteLength":2880,"target":34962},{"buffer":0,"byteOffset":19824,"byteLength":2400,"target":34963}],"buffers":[{"byteLength":22224,"uri":"data:application/octet-stream;base64,"}]}