{"asset":{"version":"2.0","generator":"garden art.mjs"},"scene":0,"scenes":[{"nodes":[0]}],"nodes":[{"mesh":0}],"meshes":[{"primitives":[{"attributes":{"POSITION":0,"NORMAL":1,"TEXCOORD_0":2,"COLOR_0":3},"indices":4,"material":0}]}],"materials":[{"name":"chilled","pbrMetallicRoughness":{"baseColorFactor":[0.768151147247507,0.9046611743911496,1,1],"metallicFactor":0,"roughnessFactor":0.25}}],"accessors":[{"bufferView":0,"componentType":5126,"count":55,"type":"VEC3","min":[-0.1125,-0.05,-0.10699385808320479],"max":[0.1125,0.375,0.10699385808320479]},{"bufferView":1,"componentType":5126,"count":55,"type":"VEC3"},{"bufferView":2,"componentType":5126,"count":55,"type":"VEC2"},{"bufferView":3,"componentType":5126,"count":55,"type":"VEC4"},{"bufferView":4,"componentType":5125,"count":240,"type":"SCALAR"}],"bufferViews":[{"buffer":0,"byteOffset":0,"byteLength":660,"target":34962},{"buffer":0,"byteOffset":660,"byteLength":660,"target":34962},{"buffer":0,"byteOffset":1320,"byteLength":440,"target":34962},{"buffer":0,"byteOffset":1760,"byteLength":880,"target":34962},{"buffer":0,"byteOffset":2640,"byteLength":960,"target":34963}],"buffers":[{"byteLength":3600,"uri":"data:application/octet-stream;base64,"}]}