{"asset":{"version":"2.0","generator":"garden art.mjs"},"scene":0,"scenes":[{"nodes":[0]}],"nodes":[{"mesh":0}],"meshes":[{"primitives":[{"attributes":{"POSITION":0,"NORMAL":1,"TEXCOORD_0":2,"COLOR_0":3},"indices":4,"material":0},{"attributes":{"POSITION":5,"NORMAL":6,"TEXCOORD_0":7,"COLOR_0":8},"indices":9,"material":1},{"attributes":{"POSITION":10,"NORMAL":11,"TEXCOORD_0":12,"COLOR_0":13},"indices":14,"material":2}]}],"materials":[{"name":"wet","pbrMetallicRoughness":{"baseColorFactor":[1,1,1,1],"metallicFactor":0,"roughnessFactor":0.04}},{"name":"leaf","pbrMetallicRoughness":{"baseColorFactor":[1,1,1,1],"metallicFactor":0,"roughnessFactor":0.55},"doubleSided":true},{"name":"drop","pbrMetallicRoughness":{"baseColorFactor":[0.75,0.88,1,0.55],"metallicFactor":0,"roughnessFactor":0.02},"alphaMode":"BLEND"}],"accessors":[{"bufferView":0,"componentType":5126,"count":75,"type":"VEC3","min":[-0.08415,-0.252,-0.08204018381010046],"max":[0.08415,0.261,0.08204018381010046]},{"bufferView":1,"componentType":5126,"count":75,"type":"VEC3"},{"bufferView":2,"componentType":5126,"count":75,"type":"VEC2"},{"bufferView":3,"componentType":5126,"count":75,"type":"VEC4"},{"bufferView":4,"componentType":5125,"count":336,"type":"SCALAR"},{"bufferView":5,"componentType":5126,"count":108,"type":"VEC3","min":[-0.30879731650202996,-0.23399999999999999,-0.17886582817146895],"max":[0.30583311794272805,-0.02092123643598187,0.354297728637978]},{"bufferView":6,"componentType":5126,"count":108,"type":"VEC3"},{"bufferView":7,"componentType":5126,"count":108,"type":"VEC2"},{"bufferView":8,"componentType":5126,"count":108,"type":"VEC4"},{"bufferView":9,"componentType":5125,"count":360,"type":"SCALAR"},{"bufferView":10,"componentType":5126,"count":315,"type":"VEC3","min":[-0.18129615760786777,-0.14526781493481247,-0.15728978727707474],"max":[0.1298736030633092,0.14001007594317197,0.1943178585865838]},{"bufferView":11,"componentType":5126,"count":315,"type":"VEC3"},{"bufferView":12,"componentType":5126,"count":315,"type":"VEC2"},{"bufferView":13,"componentType":5126,"count":315,"type":"VEC4"},{"bufferView":14,"componentType":5125,"count":1296,"type":"SCALAR"}],"bufferViews":[{"buffer":0,"byteOffset":0,"byteLength":900,"target":34962},{"buffer":0,"byteOffset":900,"byteLength":900,"target":34962},{"buffer":0,"byteOffset":1800,"byteLength":600,"target":34962},{"buffer":0,"byteOffset":2400,"byteLength":1200,"target":34962},{"buffer":0,"byteOffset":3600,"byteLength":1344,"target":34963},{"buffer":0,"byteOffset":4944,"byteLength":1296,"target":34962},{"buffer":0,"byteOffset":6240,"byteLength":1296,"target":34962},{"buffer":0,"byteOffset":7536,"byteLength":864,"target":34962},{"buffer":0,"byteOffset":8400,"byteLength":1728,"target":34962},{"buffer":0,"byteOffset":10128,"byteLength":1440,"target":34963},{"buffer":0,"byteOffset":11568,"byteLength":3780,"target":34962},{"buffer":0,"byteOffset":15348,"byteLength":3780,"target":34962},{"buffer":0,"byteOffset":19128,"byteLength":2520,"target":34962},{"buffer":0,"byteOffset":21648,"byteLength":5040,"target":34962},{"buffer":0,"byteOffset":26688,"byteLength":5184,"target":34963}],"buffers":[{"byteLength":31872,"uri":"data:application/octet-stream;base64,"}]}