{"asset":{"version":"2.0","generator":"garden art.mjs"},"scene":0,"scenes":[{"nodes":[0]}],"nodes":[{"mesh":0}],"meshes":[{"primitives":[{"attributes":{"POSITION":0,"NORMAL":1,"TEXCOORD_0":2,"COLOR_0":3},"indices":4,"material":0},{"attributes":{"POSITION":5,"NORMAL":6,"TEXCOORD_0":7,"COLOR_0":8},"indices":9,"material":1}]}],"materials":[{"name":"gold","pbrMetallicRoughness":{"baseColorFactor":[1,0.6239603916750761,0.06847816984440017,1],"metallicFactor":1,"roughnessFactor":0.2}},{"name":"stem","pbrMetallicRoughness":{"baseColorFactor":[1,1,1,1],"metallicFactor":0,"roughnessFactor":0.6}}],"accessors":[{"bufferView":0,"componentType":5126,"count":327,"type":"VEC3","min":[-0.54,-0.35,-0.54],"max":[0.54,0.35,0.54]},{"bufferView":1,"componentType":5126,"count":327,"type":"VEC3"},{"bufferView":2,"componentType":5126,"count":327,"type":"VEC2"},{"bufferView":3,"componentType":5126,"count":327,"type":"VEC4"},{"bufferView":4,"componentType":5125,"count":1344,"type":"SCALAR"},{"bufferView":5,"componentType":5126,"count":63,"type":"VEC3","min":[-0.0803761308395026,0.285223989666933,-0.04330127018922193],"max":[0.047766824456280305,0.4760494917968212,0.04330127018922194]},{"bufferView":6,"componentType":5126,"count":63,"type":"VEC3"},{"bufferView":7,"componentType":5126,"count":63,"type":"VEC2"},{"bufferView":8,"componentType":5126,"count":63,"type":"VEC4"},{"bufferView":9,"componentType":5125,"count":288,"type":"SCALAR"}],"bufferViews":[{"buffer":0,"byteOffset":0,"byteLength":3924,"target":34962},{"buffer":0,"byteOffset":3924,"byteLength":3924,"target":34962},{"buffer":0,"byteOffset":7848,"byteLength":2616,"target":34962},{"buffer":0,"byteOffset":10464,"byteLength":5232,"target":34962},{"buffer":0,"byteOffset":15696,"byteLength":5376,"target":34963},{"buffer":0,"byteOffset":21072,"byteLength":756,"target":34962},{"buffer":0,"byteOffset":21828,"byteLength":756,"target":34962},{"buffer":0,"byteOffset":22584,"byteLength":504,"target":34962},{"buffer":0,"byteOffset":23088,"byteLength":1008,"target":34962},{"buffer":0,"byteOffset":24096,"byteLength":1152,"target":34963}],"buffers":[{"byteLength":25248,"uri":"data:application/octet-stream;base64,"}]}