{"asset":{"version":"2.0","generator":"garden art.mjs"},"scene":0,"scenes":[{"nodes":[0]}],"nodes":[{"mesh":0}],"meshes":[{"primitives":[{"attributes":{"POSITION":0,"NORMAL":1,"TEXCOORD_0":2,"COLOR_0":3},"indices":4,"material":0},{"attributes":{"POSITION":5,"NORMAL":6,"TEXCOORD_0":7,"COLOR_0":8},"indices":9,"material":1}]}],"materials":[{"name":"gold","pbrMetallicRoughness":{"baseColorFactor":[1,0.6239603916750761,0.06847816984440017,1],"metallicFactor":1,"roughnessFactor":0.2}},{"name":"stem","pbrMetallicRoughness":{"baseColorFactor":[1,1,1,1],"metallicFactor":0,"roughnessFactor":0.6}}],"accessors":[{"bufferView":0,"componentType":5126,"count":246,"type":"VEC3","min":[-0.2757461708434183,-0.28,-0.2688326386325062],"max":[0.2757461708434183,0.28,0.2688326386325062]},{"bufferView":1,"componentType":5126,"count":246,"type":"VEC3"},{"bufferView":2,"componentType":5126,"count":246,"type":"VEC2"},{"bufferView":3,"componentType":5126,"count":246,"type":"VEC4"},{"bufferView":4,"componentType":5125,"count":900,"type":"SCALAR"},{"bufferView":5,"componentType":5126,"count":54,"type":"VEC3","min":[-0.013591485505499119,0.266,-0.015977749473758584],"max":[0.016800000000000002,0.336,0.01597774947375858]},{"bufferView":6,"componentType":5126,"count":54,"type":"VEC3"},{"bufferView":7,"componentType":5126,"count":54,"type":"VEC2"},{"bufferView":8,"componentType":5126,"count":54,"type":"VEC4"},{"bufferView":9,"componentType":5125,"count":240,"type":"SCALAR"}],"bufferViews":[{"buffer":0,"byteOffset":0,"byteLength":2952,"target":34962},{"buffer":0,"byteOffset":2952,"byteLength":2952,"target":34962},{"buffer":0,"byteOffset":5904,"byteLength":1968,"target":34962},{"buffer":0,"byteOffset":7872,"byteLength":3936,"target":34962},{"buffer":0,"byteOffset":11808,"byteLength":3600,"target":34963},{"buffer":0,"byteOffset":15408,"byteLength":648,"target":34962},{"buffer":0,"byteOffset":16056,"byteLength":648,"target":34962},{"buffer":0,"byteOffset":16704,"byteLength":432,"target":34962},{"buffer":0,"byteOffset":17136,"byteLength":864,"target":34962},{"buffer":0,"byteOffset":18000,"byteLength":960,"target":34963}],"buffers":[{"byteLength":18960,"uri":"data:application/octet-stream;base64,"}]}