{"asset":{"version":"2.0","generator":"garden art.mjs"},"scene":0,"scenes":[{"nodes":[0]}],"nodes":[{"mesh":0}],"meshes":[{"primitives":[{"attributes":{"POSITION":0,"NORMAL":1,"TEXCOORD_0":2,"COLOR_0":3},"indices":4,"material":0},{"attributes":{"POSITION":5,"NORMAL":6,"TEXCOORD_0":7,"COLOR_0":8},"indices":9,"material":1},{"attributes":{"POSITION":10,"NORMAL":11,"TEXCOORD_0":12,"COLOR_0":13},"indices":14,"material":2}]}],"materials":[{"name":"frozen","pbrMetallicRoughness":{"baseColorFactor":[0.6239603916750761,0.8631572134541023,1,1],"metallicFactor":0,"roughnessFactor":0.05},"emissiveFactor":[0.10224173308810132,0.43415363617474895,1],"extensions":{"KHR_materials_emissive_strength":{"emissiveStrength":0.35}}},{"name":"leaf","pbrMetallicRoughness":{"baseColorFactor":[1,1,1,1],"metallicFactor":0,"roughnessFactor":0.55},"doubleSided":true},{"name":"ice","pbrMetallicRoughness":{"baseColorFactor":[0.8,0.95,1,0.35],"metallicFactor":0,"roughnessFactor":0.02},"alphaMode":"BLEND"}],"accessors":[{"bufferView":0,"componentType":5126,"count":75,"type":"VEC3","min":[-0.08415,-0.252,-0.08204018381010046],"max":[0.08415,0.261,0.08204018381010046]},{"bufferView":1,"componentType":5126,"count":75,"type":"VEC3"},{"bufferView":2,"componentType":5126,"count":75,"type":"VEC2"},{"bufferView":3,"componentType":5126,"count":75,"type":"VEC4"},{"bufferView":4,"componentType":5125,"count":336,"type":"SCALAR"},{"bufferView":5,"componentType":5126,"count":108,"type":"VEC3","min":[-0.30879731650202996,-0.23399999999999999,-0.17886582817146895],"max":[0.30583311794272805,-0.02092123643598187,0.354297728637978]},{"bufferView":6,"componentType":5126,"count":108,"type":"VEC3"},{"bufferView":7,"componentType":5126,"count":108,"type":"VEC2"},{"bufferView":8,"componentType":5126,"count":108,"type":"VEC4"},{"bufferView":9,"componentType":5125,"count":360,"type":"SCALAR"},{"bufferView":10,"componentType":5126,"count":88,"type":"VEC3","min":[-0.2161336958621669,-0.21239999999999998,-0.21379895426004156],"max":[0.22563628619635775,0.21239999999999998,0.2130793551053838]},{"bufferView":11,"componentType":5126,"count":88,"type":"VEC3"},{"bufferView":12,"componentType":5126,"count":88,"type":"VEC2"},{"bufferView":13,"componentType":5126,"count":88,"type":"VEC4"},{"bufferView":14,"componentType":5125,"count":420,"type":"SCALAR"}],"bufferViews":[{"buffer":0,"byteOffset":0,"byteLength":900,"target":34962},{"buffer":0,"byteOffset":900,"byteLength":900,"target":34962},{"buffer":0,"byteOffset":1800,"byteLength":600,"target":34962},{"buffer":0,"byteOffset":2400,"byteLength":1200,"target":34962},{"buffer":0,"byteOffset":3600,"byteLength":1344,"target":34963},{"buffer":0,"byteOffset":4944,"byteLength":1296,"target":34962},{"buffer":0,"byteOffset":6240,"byteLength":1296,"target":34962},{"buffer":0,"byteOffset":7536,"byteLength":864,"target":34962},{"buffer":0,"byteOffset":8400,"byteLength":1728,"target":34962},{"buffer":0,"byteOffset":10128,"byteLength":1440,"target":34963},{"buffer":0,"byteOffset":11568,"byteLength":1056,"target":34962},{"buffer":0,"byteOffset":12624,"byteLength":1056,"target":34962},{"buffer":0,"byteOffset":13680,"byteLength":704,"target":34962},{"buffer":0,"byteOffset":14384,"byteLength":1408,"target":34962},{"buffer":0,"byteOffset":15792,"byteLength":1680,"target":34963}],"buffers":[{"byteLength":17472,"uri":"data:application/octet-stream;base64,"}],"extensionsUsed":["KHR_materials_emissive_strength"]}