{"asset":{"version":"2.0","generator":"garden art.mjs"},"scene":0,"scenes":[{"nodes":[0]}],"nodes":[{"mesh":0}],"meshes":[{"primitives":[{"attributes":{"POSITION":0,"NORMAL":1,"TEXCOORD_0":2,"COLOR_0":3},"indices":4,"material":0}]}],"materials":[{"name":"plain","pbrMetallicRoughness":{"baseColorFactor":[1,1,1,1],"metallicFactor":0,"roughnessFactor":0.5}}],"accessors":[{"bufferView":0,"componentType":5126,"count":150,"type":"VEC3","min":[-0.19049075070275634,-0.26368227933611305,-0.1728209819780397],"max":[0.19049075070275634,0.26368227933611305,0.1728209819780397]},{"bufferView":1,"componentType":5126,"count":150,"type":"VEC3"},{"bufferView":2,"componentType":5126,"count":150,"type":"VEC2"},{"bufferView":3,"componentType":5126,"count":150,"type":"VEC4"},{"bufferView":4,"componentType":5125,"count":756,"type":"SCALAR"}],"bufferViews":[{"buffer":0,"byteOffset":0,"byteLength":1800,"target":34962},{"buffer":0,"byteOffset":1800,"byteLength":1800,"target":34962},{"buffer":0,"byteOffset":3600,"byteLength":1200,"target":34962},{"buffer":0,"byteOffset":4800,"byteLength":2400,"target":34962},{"buffer":0,"byteOffset":7200,"byteLength":3024,"target":34963}],"buffers":[{"byteLength":10224,"uri":"data:application/octet-stream;base64,"}]}