{"asset":{"version":"2.0","generator":"garden art.mjs"},"scene":0,"scenes":[{"nodes":[0]}],"nodes":[{"mesh":0}],"meshes":[{"primitives":[{"attributes":{"POSITION":0,"NORMAL":1,"TEXCOORD_0":2,"COLOR_0":3},"indices":4,"material":0}]}],"materials":[{"name":"shocked","pbrMetallicRoughness":{"baseColorFactor":[1,0.9215818562772946,0.39157247774972326,1],"metallicFactor":0,"roughnessFactor":0.3},"emissiveFactor":[1,0.7529422167760779,0.06847816984440017],"extensions":{"KHR_materials_emissive_strength":{"emissiveStrength":4}}}],"accessors":[{"bufferView":0,"componentType":5126,"count":199,"type":"VEC3","min":[-0.31635046962829,-0.05,-0.2754249079283067],"max":[0.27119160524828806,0.375,0.26666375138797893]},{"bufferView":1,"componentType":5126,"count":199,"type":"VEC3"},{"bufferView":2,"componentType":5126,"count":199,"type":"VEC2"},{"bufferView":3,"componentType":5126,"count":199,"type":"VEC4"},{"bufferView":4,"componentType":5125,"count":456,"type":"SCALAR"}],"bufferViews":[{"buffer":0,"byteOffset":0,"byteLength":2388,"target":34962},{"buffer":0,"byteOffset":2388,"byteLength":2388,"target":34962},{"buffer":0,"byteOffset":4776,"byteLength":1592,"target":34962},{"buffer":0,"byteOffset":6368,"byteLength":3184,"target":34962},{"buffer":0,"byteOffset":9552,"byteLength":1824,"target":34963}],"buffers":[{"byteLength":11376,"uri":"data:application/octet-stream;base64,"}],"extensionsUsed":["KHR_materials_emissive_strength"]}