{"asset":{"version":"2.0","generator":"garden art.mjs"},"scene":0,"scenes":[{"nodes":[0]}],"nodes":[{"mesh":0}],"meshes":[{"primitives":[{"attributes":{"POSITION":0,"NORMAL":1,"TEXCOORD_0":2,"COLOR_0":3},"indices":4,"material":0},{"attributes":{"POSITION":5,"NORMAL":6,"TEXCOORD_0":7,"COLOR_0":8},"indices":9,"material":1},{"attributes":{"POSITION":10,"NORMAL":11,"TEXCOORD_0":12,"COLOR_0":13},"indices":14,"material":2}]}],"materials":[{"name":"frozen","pbrMetallicRoughness":{"baseColorFactor":[0.6239603916750761,0.8631572134541023,1,1],"metallicFactor":0,"roughnessFactor":0.05},"emissiveFactor":[0.10224173308810132,0.43415363617474895,1],"extensions":{"KHR_materials_emissive_strength":{"emissiveStrength":0.35}}},{"name":"stem","pbrMetallicRoughness":{"baseColorFactor":[1,1,1,1],"metallicFactor":0,"roughnessFactor":0.6}},{"name":"ice","pbrMetallicRoughness":{"baseColorFactor":[0.8,0.95,1,0.35],"metallicFactor":0,"roughnessFactor":0.02},"alphaMode":"BLEND"}],"accessors":[{"bufferView":0,"componentType":5126,"count":231,"type":"VEC3","min":[-0.54,-0.35,-0.54],"max":[0.54,0.35,0.54]},{"bufferView":1,"componentType":5126,"count":231,"type":"VEC3"},{"bufferView":2,"componentType":5126,"count":231,"type":"VEC2"},{"bufferView":3,"componentType":5126,"count":231,"type":"VEC4"},{"bufferView":4,"componentType":5125,"count":1200,"type":"SCALAR"},{"bufferView":5,"componentType":5126,"count":63,"type":"VEC3","min":[-0.0803761308395026,0.285223989666933,-0.04330127018922193],"max":[0.047766824456280305,0.4760494917968212,0.04330127018922194]},{"bufferView":6,"componentType":5126,"count":63,"type":"VEC3"},{"bufferView":7,"componentType":5126,"count":63,"type":"VEC2"},{"bufferView":8,"componentType":5126,"count":63,"type":"VEC4"},{"bufferView":9,"componentType":5125,"count":288,"type":"SCALAR"},{"bufferView":10,"componentType":5126,"count":88,"type":"VEC3","min":[-0.6003713773949081,-0.59,-0.5938859840556711],"max":[0.6267674616565494,0.59,0.591887097514955]},{"bufferView":11,"componentType":5126,"count":88,"type":"VEC3"},{"bufferView":12,"componentType":5126,"count":88,"type":"VEC2"},{"bufferView":13,"componentType":5126,"count":88,"type":"VEC4"},{"bufferView":14,"componentType":5125,"count":420,"type":"SCALAR"}],"bufferViews":[{"buffer":0,"byteOffset":0,"byteLength":2772,"target":34962},{"buffer":0,"byteOffset":2772,"byteLength":2772,"target":34962},{"buffer":0,"byteOffset":5544,"byteLength":1848,"target":34962},{"buffer":0,"byteOffset":7392,"byteLength":3696,"target":34962},{"buffer":0,"byteOffset":11088,"byteLength":4800,"target":34963},{"buffer":0,"byteOffset":15888,"byteLength":756,"target":34962},{"buffer":0,"byteOffset":16644,"byteLength":756,"target":34962},{"buffer":0,"byteOffset":17400,"byteLength":504,"target":34962},{"buffer":0,"byteOffset":17904,"byteLength":1008,"target":34962},{"buffer":0,"byteOffset":18912,"byteLength":1152,"target":34963},{"buffer":0,"byteOffset":20064,"byteLength":1056,"target":34962},{"buffer":0,"byteOffset":21120,"byteLength":1056,"target":34962},{"buffer":0,"byteOffset":22176,"byteLength":704,"target":34962},{"buffer":0,"byteOffset":22880,"byteLength":1408,"target":34962},{"buffer":0,"byteOffset":24288,"byteLength":1680,"target":34963}],"buffers":[{"byteLength":25968,"uri":"data:application/octet-stream;base64,"}],"extensionsUsed":["KHR_materials_emissive_strength"]}