{"asset":{"version":"2.0","generator":"garden art.mjs"},"scene":0,"scenes":[{"nodes":[0]}],"nodes":[{"mesh":0}],"meshes":[{"primitives":[{"attributes":{"POSITION":0,"NORMAL":1,"TEXCOORD_0":2,"COLOR_0":3},"indices":4,"material":0},{"attributes":{"POSITION":5,"NORMAL":6,"TEXCOORD_0":7,"COLOR_0":8},"indices":9,"material":1}]}],"materials":[{"name":"frozen","pbrMetallicRoughness":{"baseColorFactor":[0.6239603916750761,0.8631572134541023,1,1],"metallicFactor":0,"roughnessFactor":0.05},"emissiveFactor":[0.10224173308810132,0.43415363617474895,1],"extensions":{"KHR_materials_emissive_strength":{"emissiveStrength":0.35}}},{"name":"ice","pbrMetallicRoughness":{"baseColorFactor":[0.8,0.95,1,0.35],"metallicFactor":0,"roughnessFactor":0.02},"alphaMode":"BLEND"}],"accessors":[{"bufferView":0,"componentType":5126,"count":209,"type":"VEC3","min":[-0.55,-0.42900000000000005,-0.677055330195893],"max":[0.55,0.42900000000000005,0.677055330195893]},{"bufferView":1,"componentType":5126,"count":209,"type":"VEC3"},{"bufferView":2,"componentType":5126,"count":209,"type":"VEC2"},{"bufferView":3,"componentType":5126,"count":209,"type":"VEC4"},{"bufferView":4,"componentType":5125,"count":1080,"type":"SCALAR"},{"bufferView":5,"componentType":5126,"count":88,"type":"VEC3","min":[-0.660408515134399,-0.649,-0.6532745824612382],"max":[0.6894442078222044,0.649,0.6510758072664506]},{"bufferView":6,"componentType":5126,"count":88,"type":"VEC3"},{"bufferView":7,"componentType":5126,"count":88,"type":"VEC2"},{"bufferView":8,"componentType":5126,"count":88,"type":"VEC4"},{"bufferView":9,"componentType":5125,"count":420,"type":"SCALAR"}],"bufferViews":[{"buffer":0,"byteOffset":0,"byteLength":2508,"target":34962},{"buffer":0,"byteOffset":2508,"byteLength":2508,"target":34962},{"buffer":0,"byteOffset":5016,"byteLength":1672,"target":34962},{"buffer":0,"byteOffset":6688,"byteLength":3344,"target":34962},{"buffer":0,"byteOffset":10032,"byteLength":4320,"target":34963},{"buffer":0,"byteOffset":14352,"byteLength":1056,"target":34962},{"buffer":0,"byteOffset":15408,"byteLength":1056,"target":34962},{"buffer":0,"byteOffset":16464,"byteLength":704,"target":34962},{"buffer":0,"byteOffset":17168,"byteLength":1408,"target":34962},{"buffer":0,"byteOffset":18576,"byteLength":1680,"target":34963}],"buffers":[{"byteLength":20256,"uri":"data:application/octet-stream;base64,"}],"extensionsUsed":["KHR_materials_emissive_strength"]}