{"asset":{"version":"2.0","generator":"garden art.mjs"},"scene":0,"scenes":[{"nodes":[0]}],"nodes":[{"mesh":0}],"meshes":[{"primitives":[{"attributes":{"POSITION":0,"NORMAL":1,"TEXCOORD_0":2,"COLOR_0":3},"indices":4,"material":0},{"attributes":{"POSITION":5,"NORMAL":6,"TEXCOORD_0":7,"COLOR_0":8},"indices":9,"material":1}]}],"materials":[{"name":"skin","pbrMetallicRoughness":{"baseColorFactor":[1,1,1,1],"metallicFactor":0,"roughnessFactor":0.35}},{"name":"plain","pbrMetallicRoughness":{"baseColorFactor":[1,1,1,1],"metallicFactor":0,"roughnessFactor":0.5}}],"accessors":[{"bufferView":0,"componentType":5126,"count":278,"type":"VEC3","min":[-0.24,-0.26,-0.24],"max":[0.24,0.26,0.2703108891324553]},{"bufferView":1,"componentType":5126,"count":278,"type":"VEC3"},{"bufferView":2,"componentType":5126,"count":278,"type":"VEC2"},{"bufferView":3,"componentType":5126,"count":278,"type":"VEC4"},{"bufferView":4,"componentType":5125,"count":1320,"type":"SCALAR"},{"bufferView":5,"componentType":5126,"count":303,"type":"VEC3","min":[-0.25,-0.16,-0.2537319780454559],"max":[0.25,0.28,0.24488366924255597]},{"bufferView":6,"componentType":5126,"count":303,"type":"VEC3"},{"bufferView":7,"componentType":5126,"count":303,"type":"VEC2"},{"bufferView":8,"componentType":5126,"count":303,"type":"VEC4"},{"bufferView":9,"componentType":5125,"count":1362,"type":"SCALAR"}],"bufferViews":[{"buffer":0,"byteOffset":0,"byteLength":3336,"target":34962},{"buffer":0,"byteOffset":3336,"byteLength":3336,"target":34962},{"buffer":0,"byteOffset":6672,"byteLength":2224,"target":34962},{"buffer":0,"byteOffset":8896,"byteLength":4448,"target":34962},{"buffer":0,"byteOffset":13344,"byteLength":5280,"target":34963},{"buffer":0,"byteOffset":18624,"byteLength":3636,"target":34962},{"buffer":0,"byteOffset":22260,"byteLength":3636,"target":34962},{"buffer":0,"byteOffset":25896,"byteLength":2424,"target":34962},{"buffer":0,"byteOffset":28320,"byteLength":4848,"target":34962},{"buffer":0,"byteOffset":33168,"byteLength":5448,"target":34963}],"buffers":[{"byteLength":38616,"uri":"data:application/octet-stream;base64,"}]}