{"asset":{"version":"2.0","generator":"garden art.mjs"},"scene":0,"scenes":[{"nodes":[0]}],"nodes":[{"mesh":0}],"meshes":[{"primitives":[{"attributes":{"POSITION":0,"NORMAL":1,"TEXCOORD_0":2,"COLOR_0":3},"indices":4,"material":0},{"attributes":{"POSITION":5,"NORMAL":6,"TEXCOORD_0":7,"COLOR_0":8},"indices":9,"material":1},{"attributes":{"POSITION":10,"NORMAL":11,"TEXCOORD_0":12,"COLOR_0":13},"indices":14,"material":2}]}],"materials":[{"name":"earth","pbrMetallicRoughness":{"baseColorFactor":[1,1,1,1],"metallicFactor":0,"roughnessFactor":0.95}},{"name":"stem","pbrMetallicRoughness":{"baseColorFactor":[1,1,1,1],"metallicFactor":0,"roughnessFactor":0.6}},{"name":"leaf","pbrMetallicRoughness":{"baseColorFactor":[1,1,1,1],"metallicFactor":0,"roughnessFactor":0.55},"doubleSided":true}],"accessors":[{"bufferView":0,"componentType":5126,"count":133,"type":"VEC3","min":[-0.64,0,-0.6221742774918517],"max":[0.64,0.12,0.6383796463637746]},{"bufferView":1,"componentType":5126,"count":133,"type":"VEC3"},{"bufferView":2,"componentType":5126,"count":133,"type":"VEC2"},{"bufferView":3,"componentType":5126,"count":133,"type":"VEC4"},{"bufferView":4,"componentType":5125,"count":648,"type":"SCALAR"},{"bufferView":5,"componentType":5126,"count":216,"type":"VEC3","min":[-0.17152875657125038,0.09862448176056193,-0.08412247692636383],"max":[0.19774647781941593,1.0102096202529454,0.08412247692636383]},{"bufferView":6,"componentType":5126,"count":216,"type":"VEC3"},{"bufferView":7,"componentType":5126,"count":216,"type":"VEC2"},{"bufferView":8,"componentType":5126,"count":216,"type":"VEC4"},{"bufferView":9,"componentType":5125,"count":1008,"type":"SCALAR"},{"bufferView":10,"componentType":5126,"count":432,"type":"VEC3","min":[-0.6811608597225018,0.23649999999999996,-0.5795783523875517],"max":[0.6339707482877823,0.815667624950966,0.5310535315534283]},{"bufferView":11,"componentType":5126,"count":432,"type":"VEC3"},{"bufferView":12,"componentType":5126,"count":432,"type":"VEC2"},{"bufferView":13,"componentType":5126,"count":432,"type":"VEC4"},{"bufferView":14,"componentType":5125,"count":1440,"type":"SCALAR"}],"bufferViews":[{"buffer":0,"byteOffset":0,"byteLength":1596,"target":34962},{"buffer":0,"byteOffset":1596,"byteLength":1596,"target":34962},{"buffer":0,"byteOffset":3192,"byteLength":1064,"target":34962},{"buffer":0,"byteOffset":4256,"byteLength":2128,"target":34962},{"buffer":0,"byteOffset":6384,"byteLength":2592,"target":34963},{"buffer":0,"byteOffset":8976,"byteLength":2592,"target":34962},{"buffer":0,"byteOffset":11568,"byteLength":2592,"target":34962},{"buffer":0,"byteOffset":14160,"byteLength":1728,"target":34962},{"buffer":0,"byteOffset":15888,"byteLength":3456,"target":34962},{"buffer":0,"byteOffset":19344,"byteLength":4032,"target":34963},{"buffer":0,"byteOffset":23376,"byteLength":5184,"target":34962},{"buffer":0,"byteOffset":28560,"byteLength":5184,"target":34962},{"buffer":0,"byteOffset":33744,"byteLength":3456,"target":34962},{"buffer":0,"byteOffset":37200,"byteLength":6912,"target":34962},{"buffer":0,"byteOffset":44112,"byteLength":5760,"target":34963}],"buffers":[{"byteLength":49872,"uri":"data:application/octet-stream;base64,"}]}