{"asset":{"version":"2.0","generator":"garden art.mjs"},"scene":0,"scenes":[{"nodes":[0]}],"nodes":[{"mesh":0}],"meshes":[{"primitives":[{"attributes":{"POSITION":0,"NORMAL":1,"TEXCOORD_0":2,"COLOR_0":3},"indices":4,"material":0},{"attributes":{"POSITION":5,"NORMAL":6,"TEXCOORD_0":7,"COLOR_0":8},"indices":9,"material":1},{"attributes":{"POSITION":10,"NORMAL":11,"TEXCOORD_0":12,"COLOR_0":13},"indices":14,"material":2}]}],"materials":[{"name":"earth","pbrMetallicRoughness":{"baseColorFactor":[1,1,1,1],"metallicFactor":0,"roughnessFactor":0.95}},{"name":"stem","pbrMetallicRoughness":{"baseColorFactor":[1,1,1,1],"metallicFactor":0,"roughnessFactor":0.6}},{"name":"leaf","pbrMetallicRoughness":{"baseColorFactor":[1,1,1,1],"metallicFactor":0,"roughnessFactor":0.55},"doubleSided":true}],"accessors":[{"bufferView":0,"componentType":5126,"count":133,"type":"VEC3","min":[-0.64,0,-0.6221742774918517],"max":[0.64,0.12,0.6383796463637746]},{"bufferView":1,"componentType":5126,"count":133,"type":"VEC3"},{"bufferView":2,"componentType":5126,"count":133,"type":"VEC2"},{"bufferView":3,"componentType":5126,"count":133,"type":"VEC4"},{"bufferView":4,"componentType":5125,"count":648,"type":"SCALAR"},{"bufferView":5,"componentType":5126,"count":270,"type":"VEC3","min":[-0.41959599780632134,0.10800101091604959,-0.38744684649921807],"max":[0.3415540947403355,0.1961508017935666,0.33414275693163054]},{"bufferView":6,"componentType":5126,"count":270,"type":"VEC3"},{"bufferView":7,"componentType":5126,"count":270,"type":"VEC2"},{"bufferView":8,"componentType":5126,"count":270,"type":"VEC4"},{"bufferView":9,"componentType":5125,"count":1200,"type":"SCALAR"},{"bufferView":10,"componentType":5126,"count":180,"type":"VEC3","min":[-0.42507846170883323,0.11480278930604867,-0.41727549916100615],"max":[0.5208030536133967,0.20036942714448677,0.4884554820440853]},{"bufferView":11,"componentType":5126,"count":180,"type":"VEC3"},{"bufferView":12,"componentType":5126,"count":180,"type":"VEC2"},{"bufferView":13,"componentType":5126,"count":180,"type":"VEC4"},{"bufferView":14,"componentType":5125,"count":600,"type":"SCALAR"}],"bufferViews":[{"buffer":0,"byteOffset":0,"byteLength":1596,"target":34962},{"buffer":0,"byteOffset":1596,"byteLength":1596,"target":34962},{"buffer":0,"byteOffset":3192,"byteLength":1064,"target":34962},{"buffer":0,"byteOffset":4256,"byteLength":2128,"target":34962},{"buffer":0,"byteOffset":6384,"byteLength":2592,"target":34963},{"buffer":0,"byteOffset":8976,"byteLength":3240,"target":34962},{"buffer":0,"byteOffset":12216,"byteLength":3240,"target":34962},{"buffer":0,"byteOffset":15456,"byteLength":2160,"target":34962},{"buffer":0,"byteOffset":17616,"byteLength":4320,"target":34962},{"buffer":0,"byteOffset":21936,"byteLength":4800,"target":34963},{"buffer":0,"byteOffset":26736,"byteLength":2160,"target":34962},{"buffer":0,"byteOffset":28896,"byteLength":2160,"target":34962},{"buffer":0,"byteOffset":31056,"byteLength":1440,"target":34962},{"buffer":0,"byteOffset":32496,"byteLength":2880,"target":34962},{"buffer":0,"byteOffset":35376,"byteLength":2400,"target":34963}],"buffers":[{"byteLength":37776,"uri":"data:application/octet-stream;base64,"}]}