{"asset":{"version":"2.0","generator":"garden art.mjs"},"scene":0,"scenes":[{"nodes":[0]}],"nodes":[{"mesh":0}],"meshes":[{"primitives":[{"attributes":{"POSITION":0,"NORMAL":1,"TEXCOORD_0":2,"COLOR_0":3},"indices":4,"material":0},{"attributes":{"POSITION":5,"NORMAL":6,"TEXCOORD_0":7,"COLOR_0":8},"indices":9,"material":1},{"attributes":{"POSITION":10,"NORMAL":11,"TEXCOORD_0":12,"COLOR_0":13},"indices":14,"material":2}]}],"materials":[{"name":"earth","pbrMetallicRoughness":{"baseColorFactor":[1,1,1,1],"metallicFactor":0,"roughnessFactor":0.95}},{"name":"stem","pbrMetallicRoughness":{"baseColorFactor":[1,1,1,1],"metallicFactor":0,"roughnessFactor":0.6}},{"name":"leaf","pbrMetallicRoughness":{"baseColorFactor":[1,1,1,1],"metallicFactor":0,"roughnessFactor":0.55},"doubleSided":true}],"accessors":[{"bufferView":0,"componentType":5126,"count":133,"type":"VEC3","min":[-0.64,0,-0.6221742774918517],"max":[0.64,0.12,0.6383796463637746]},{"bufferView":1,"componentType":5126,"count":133,"type":"VEC3"},{"bufferView":2,"componentType":5126,"count":133,"type":"VEC2"},{"bufferView":3,"componentType":5126,"count":133,"type":"VEC4"},{"bufferView":4,"componentType":5125,"count":648,"type":"SCALAR"},{"bufferView":5,"componentType":5126,"count":288,"type":"VEC3","min":[-0.2517201979940904,0.09930024552343403,-0.08412247692636383],"max":[0.24499138158832018,1.2552095010168571,0.08412247692636383]},{"bufferView":6,"componentType":5126,"count":288,"type":"VEC3"},{"bufferView":7,"componentType":5126,"count":288,"type":"VEC2"},{"bufferView":8,"componentType":5126,"count":288,"type":"VEC4"},{"bufferView":9,"componentType":5125,"count":1344,"type":"SCALAR"},{"bufferView":10,"componentType":5126,"count":720,"type":"VEC3","min":[-0.8968580142631755,0.27325,-0.7289447640488032],"max":[0.8984981591157217,1.2033301703462276,0.7391126714342893]},{"bufferView":11,"componentType":5126,"count":720,"type":"VEC3"},{"bufferView":12,"componentType":5126,"count":720,"type":"VEC2"},{"bufferView":13,"componentType":5126,"count":720,"type":"VEC4"},{"bufferView":14,"componentType":5125,"count":2400,"type":"SCALAR"}],"bufferViews":[{"buffer":0,"byteOffset":0,"byteLength":1596,"target":34962},{"buffer":0,"byteOffset":1596,"byteLength":1596,"target":34962},{"buffer":0,"byteOffset":3192,"byteLength":1064,"target":34962},{"buffer":0,"byteOffset":4256,"byteLength":2128,"target":34962},{"buffer":0,"byteOffset":6384,"byteLength":2592,"target":34963},{"buffer":0,"byteOffset":8976,"byteLength":3456,"target":34962},{"buffer":0,"byteOffset":12432,"byteLength":3456,"target":34962},{"buffer":0,"byteOffset":15888,"byteLength":2304,"target":34962},{"buffer":0,"byteOffset":18192,"byteLength":4608,"target":34962},{"buffer":0,"byteOffset":22800,"byteLength":5376,"target":34963},{"buffer":0,"byteOffset":28176,"byteLength":8640,"target":34962},{"buffer":0,"byteOffset":36816,"byteLength":8640,"target":34962},{"buffer":0,"byteOffset":45456,"byteLength":5760,"target":34962},{"buffer":0,"byteOffset":51216,"byteLength":11520,"target":34962},{"buffer":0,"byteOffset":62736,"byteLength":9600,"target":34963}],"buffers":[{"byteLength":72336,"uri":"data:application/octet-stream;base64,"}]}