{"asset":{"version":"2.0","generator":"garden art.mjs"},"scene":0,"scenes":[{"nodes":[0]}],"nodes":[{"mesh":0}],"meshes":[{"primitives":[{"attributes":{"POSITION":0,"NORMAL":1,"TEXCOORD_0":2,"COLOR_0":3},"indices":4,"material":0},{"attributes":{"POSITION":5,"NORMAL":6,"TEXCOORD_0":7,"COLOR_0":8},"indices":9,"material":1},{"attributes":{"POSITION":10,"NORMAL":11,"TEXCOORD_0":12,"COLOR_0":13},"indices":14,"material":2}]}],"materials":[{"name":"earth","pbrMetallicRoughness":{"baseColorFactor":[1,1,1,1],"metallicFactor":0,"roughnessFactor":0.95}},{"name":"stem","pbrMetallicRoughness":{"baseColorFactor":[1,1,1,1],"metallicFactor":0,"roughnessFactor":0.6}},{"name":"leaf","pbrMetallicRoughness":{"baseColorFactor":[1,1,1,1],"metallicFactor":0,"roughnessFactor":0.55},"doubleSided":true}],"accessors":[{"bufferView":0,"componentType":5126,"count":133,"type":"VEC3","min":[-0.64,0,-0.6221742774918517],"max":[0.64,0.12,0.6383796463637746]},{"bufferView":1,"componentType":5126,"count":133,"type":"VEC3"},{"bufferView":2,"componentType":5126,"count":133,"type":"VEC2"},{"bufferView":3,"componentType":5126,"count":133,"type":"VEC4"},{"bufferView":4,"componentType":5125,"count":648,"type":"SCALAR"},{"bufferView":5,"componentType":5126,"count":486,"type":"VEC3","min":[-0.685845601990461,0.10800101091604959,-0.682408719092569],"max":[0.45775668770907796,0.23779951327516735,0.40292067916252156]},{"bufferView":6,"componentType":5126,"count":486,"type":"VEC3"},{"bufferView":7,"componentType":5126,"count":486,"type":"VEC2"},{"bufferView":8,"componentType":5126,"count":486,"type":"VEC4"},{"bufferView":9,"componentType":5125,"count":2160,"type":"SCALAR"},{"bufferView":10,"componentType":5126,"count":324,"type":"VEC3","min":[-0.6179726074254507,0.11165413960079462,-0.5362494078780368],"max":[0.8581958570274093,0.21669409247071464,0.844928536377776]},{"bufferView":11,"componentType":5126,"count":324,"type":"VEC3"},{"bufferView":12,"componentType":5126,"count":324,"type":"VEC2"},{"bufferView":13,"componentType":5126,"count":324,"type":"VEC4"},{"bufferView":14,"componentType":5125,"count":1080,"type":"SCALAR"}],"bufferViews":[{"buffer":0,"byteOffset":0,"byteLength":1596,"target":34962},{"buffer":0,"byteOffset":1596,"byteLength":1596,"target":34962},{"buffer":0,"byteOffset":3192,"byteLength":1064,"target":34962},{"buffer":0,"byteOffset":4256,"byteLength":2128,"target":34962},{"buffer":0,"byteOffset":6384,"byteLength":2592,"target":34963},{"buffer":0,"byteOffset":8976,"byteLength":5832,"target":34962},{"buffer":0,"byteOffset":14808,"byteLength":5832,"target":34962},{"buffer":0,"byteOffset":20640,"byteLength":3888,"target":34962},{"buffer":0,"byteOffset":24528,"byteLength":7776,"target":34962},{"buffer":0,"byteOffset":32304,"byteLength":8640,"target":34963},{"buffer":0,"byteOffset":40944,"byteLength":3888,"target":34962},{"buffer":0,"byteOffset":44832,"byteLength":3888,"target":34962},{"buffer":0,"byteOffset":48720,"byteLength":2592,"target":34962},{"buffer":0,"byteOffset":51312,"byteLength":5184,"target":34962},{"buffer":0,"byteOffset":56496,"byteLength":4320,"target":34963}],"buffers":[{"byteLength":60816,"uri":"data:application/octet-stream;base64,"}]}