{"asset":{"version":"2.0","generator":"garden art.mjs"},"scene":0,"scenes":[{"nodes":[0]}],"nodes":[{"mesh":0}],"meshes":[{"primitives":[{"attributes":{"POSITION":0,"NORMAL":1,"TEXCOORD_0":2,"COLOR_0":3},"indices":4,"material":0},{"attributes":{"POSITION":5,"NORMAL":6,"TEXCOORD_0":7,"COLOR_0":8},"indices":9,"material":1},{"attributes":{"POSITION":10,"NORMAL":11,"TEXCOORD_0":12,"COLOR_0":13},"indices":14,"material":2}]}],"materials":[{"name":"earth","pbrMetallicRoughness":{"baseColorFactor":[1,1,1,1],"metallicFactor":0,"roughnessFactor":0.95}},{"name":"stem","pbrMetallicRoughness":{"baseColorFactor":[1,1,1,1],"metallicFactor":0,"roughnessFactor":0.6}},{"name":"leaf","pbrMetallicRoughness":{"baseColorFactor":[1,1,1,1],"metallicFactor":0,"roughnessFactor":0.55},"doubleSided":true}],"accessors":[{"bufferView":0,"componentType":5126,"count":133,"type":"VEC3","min":[-0.64,0,-0.6221742774918517],"max":[0.64,0.12,0.6383796463637746]},{"bufferView":1,"componentType":5126,"count":133,"type":"VEC3"},{"bufferView":2,"componentType":5126,"count":133,"type":"VEC2"},{"bufferView":3,"componentType":5126,"count":133,"type":"VEC4"},{"bufferView":4,"componentType":5125,"count":648,"type":"SCALAR"},{"bufferView":5,"componentType":5126,"count":72,"type":"VEC3","min":[-0.027029066037072575,0.1,-0.029247837365454707],"max":[0.03,0.295,0.029247837365454707]},{"bufferView":6,"componentType":5126,"count":72,"type":"VEC3"},{"bufferView":7,"componentType":5126,"count":72,"type":"VEC2"},{"bufferView":8,"componentType":5126,"count":72,"type":"VEC4"},{"bufferView":9,"componentType":5125,"count":336,"type":"SCALAR"},{"bufferView":10,"componentType":5126,"count":396,"type":"VEC3","min":[-0.2933322407695055,0.18125,-0.30676178671880383],"max":[0.330819174009158,0.4294977705086089,0.2870555663108082]},{"bufferView":11,"componentType":5126,"count":396,"type":"VEC3"},{"bufferView":12,"componentType":5126,"count":396,"type":"VEC2"},{"bufferView":13,"componentType":5126,"count":396,"type":"VEC4"},{"bufferView":14,"componentType":5125,"count":1320,"type":"SCALAR"}],"bufferViews":[{"buffer":0,"byteOffset":0,"byteLength":1596,"target":34962},{"buffer":0,"byteOffset":1596,"byteLength":1596,"target":34962},{"buffer":0,"byteOffset":3192,"byteLength":1064,"target":34962},{"buffer":0,"byteOffset":4256,"byteLength":2128,"target":34962},{"buffer":0,"byteOffset":6384,"byteLength":2592,"target":34963},{"buffer":0,"byteOffset":8976,"byteLength":864,"target":34962},{"buffer":0,"byteOffset":9840,"byteLength":864,"target":34962},{"buffer":0,"byteOffset":10704,"byteLength":576,"target":34962},{"buffer":0,"byteOffset":11280,"byteLength":1152,"target":34962},{"buffer":0,"byteOffset":12432,"byteLength":1344,"target":34963},{"buffer":0,"byteOffset":13776,"byteLength":4752,"target":34962},{"buffer":0,"byteOffset":18528,"byteLength":4752,"target":34962},{"buffer":0,"byteOffset":23280,"byteLength":3168,"target":34962},{"buffer":0,"byteOffset":26448,"byteLength":6336,"target":34962},{"buffer":0,"byteOffset":32784,"byteLength":5280,"target":34963}],"buffers":[{"byteLength":38064,"uri":"data:application/octet-stream;base64,"}]}