{"asset":{"version":"2.0","generator":"garden art.mjs"},"scene":0,"scenes":[{"nodes":[0]}],"nodes":[{"mesh":0}],"meshes":[{"primitives":[{"attributes":{"POSITION":0,"NORMAL":1,"TEXCOORD_0":2,"COLOR_0":3},"indices":4,"material":0},{"attributes":{"POSITION":5,"NORMAL":6,"TEXCOORD_0":7,"COLOR_0":8},"indices":9,"material":1},{"attributes":{"POSITION":10,"NORMAL":11,"TEXCOORD_0":12,"COLOR_0":13},"indices":14,"material":2}]}],"materials":[{"name":"earth","pbrMetallicRoughness":{"baseColorFactor":[1,1,1,1],"metallicFactor":0,"roughnessFactor":0.95}},{"name":"rind","pbrMetallicRoughness":{"baseColorFactor":[1,1,1,1],"metallicFactor":0,"roughnessFactor":0.9}},{"name":"leaf","pbrMetallicRoughness":{"baseColorFactor":[1,1,1,1],"metallicFactor":0,"roughnessFactor":0.55},"doubleSided":true}],"accessors":[{"bufferView":0,"componentType":5126,"count":133,"type":"VEC3","min":[-0.64,0,-0.6221742774918517],"max":[0.64,0.12,0.6383796463637746]},{"bufferView":1,"componentType":5126,"count":133,"type":"VEC3"},{"bufferView":2,"componentType":5126,"count":133,"type":"VEC2"},{"bufferView":3,"componentType":5126,"count":133,"type":"VEC4"},{"bufferView":4,"componentType":5125,"count":648,"type":"SCALAR"},{"bufferView":5,"componentType":5126,"count":117,"type":"VEC3","min":[-0.1275,0.08,-0.1275],"max":[0.1275,1.169,0.1275]},{"bufferView":6,"componentType":5126,"count":117,"type":"VEC3"},{"bufferView":7,"componentType":5126,"count":117,"type":"VEC2"},{"bufferView":8,"componentType":5126,"count":117,"type":"VEC4"},{"bufferView":9,"componentType":5125,"count":576,"type":"SCALAR"},{"bufferView":10,"componentType":5126,"count":528,"type":"VEC3","min":[-0.9982861030628658,0.6536457808437117,-0.8943278059957094],"max":[0.9209335489328139,2.1907530533389243,0.8933439112133525]},{"bufferView":11,"componentType":5126,"count":528,"type":"VEC3"},{"bufferView":12,"componentType":5126,"count":528,"type":"VEC2"},{"bufferView":13,"componentType":5126,"count":528,"type":"VEC4"},{"bufferView":14,"componentType":5125,"count":2520,"type":"SCALAR"}],"bufferViews":[{"buffer":0,"byteOffset":0,"byteLength":1596,"target":34962},{"buffer":0,"byteOffset":1596,"byteLength":1596,"target":34962},{"buffer":0,"byteOffset":3192,"byteLength":1064,"target":34962},{"buffer":0,"byteOffset":4256,"byteLength":2128,"target":34962},{"buffer":0,"byteOffset":6384,"byteLength":2592,"target":34963},{"buffer":0,"byteOffset":8976,"byteLength":1404,"target":34962},{"buffer":0,"byteOffset":10380,"byteLength":1404,"target":34962},{"buffer":0,"byteOffset":11784,"byteLength":936,"target":34962},{"buffer":0,"byteOffset":12720,"byteLength":1872,"target":34962},{"buffer":0,"byteOffset":14592,"byteLength":2304,"target":34963},{"buffer":0,"byteOffset":16896,"byteLength":6336,"target":34962},{"buffer":0,"byteOffset":23232,"byteLength":6336,"target":34962},{"buffer":0,"byteOffset":29568,"byteLength":4224,"target":34962},{"buffer":0,"byteOffset":33792,"byteLength":8448,"target":34962},{"buffer":0,"byteOffset":42240,"byteLength":10080,"target":34963}],"buffers":[{"byteLength":52320,"uri":"data:application/octet-stream;base64,"}]}