{"asset":{"version":"2.0","generator":"garden art.mjs"},"scene":0,"scenes":[{"nodes":[0]}],"nodes":[{"mesh":0}],"meshes":[{"primitives":[{"attributes":{"POSITION":0,"NORMAL":1,"TEXCOORD_0":2,"COLOR_0":3},"indices":4,"material":0},{"attributes":{"POSITION":5,"NORMAL":6,"TEXCOORD_0":7,"COLOR_0":8},"indices":9,"material":1}]}],"materials":[{"name":"earth","pbrMetallicRoughness":{"baseColorFactor":[1,1,1,1],"metallicFactor":0,"roughnessFactor":0.95}},{"name":"stem","pbrMetallicRoughness":{"baseColorFactor":[1,1,1,1],"metallicFactor":0,"roughnessFactor":0.6}}],"accessors":[{"bufferView":0,"componentType":5126,"count":133,"type":"VEC3","min":[-0.64,0,-0.6221742774918517],"max":[0.64,0.12,0.6383796463637746]},{"bufferView":1,"componentType":5126,"count":133,"type":"VEC3"},{"bufferView":2,"componentType":5126,"count":133,"type":"VEC2"},{"bufferView":3,"componentType":5126,"count":133,"type":"VEC4"},{"bufferView":4,"componentType":5125,"count":648,"type":"SCALAR"},{"bufferView":5,"componentType":5126,"count":206,"type":"VEC3","min":[-0.38048938016850686,0.08,-0.1862541137542754],"max":[0.38048938016850686,1.8800000000000001,0.18625411375427542]},{"bufferView":6,"componentType":5126,"count":206,"type":"VEC3"},{"bufferView":7,"componentType":5126,"count":206,"type":"VEC2"},{"bufferView":8,"componentType":5126,"count":206,"type":"VEC4"},{"bufferView":9,"componentType":5125,"count":912,"type":"SCALAR"}],"bufferViews":[{"buffer":0,"byteOffset":0,"byteLength":1596,"target":34962},{"buffer":0,"byteOffset":1596,"byteLength":1596,"target":34962},{"buffer":0,"byteOffset":3192,"byteLength":1064,"target":34962},{"buffer":0,"byteOffset":4256,"byteLength":2128,"target":34962},{"buffer":0,"byteOffset":6384,"byteLength":2592,"target":34963},{"buffer":0,"byteOffset":8976,"byteLength":2472,"target":34962},{"buffer":0,"byteOffset":11448,"byteLength":2472,"target":34962},{"buffer":0,"byteOffset":13920,"byteLength":1648,"target":34962},{"buffer":0,"byteOffset":15568,"byteLength":3296,"target":34962},{"buffer":0,"byteOffset":18864,"byteLength":3648,"target":34963}],"buffers":[{"byteLength":22512,"uri":"data:application/octet-stream;base64,"}]}