{"asset":{"version":"2.0","generator":"garden art.mjs"},"scene":0,"scenes":[{"nodes":[0]}],"nodes":[{"mesh":0}],"meshes":[{"primitives":[{"attributes":{"POSITION":0,"NORMAL":1,"TEXCOORD_0":2,"COLOR_0":3},"indices":4,"material":0},{"attributes":{"POSITION":5,"NORMAL":6,"TEXCOORD_0":7,"COLOR_0":8},"indices":9,"material":1},{"attributes":{"POSITION":10,"NORMAL":11,"TEXCOORD_0":12,"COLOR_0":13},"indices":14,"material":2}]}],"materials":[{"name":"earth","pbrMetallicRoughness":{"baseColorFactor":[1,1,1,1],"metallicFactor":0,"roughnessFactor":0.95}},{"name":"leaf","pbrMetallicRoughness":{"baseColorFactor":[1,1,1,1],"metallicFactor":0,"roughnessFactor":0.55},"doubleSided":true},{"name":"stem","pbrMetallicRoughness":{"baseColorFactor":[1,1,1,1],"metallicFactor":0,"roughnessFactor":0.6}}],"accessors":[{"bufferView":0,"componentType":5126,"count":133,"type":"VEC3","min":[-0.64,0,-0.6221742774918517],"max":[0.64,0.12,0.6383796463637746]},{"bufferView":1,"componentType":5126,"count":133,"type":"VEC3"},{"bufferView":2,"componentType":5126,"count":133,"type":"VEC2"},{"bufferView":3,"componentType":5126,"count":133,"type":"VEC4"},{"bufferView":4,"componentType":5125,"count":648,"type":"SCALAR"},{"bufferView":5,"componentType":5126,"count":72,"type":"VEC3","min":[-0.09155938413341459,0.1,-0.10493224221859591],"max":[0.05216786702462075,0.14623151815839244,0.13773776712800018]},{"bufferView":6,"componentType":5126,"count":72,"type":"VEC3"},{"bufferView":7,"componentType":5126,"count":72,"type":"VEC2"},{"bufferView":8,"componentType":5126,"count":72,"type":"VEC4"},{"bufferView":9,"componentType":5125,"count":240,"type":"SCALAR"},{"bufferView":10,"componentType":5126,"count":54,"type":"VEC3","min":[-0.00970820393249937,0.08,-0.011412678195541844],"max":[0.012,0.14,0.011412678195541842]},{"bufferView":11,"componentType":5126,"count":54,"type":"VEC3"},{"bufferView":12,"componentType":5126,"count":54,"type":"VEC2"},{"bufferView":13,"componentType":5126,"count":54,"type":"VEC4"},{"bufferView":14,"componentType":5125,"count":240,"type":"SCALAR"}],"bufferViews":[{"buffer":0,"byteOffset":0,"byteLength":1596,"target":34962},{"buffer":0,"byteOffset":1596,"byteLength":1596,"target":34962},{"buffer":0,"byteOffset":3192,"byteLength":1064,"target":34962},{"buffer":0,"byteOffset":4256,"byteLength":2128,"target":34962},{"buffer":0,"byteOffset":6384,"byteLength":2592,"target":34963},{"buffer":0,"byteOffset":8976,"byteLength":864,"target":34962},{"buffer":0,"byteOffset":9840,"byteLength":864,"target":34962},{"buffer":0,"byteOffset":10704,"byteLength":576,"target":34962},{"buffer":0,"byteOffset":11280,"byteLength":1152,"target":34962},{"buffer":0,"byteOffset":12432,"byteLength":960,"target":34963},{"buffer":0,"byteOffset":13392,"byteLength":648,"target":34962},{"buffer":0,"byteOffset":14040,"byteLength":648,"target":34962},{"buffer":0,"byteOffset":14688,"byteLength":432,"target":34962},{"buffer":0,"byteOffset":15120,"byteLength":864,"target":34962},{"buffer":0,"byteOffset":15984,"byteLength":960,"target":34963}],"buffers":[{"byteLength":16944,"uri":"data:application/octet-stream;base64,"}]}