{"asset":{"version":"2.0","generator":"garden art.mjs"},"scene":0,"scenes":[{"nodes":[0]}],"nodes":[{"mesh":0}],"meshes":[{"primitives":[{"attributes":{"POSITION":0,"NORMAL":1,"TEXCOORD_0":2,"COLOR_0":3},"indices":4,"material":0},{"attributes":{"POSITION":5,"NORMAL":6,"TEXCOORD_0":7,"COLOR_0":8},"indices":9,"material":1},{"attributes":{"POSITION":10,"NORMAL":11,"TEXCOORD_0":12,"COLOR_0":13},"indices":14,"material":2}]}],"materials":[{"name":"earth","pbrMetallicRoughness":{"baseColorFactor":[1,1,1,1],"metallicFactor":0,"roughnessFactor":0.95}},{"name":"stem","pbrMetallicRoughness":{"baseColorFactor":[1,1,1,1],"metallicFactor":0,"roughnessFactor":0.6}},{"name":"leaf","pbrMetallicRoughness":{"baseColorFactor":[1,1,1,1],"metallicFactor":0,"roughnessFactor":0.55},"doubleSided":true}],"accessors":[{"bufferView":0,"componentType":5126,"count":133,"type":"VEC3","min":[-0.64,0,-0.6221742774918517],"max":[0.64,0.12,0.6383796463637746]},{"bufferView":1,"componentType":5126,"count":133,"type":"VEC3"},{"bufferView":2,"componentType":5126,"count":133,"type":"VEC2"},{"bufferView":3,"componentType":5126,"count":133,"type":"VEC4"},{"bufferView":4,"componentType":5125,"count":648,"type":"SCALAR"},{"bufferView":5,"componentType":5126,"count":594,"type":"VEC3","min":[-0.6462451646739281,0.10800101091604959,-0.6838709809421032],"max":[0.5154480859052125,0.24771443887845623,0.6395022164848216]},{"bufferView":6,"componentType":5126,"count":594,"type":"VEC3"},{"bufferView":7,"componentType":5126,"count":594,"type":"VEC2"},{"bufferView":8,"componentType":5126,"count":594,"type":"VEC4"},{"bufferView":9,"componentType":5125,"count":2640,"type":"SCALAR"},{"bufferView":10,"componentType":5126,"count":396,"type":"VEC3","min":[-0.7054411881889582,0.11138576773067899,-0.8013131376899825],"max":[0.8487054607475619,0.22227784792083927,0.8867303525091259]},{"bufferView":11,"componentType":5126,"count":396,"type":"VEC3"},{"bufferView":12,"componentType":5126,"count":396,"type":"VEC2"},{"bufferView":13,"componentType":5126,"count":396,"type":"VEC4"},{"bufferView":14,"componentType":5125,"count":1320,"type":"SCALAR"}],"bufferViews":[{"buffer":0,"byteOffset":0,"byteLength":1596,"target":34962},{"buffer":0,"byteOffset":1596,"byteLength":1596,"target":34962},{"buffer":0,"byteOffset":3192,"byteLength":1064,"target":34962},{"buffer":0,"byteOffset":4256,"byteLength":2128,"target":34962},{"buffer":0,"byteOffset":6384,"byteLength":2592,"target":34963},{"buffer":0,"byteOffset":8976,"byteLength":7128,"target":34962},{"buffer":0,"byteOffset":16104,"byteLength":7128,"target":34962},{"buffer":0,"byteOffset":23232,"byteLength":4752,"target":34962},{"buffer":0,"byteOffset":27984,"byteLength":9504,"target":34962},{"buffer":0,"byteOffset":37488,"byteLength":10560,"target":34963},{"buffer":0,"byteOffset":48048,"byteLength":4752,"target":34962},{"buffer":0,"byteOffset":52800,"byteLength":4752,"target":34962},{"buffer":0,"byteOffset":57552,"byteLength":3168,"target":34962},{"buffer":0,"byteOffset":60720,"byteLength":6336,"target":34962},{"buffer":0,"byteOffset":67056,"byteLength":5280,"target":34963}],"buffers":[{"byteLength":72336,"uri":"data:application/octet-stream;base64,"}]}