{"asset":{"version":"2.0","generator":"garden art.mjs"},"scene":0,"scenes":[{"nodes":[0]}],"nodes":[{"mesh":0}],"meshes":[{"primitives":[{"attributes":{"POSITION":0,"NORMAL":1,"TEXCOORD_0":2,"COLOR_0":3},"indices":4,"material":0},{"attributes":{"POSITION":5,"NORMAL":6,"TEXCOORD_0":7,"COLOR_0":8},"indices":9,"material":1},{"attributes":{"POSITION":10,"NORMAL":11,"TEXCOORD_0":12,"COLOR_0":13},"indices":14,"material":2}]}],"materials":[{"name":"earth","pbrMetallicRoughness":{"baseColorFactor":[1,1,1,1],"metallicFactor":0,"roughnessFactor":0.95}},{"name":"stem","pbrMetallicRoughness":{"baseColorFactor":[1,1,1,1],"metallicFactor":0,"roughnessFactor":0.6}},{"name":"leaf","pbrMetallicRoughness":{"baseColorFactor":[1,1,1,1],"metallicFactor":0,"roughnessFactor":0.55},"doubleSided":true}],"accessors":[{"bufferView":0,"componentType":5126,"count":133,"type":"VEC3","min":[-0.64,0,-0.6221742774918517],"max":[0.64,0.12,0.6383796463637746]},{"bufferView":1,"componentType":5126,"count":133,"type":"VEC3"},{"bufferView":2,"componentType":5126,"count":133,"type":"VEC2"},{"bufferView":3,"componentType":5126,"count":133,"type":"VEC4"},{"bufferView":4,"componentType":5125,"count":648,"type":"SCALAR"},{"bufferView":5,"componentType":5126,"count":792,"type":"VEC3","min":[-0.12424770106020312,0.09538339574498753,-0.12019411417200848],"max":[0.1429881162844507,0.407517401298903,0.14128627976705274]},{"bufferView":6,"componentType":5126,"count":792,"type":"VEC3"},{"bufferView":7,"componentType":5126,"count":792,"type":"VEC2"},{"bufferView":8,"componentType":5126,"count":792,"type":"VEC4"},{"bufferView":9,"componentType":5125,"count":3696,"type":"SCALAR"},{"bufferView":10,"componentType":5126,"count":1188,"type":"VEC3","min":[-0.38338812735407696,0.18134155047893738,-0.3861941041105223],"max":[0.3822318103076078,0.2554390714695128,0.38340265178267763]},{"bufferView":11,"componentType":5126,"count":1188,"type":"VEC3"},{"bufferView":12,"componentType":5126,"count":1188,"type":"VEC2"},{"bufferView":13,"componentType":5126,"count":1188,"type":"VEC4"},{"bufferView":14,"componentType":5125,"count":3960,"type":"SCALAR"}],"bufferViews":[{"buffer":0,"byteOffset":0,"byteLength":1596,"target":34962},{"buffer":0,"byteOffset":1596,"byteLength":1596,"target":34962},{"buffer":0,"byteOffset":3192,"byteLength":1064,"target":34962},{"buffer":0,"byteOffset":4256,"byteLength":2128,"target":34962},{"buffer":0,"byteOffset":6384,"byteLength":2592,"target":34963},{"buffer":0,"byteOffset":8976,"byteLength":9504,"target":34962},{"buffer":0,"byteOffset":18480,"byteLength":9504,"target":34962},{"buffer":0,"byteOffset":27984,"byteLength":6336,"target":34962},{"buffer":0,"byteOffset":34320,"byteLength":12672,"target":34962},{"buffer":0,"byteOffset":46992,"byteLength":14784,"target":34963},{"buffer":0,"byteOffset":61776,"byteLength":14256,"target":34962},{"buffer":0,"byteOffset":76032,"byteLength":14256,"target":34962},{"buffer":0,"byteOffset":90288,"byteLength":9504,"target":34962},{"buffer":0,"byteOffset":99792,"byteLength":19008,"target":34962},{"buffer":0,"byteOffset":118800,"byteLength":15840,"target":34963}],"buffers":[{"byteLength":134640,"uri":"data:application/octet-stream;base64,"}]}