{"asset":{"version":"2.0","generator":"garden art.mjs"},"scene":0,"scenes":[{"nodes":[0]}],"nodes":[{"mesh":0}],"meshes":[{"primitives":[{"attributes":{"POSITION":0,"NORMAL":1,"TEXCOORD_0":2,"COLOR_0":3},"indices":4,"material":0},{"attributes":{"POSITION":5,"NORMAL":6,"TEXCOORD_0":7,"COLOR_0":8},"indices":9,"material":1},{"attributes":{"POSITION":10,"NORMAL":11,"TEXCOORD_0":12,"COLOR_0":13},"indices":14,"material":2}]}],"materials":[{"name":"earth","pbrMetallicRoughness":{"baseColorFactor":[1,1,1,1],"metallicFactor":0,"roughnessFactor":0.95}},{"name":"stem","pbrMetallicRoughness":{"baseColorFactor":[1,1,1,1],"metallicFactor":0,"roughnessFactor":0.6}},{"name":"leaf","pbrMetallicRoughness":{"baseColorFactor":[1,1,1,1],"metallicFactor":0,"roughnessFactor":0.55},"doubleSided":true}],"accessors":[{"bufferView":0,"componentType":5126,"count":133,"type":"VEC3","min":[-0.64,0,-0.6221742774918517],"max":[0.64,0.12,0.6383796463637746]},{"bufferView":1,"componentType":5126,"count":133,"type":"VEC3"},{"bufferView":2,"componentType":5126,"count":133,"type":"VEC2"},{"bufferView":3,"componentType":5126,"count":133,"type":"VEC4"},{"bufferView":4,"componentType":5125,"count":648,"type":"SCALAR"},{"bufferView":5,"componentType":5126,"count":504,"type":"VEC3","min":[-0.07441897729572862,0.09580304699827163,-0.07098912476578795],"max":[0.05718682122929981,0.3031804223601171,0.081195807509368]},{"bufferView":6,"componentType":5126,"count":504,"type":"VEC3"},{"bufferView":7,"componentType":5126,"count":504,"type":"VEC2"},{"bufferView":8,"componentType":5126,"count":504,"type":"VEC4"},{"bufferView":9,"componentType":5125,"count":2352,"type":"SCALAR"},{"bufferView":10,"componentType":5126,"count":756,"type":"VEC3","min":[-0.25103310152612873,0.15287200781130927,-0.23219706567971116],"max":[0.22922495766518802,0.20259746886675362,0.25051438896861505]},{"bufferView":11,"componentType":5126,"count":756,"type":"VEC3"},{"bufferView":12,"componentType":5126,"count":756,"type":"VEC2"},{"bufferView":13,"componentType":5126,"count":756,"type":"VEC4"},{"bufferView":14,"componentType":5125,"count":2520,"type":"SCALAR"}],"bufferViews":[{"buffer":0,"byteOffset":0,"byteLength":1596,"target":34962},{"buffer":0,"byteOffset":1596,"byteLength":1596,"target":34962},{"buffer":0,"byteOffset":3192,"byteLength":1064,"target":34962},{"buffer":0,"byteOffset":4256,"byteLength":2128,"target":34962},{"buffer":0,"byteOffset":6384,"byteLength":2592,"target":34963},{"buffer":0,"byteOffset":8976,"byteLength":6048,"target":34962},{"buffer":0,"byteOffset":15024,"byteLength":6048,"target":34962},{"buffer":0,"byteOffset":21072,"byteLength":4032,"target":34962},{"buffer":0,"byteOffset":25104,"byteLength":8064,"target":34962},{"buffer":0,"byteOffset":33168,"byteLength":9408,"target":34963},{"buffer":0,"byteOffset":42576,"byteLength":9072,"target":34962},{"buffer":0,"byteOffset":51648,"byteLength":9072,"target":34962},{"buffer":0,"byteOffset":60720,"byteLength":6048,"target":34962},{"buffer":0,"byteOffset":66768,"byteLength":12096,"target":34962},{"buffer":0,"byteOffset":78864,"byteLength":10080,"target":34963}],"buffers":[{"byteLength":88944,"uri":"data:application/octet-stream;base64,"}]}