{"asset":{"version":"2.0","generator":"garden art.mjs"},"scene":0,"scenes":[{"nodes":[0]}],"nodes":[{"mesh":0}],"meshes":[{"primitives":[{"attributes":{"POSITION":0,"NORMAL":1,"TEXCOORD_0":2,"COLOR_0":3},"indices":4,"material":0},{"attributes":{"POSITION":5,"NORMAL":6,"TEXCOORD_0":7,"COLOR_0":8},"indices":9,"material":1},{"attributes":{"POSITION":10,"NORMAL":11,"TEXCOORD_0":12,"COLOR_0":13},"indices":14,"material":2}]}],"materials":[{"name":"earth","pbrMetallicRoughness":{"baseColorFactor":[1,1,1,1],"metallicFactor":0,"roughnessFactor":0.95}},{"name":"stem","pbrMetallicRoughness":{"baseColorFactor":[1,1,1,1],"metallicFactor":0,"roughnessFactor":0.6}},{"name":"leaf","pbrMetallicRoughness":{"baseColorFactor":[1,1,1,1],"metallicFactor":0,"roughnessFactor":0.55},"doubleSided":true}],"accessors":[{"bufferView":0,"componentType":5126,"count":133,"type":"VEC3","min":[-0.64,0,-0.6221742774918517],"max":[0.64,0.12,0.6383796463637746]},{"bufferView":1,"componentType":5126,"count":133,"type":"VEC3"},{"bufferView":2,"componentType":5126,"count":133,"type":"VEC2"},{"bufferView":3,"componentType":5126,"count":133,"type":"VEC4"},{"bufferView":4,"componentType":5125,"count":648,"type":"SCALAR"},{"bufferView":5,"componentType":5126,"count":360,"type":"VEC3","min":[-0.06713824144249193,0.0956909239969034,-0.05322230807288148],"max":[0.05079820283288071,0.2483273959806572,0.048815720419190294]},{"bufferView":6,"componentType":5126,"count":360,"type":"VEC3"},{"bufferView":7,"componentType":5126,"count":360,"type":"VEC2"},{"bufferView":8,"componentType":5126,"count":360,"type":"VEC4"},{"bufferView":9,"componentType":5125,"count":1680,"type":"SCALAR"},{"bufferView":10,"componentType":5126,"count":540,"type":"VEC3","min":[-0.17406827672339265,0.13863723647749526,-0.1652108615832511],"max":[0.18347075379063835,0.1761766675653741,0.18223119282971909]},{"bufferView":11,"componentType":5126,"count":540,"type":"VEC3"},{"bufferView":12,"componentType":5126,"count":540,"type":"VEC2"},{"bufferView":13,"componentType":5126,"count":540,"type":"VEC4"},{"bufferView":14,"componentType":5125,"count":1800,"type":"SCALAR"}],"bufferViews":[{"buffer":0,"byteOffset":0,"byteLength":1596,"target":34962},{"buffer":0,"byteOffset":1596,"byteLength":1596,"target":34962},{"buffer":0,"byteOffset":3192,"byteLength":1064,"target":34962},{"buffer":0,"byteOffset":4256,"byteLength":2128,"target":34962},{"buffer":0,"byteOffset":6384,"byteLength":2592,"target":34963},{"buffer":0,"byteOffset":8976,"byteLength":4320,"target":34962},{"buffer":0,"byteOffset":13296,"byteLength":4320,"target":34962},{"buffer":0,"byteOffset":17616,"byteLength":2880,"target":34962},{"buffer":0,"byteOffset":20496,"byteLength":5760,"target":34962},{"buffer":0,"byteOffset":26256,"byteLength":6720,"target":34963},{"buffer":0,"byteOffset":32976,"byteLength":6480,"target":34962},{"buffer":0,"byteOffset":39456,"byteLength":6480,"target":34962},{"buffer":0,"byteOffset":45936,"byteLength":4320,"target":34962},{"buffer":0,"byteOffset":50256,"byteLength":8640,"target":34962},{"buffer":0,"byteOffset":58896,"byteLength":7200,"target":34963}],"buffers":[{"byteLength":66096,"uri":"data:application/octet-stream;base64,"}]}