{"asset":{"version":"2.0","generator":"garden art.mjs"},"scene":0,"scenes":[{"nodes":[0]}],"nodes":[{"mesh":0}],"meshes":[{"primitives":[{"attributes":{"POSITION":0,"NORMAL":1,"TEXCOORD_0":2,"COLOR_0":3},"indices":4,"material":0},{"attributes":{"POSITION":5,"NORMAL":6,"TEXCOORD_0":7,"COLOR_0":8},"indices":9,"material":1},{"attributes":{"POSITION":10,"NORMAL":11,"TEXCOORD_0":12,"COLOR_0":13},"indices":14,"material":2}]}],"materials":[{"name":"earth","pbrMetallicRoughness":{"baseColorFactor":[1,1,1,1],"metallicFactor":0,"roughnessFactor":0.95}},{"name":"stem","pbrMetallicRoughness":{"baseColorFactor":[1,1,1,1],"metallicFactor":0,"roughnessFactor":0.6}},{"name":"leaf","pbrMetallicRoughness":{"baseColorFactor":[1,1,1,1],"metallicFactor":0,"roughnessFactor":0.55},"doubleSided":true}],"accessors":[{"bufferView":0,"componentType":5126,"count":133,"type":"VEC3","min":[-0.64,0,-0.6221742774918517],"max":[0.64,0.12,0.6383796463637746]},{"bufferView":1,"componentType":5126,"count":133,"type":"VEC3"},{"bufferView":2,"componentType":5126,"count":133,"type":"VEC2"},{"bufferView":3,"componentType":5126,"count":133,"type":"VEC4"},{"bufferView":4,"componentType":5125,"count":648,"type":"SCALAR"},{"bufferView":5,"componentType":5126,"count":378,"type":"VEC3","min":[-0.6100847835986767,0.10800101091604959,-0.4665057532571903],"max":[0.3590216993950257,0.22191028814362523,0.39314127997382886]},{"bufferView":6,"componentType":5126,"count":378,"type":"VEC3"},{"bufferView":7,"componentType":5126,"count":378,"type":"VEC2"},{"bufferView":8,"componentType":5126,"count":378,"type":"VEC4"},{"bufferView":9,"componentType":5125,"count":1680,"type":"SCALAR"},{"bufferView":10,"componentType":5126,"count":252,"type":"VEC3","min":[-0.46753124498073906,0.11344303432939212,-0.5016514925255194],"max":[0.751014904111726,0.20759055565599638,0.5974929488161553]},{"bufferView":11,"componentType":5126,"count":252,"type":"VEC3"},{"bufferView":12,"componentType":5126,"count":252,"type":"VEC2"},{"bufferView":13,"componentType":5126,"count":252,"type":"VEC4"},{"bufferView":14,"componentType":5125,"count":840,"type":"SCALAR"}],"bufferViews":[{"buffer":0,"byteOffset":0,"byteLength":1596,"target":34962},{"buffer":0,"byteOffset":1596,"byteLength":1596,"target":34962},{"buffer":0,"byteOffset":3192,"byteLength":1064,"target":34962},{"buffer":0,"byteOffset":4256,"byteLength":2128,"target":34962},{"buffer":0,"byteOffset":6384,"byteLength":2592,"target":34963},{"buffer":0,"byteOffset":8976,"byteLength":4536,"target":34962},{"buffer":0,"byteOffset":13512,"byteLength":4536,"target":34962},{"buffer":0,"byteOffset":18048,"byteLength":3024,"target":34962},{"buffer":0,"byteOffset":21072,"byteLength":6048,"target":34962},{"buffer":0,"byteOffset":27120,"byteLength":6720,"target":34963},{"buffer":0,"byteOffset":33840,"byteLength":3024,"target":34962},{"buffer":0,"byteOffset":36864,"byteLength":3024,"target":34962},{"buffer":0,"byteOffset":39888,"byteLength":2016,"target":34962},{"buffer":0,"byteOffset":41904,"byteLength":4032,"target":34962},{"buffer":0,"byteOffset":45936,"byteLength":3360,"target":34963}],"buffers":[{"byteLength":49296,"uri":"data:application/octet-stream;base64,"}]}