{"asset":{"version":"2.0","generator":"garden art.mjs"},"scene":0,"scenes":[{"nodes":[0]}],"nodes":[{"mesh":0}],"meshes":[{"primitives":[{"attributes":{"POSITION":0,"NORMAL":1,"TEXCOORD_0":2,"COLOR_0":3},"indices":4,"material":0},{"attributes":{"POSITION":5,"NORMAL":6,"TEXCOORD_0":7,"COLOR_0":8},"indices":9,"material":1},{"attributes":{"POSITION":10,"NORMAL":11,"TEXCOORD_0":12,"COLOR_0":13},"indices":14,"material":2}]}],"materials":[{"name":"earth","pbrMetallicRoughness":{"baseColorFactor":[1,1,1,1],"metallicFactor":0,"roughnessFactor":0.95}},{"name":"stem","pbrMetallicRoughness":{"baseColorFactor":[1,1,1,1],"metallicFactor":0,"roughnessFactor":0.6}},{"name":"leaf","pbrMetallicRoughness":{"baseColorFactor":[1,1,1,1],"metallicFactor":0,"roughnessFactor":0.55},"doubleSided":true}],"accessors":[{"bufferView":0,"componentType":5126,"count":133,"type":"VEC3","min":[-0.64,0,-0.6221742774918517],"max":[0.64,0.12,0.6383796463637746]},{"bufferView":1,"componentType":5126,"count":133,"type":"VEC3"},{"bufferView":2,"componentType":5126,"count":133,"type":"VEC2"},{"bufferView":3,"componentType":5126,"count":133,"type":"VEC4"},{"bufferView":4,"componentType":5125,"count":648,"type":"SCALAR"},{"bufferView":5,"componentType":5126,"count":1458,"type":"VEC3","min":[-0.1566090573311868,0.1,-0.1954246913253761],"max":[0.059124847515916956,1.6186678616828283,0.14731947708267265]},{"bufferView":6,"componentType":5126,"count":1458,"type":"VEC3"},{"bufferView":7,"componentType":5126,"count":1458,"type":"VEC2"},{"bufferView":8,"componentType":5126,"count":1458,"type":"VEC4"},{"bufferView":9,"componentType":5125,"count":6912,"type":"SCALAR"},{"bufferView":10,"componentType":5126,"count":108,"type":"VEC3","min":[-0.3207781724495216,1.4656314797205847,-0.16864152236101543],"max":[0.11579850007548298,1.6637201223548832,0.33518859935774226]},{"bufferView":11,"componentType":5126,"count":108,"type":"VEC3"},{"bufferView":12,"componentType":5126,"count":108,"type":"VEC2"},{"bufferView":13,"componentType":5126,"count":108,"type":"VEC4"},{"bufferView":14,"componentType":5125,"count":360,"type":"SCALAR"}],"bufferViews":[{"buffer":0,"byteOffset":0,"byteLength":1596,"target":34962},{"buffer":0,"byteOffset":1596,"byteLength":1596,"target":34962},{"buffer":0,"byteOffset":3192,"byteLength":1064,"target":34962},{"buffer":0,"byteOffset":4256,"byteLength":2128,"target":34962},{"buffer":0,"byteOffset":6384,"byteLength":2592,"target":34963},{"buffer":0,"byteOffset":8976,"byteLength":17496,"target":34962},{"buffer":0,"byteOffset":26472,"byteLength":17496,"target":34962},{"buffer":0,"byteOffset":43968,"byteLength":11664,"target":34962},{"buffer":0,"byteOffset":55632,"byteLength":23328,"target":34962},{"buffer":0,"byteOffset":78960,"byteLength":27648,"target":34963},{"buffer":0,"byteOffset":106608,"byteLength":1296,"target":34962},{"buffer":0,"byteOffset":107904,"byteLength":1296,"target":34962},{"buffer":0,"byteOffset":109200,"byteLength":864,"target":34962},{"buffer":0,"byteOffset":110064,"byteLength":1728,"target":34962},{"buffer":0,"byteOffset":111792,"byteLength":1440,"target":34963}],"buffers":[{"byteLength":113232,"uri":"data:application/octet-stream;base64,"}]}