{"asset":{"version":"2.0","generator":"garden art.mjs"},"scene":0,"scenes":[{"nodes":[0]}],"nodes":[{"mesh":0}],"meshes":[{"primitives":[{"attributes":{"POSITION":0,"NORMAL":1,"TEXCOORD_0":2,"COLOR_0":3},"indices":4,"material":0},{"attributes":{"POSITION":5,"NORMAL":6,"TEXCOORD_0":7,"COLOR_0":8},"indices":9,"material":1},{"attributes":{"POSITION":10,"NORMAL":11,"TEXCOORD_0":12,"COLOR_0":13},"indices":14,"material":2},{"attributes":{"POSITION":15,"NORMAL":16,"TEXCOORD_0":17,"COLOR_0":18},"indices":19,"material":3}]}],"materials":[{"name":"earth","pbrMetallicRoughness":{"baseColorFactor":[1,1,1,1],"metallicFactor":0,"roughnessFactor":0.95}},{"name":"grain","pbrMetallicRoughness":{"baseColorFactor":[1,1,1,1],"metallicFactor":0,"roughnessFactor":0.8}},{"name":"stem","pbrMetallicRoughness":{"baseColorFactor":[1,1,1,1],"metallicFactor":0,"roughnessFactor":0.6}},{"name":"leaf","pbrMetallicRoughness":{"baseColorFactor":[1,1,1,1],"metallicFactor":0,"roughnessFactor":0.55},"doubleSided":true}],"accessors":[{"bufferView":0,"componentType":5126,"count":133,"type":"VEC3","min":[-0.64,0,-0.6221742774918517],"max":[0.64,0.12,0.6383796463637746]},{"bufferView":1,"componentType":5126,"count":133,"type":"VEC3"},{"bufferView":2,"componentType":5126,"count":133,"type":"VEC2"},{"bufferView":3,"componentType":5126,"count":133,"type":"VEC4"},{"bufferView":4,"componentType":5125,"count":648,"type":"SCALAR"},{"bufferView":5,"componentType":5126,"count":24,"type":"VEC3","min":[0.16,0.10000000000000003,0.030000000000000002],"max":[0.19999999999999998,1.09,0.07]},{"bufferView":6,"componentType":5126,"count":24,"type":"VEC3"},{"bufferView":7,"componentType":5126,"count":24,"type":"VEC2"},{"bufferView":8,"componentType":5126,"count":24,"type":"VEC4"},{"bufferView":9,"componentType":5125,"count":36,"type":"SCALAR"},{"bufferView":10,"componentType":5126,"count":72,"type":"VEC3","min":[-0.027029066037072575,0.1,-0.029247837365454707],"max":[0.03,0.64,0.029247837365454707]},{"bufferView":11,"componentType":5126,"count":72,"type":"VEC3"},{"bufferView":12,"componentType":5126,"count":72,"type":"VEC2"},{"bufferView":13,"componentType":5126,"count":72,"type":"VEC4"},{"bufferView":14,"componentType":5125,"count":336,"type":"SCALAR"},{"bufferView":15,"componentType":5126,"count":612,"type":"VEC3","min":[-0.4256575340623735,0.325,-0.4290396002061968],"max":[0.41556296135386084,0.9317438586377025,0.41041817454983703]},{"bufferView":16,"componentType":5126,"count":612,"type":"VEC3"},{"bufferView":17,"componentType":5126,"count":612,"type":"VEC2"},{"bufferView":18,"componentType":5126,"count":612,"type":"VEC4"},{"bufferView":19,"componentType":5125,"count":2040,"type":"SCALAR"}],"bufferViews":[{"buffer":0,"byteOffset":0,"byteLength":1596,"target":34962},{"buffer":0,"byteOffset":1596,"byteLength":1596,"target":34962},{"buffer":0,"byteOffset":3192,"byteLength":1064,"target":34962},{"buffer":0,"byteOffset":4256,"byteLength":2128,"target":34962},{"buffer":0,"byteOffset":6384,"byteLength":2592,"target":34963},{"buffer":0,"byteOffset":8976,"byteLength":288,"target":34962},{"buffer":0,"byteOffset":9264,"byteLength":288,"target":34962},{"buffer":0,"byteOffset":9552,"byteLength":192,"target":34962},{"buffer":0,"byteOffset":9744,"byteLength":384,"target":34962},{"buffer":0,"byteOffset":10128,"byteLength":144,"target":34963},{"buffer":0,"byteOffset":10272,"byteLength":864,"target":34962},{"buffer":0,"byteOffset":11136,"byteLength":864,"target":34962},{"buffer":0,"byteOffset":12000,"byteLength":576,"target":34962},{"buffer":0,"byteOffset":12576,"byteLength":1152,"target":34962},{"buffer":0,"byteOffset":13728,"byteLength":1344,"target":34963},{"buffer":0,"byteOffset":15072,"byteLength":7344,"target":34962},{"buffer":0,"byteOffset":22416,"byteLength":7344,"target":34962},{"buffer":0,"byteOffset":29760,"byteLength":4896,"target":34962},{"buffer":0,"byteOffset":34656,"byteLength":9792,"target":34962},{"buffer":0,"byteOffset":44448,"byteLength":8160,"target":34963}],"buffers":[{"byteLength":52608,"uri":"data:application/octet-stream;base64,"}]}