{"asset":{"version":"2.0","generator":"garden art.mjs"},"scene":0,"scenes":[{"nodes":[0]}],"nodes":[{"mesh":0}],"meshes":[{"primitives":[{"attributes":{"POSITION":0,"NORMAL":1,"TEXCOORD_0":2,"COLOR_0":3},"indices":4,"material":0},{"attributes":{"POSITION":5,"NORMAL":6,"TEXCOORD_0":7,"COLOR_0":8},"indices":9,"material":1},{"attributes":{"POSITION":10,"NORMAL":11,"TEXCOORD_0":12,"COLOR_0":13},"indices":14,"material":2}]}],"materials":[{"name":"earth","pbrMetallicRoughness":{"baseColorFactor":[1,1,1,1],"metallicFactor":0,"roughnessFactor":0.95}},{"name":"rind","pbrMetallicRoughness":{"baseColorFactor":[1,1,1,1],"metallicFactor":0,"roughnessFactor":0.9}},{"name":"leaf","pbrMetallicRoughness":{"baseColorFactor":[1,1,1,1],"metallicFactor":0,"roughnessFactor":0.55},"doubleSided":true}],"accessors":[{"bufferView":0,"componentType":5126,"count":133,"type":"VEC3","min":[-0.64,0,-0.6221742774918517],"max":[0.64,0.12,0.6383796463637746]},{"bufferView":1,"componentType":5126,"count":133,"type":"VEC3"},{"bufferView":2,"componentType":5126,"count":133,"type":"VEC2"},{"bufferView":3,"componentType":5126,"count":133,"type":"VEC4"},{"bufferView":4,"componentType":5125,"count":648,"type":"SCALAR"},{"bufferView":5,"componentType":5126,"count":117,"type":"VEC3","min":[-0.28366977019608897,0.06623309616177428,-0.11499999999999999],"max":[0.11417299312319461,1.9457204987557726,0.11499999999999999]},{"bufferView":6,"componentType":5126,"count":117,"type":"VEC3"},{"bufferView":7,"componentType":5126,"count":117,"type":"VEC2"},{"bufferView":8,"componentType":5126,"count":117,"type":"VEC4"},{"bufferView":9,"componentType":5125,"count":576,"type":"SCALAR"},{"bufferView":10,"componentType":5126,"count":252,"type":"VEC3","min":[-1.4346464330327318,1.6216037538854002,-1.119576936819347],"max":[0.9818836432255987,2.018614953768286,1.2383712369695046]},{"bufferView":11,"componentType":5126,"count":252,"type":"VEC3"},{"bufferView":12,"componentType":5126,"count":252,"type":"VEC2"},{"bufferView":13,"componentType":5126,"count":252,"type":"VEC4"},{"bufferView":14,"componentType":5125,"count":840,"type":"SCALAR"}],"bufferViews":[{"buffer":0,"byteOffset":0,"byteLength":1596,"target":34962},{"buffer":0,"byteOffset":1596,"byteLength":1596,"target":34962},{"buffer":0,"byteOffset":3192,"byteLength":1064,"target":34962},{"buffer":0,"byteOffset":4256,"byteLength":2128,"target":34962},{"buffer":0,"byteOffset":6384,"byteLength":2592,"target":34963},{"buffer":0,"byteOffset":8976,"byteLength":1404,"target":34962},{"buffer":0,"byteOffset":10380,"byteLength":1404,"target":34962},{"buffer":0,"byteOffset":11784,"byteLength":936,"target":34962},{"buffer":0,"byteOffset":12720,"byteLength":1872,"target":34962},{"buffer":0,"byteOffset":14592,"byteLength":2304,"target":34963},{"buffer":0,"byteOffset":16896,"byteLength":3024,"target":34962},{"buffer":0,"byteOffset":19920,"byteLength":3024,"target":34962},{"buffer":0,"byteOffset":22944,"byteLength":2016,"target":34962},{"buffer":0,"byteOffset":24960,"byteLength":4032,"target":34962},{"buffer":0,"byteOffset":28992,"byteLength":3360,"target":34963}],"buffers":[{"byteLength":32352,"uri":"data:application/octet-stream;base64,"}]}