{"asset":{"version":"2.0","generator":"garden art.mjs"},"scene":0,"scenes":[{"nodes":[0]}],"nodes":[{"mesh":0}],"meshes":[{"primitives":[{"attributes":{"POSITION":0,"NORMAL":1,"TEXCOORD_0":2,"COLOR_0":3},"indices":4,"material":0},{"attributes":{"POSITION":5,"NORMAL":6,"TEXCOORD_0":7,"COLOR_0":8},"indices":9,"material":1},{"attributes":{"POSITION":10,"NORMAL":11,"TEXCOORD_0":12,"COLOR_0":13},"indices":14,"material":2}]}],"materials":[{"name":"earth","pbrMetallicRoughness":{"baseColorFactor":[1,1,1,1],"metallicFactor":0,"roughnessFactor":0.95}},{"name":"stem","pbrMetallicRoughness":{"baseColorFactor":[1,1,1,1],"metallicFactor":0,"roughnessFactor":0.6}},{"name":"leaf","pbrMetallicRoughness":{"baseColorFactor":[1,1,1,1],"metallicFactor":0,"roughnessFactor":0.55},"doubleSided":true}],"accessors":[{"bufferView":0,"componentType":5126,"count":133,"type":"VEC3","min":[-0.64,0,-0.6221742774918517],"max":[0.64,0.12,0.6383796463637746]},{"bufferView":1,"componentType":5126,"count":133,"type":"VEC3"},{"bufferView":2,"componentType":5126,"count":133,"type":"VEC2"},{"bufferView":3,"componentType":5126,"count":133,"type":"VEC4"},{"bufferView":4,"componentType":5125,"count":648,"type":"SCALAR"},{"bufferView":5,"componentType":5126,"count":648,"type":"VEC3","min":[-0.10638922717843548,0.09533669227712721,-0.08436757660862113],"max":[0.11708842251793598,0.3568017328286529,0.1123766023524847]},{"bufferView":6,"componentType":5126,"count":648,"type":"VEC3"},{"bufferView":7,"componentType":5126,"count":648,"type":"VEC2"},{"bufferView":8,"componentType":5126,"count":648,"type":"VEC4"},{"bufferView":9,"componentType":5125,"count":3024,"type":"SCALAR"},{"bufferView":10,"componentType":5126,"count":972,"type":"VEC3","min":[-0.3056571314486559,0.16710677914512334,-0.307580770165066],"max":[0.31815103875991907,0.2290182701681332,0.3159113728124915]},{"bufferView":11,"componentType":5126,"count":972,"type":"VEC3"},{"bufferView":12,"componentType":5126,"count":972,"type":"VEC2"},{"bufferView":13,"componentType":5126,"count":972,"type":"VEC4"},{"bufferView":14,"componentType":5125,"count":3240,"type":"SCALAR"}],"bufferViews":[{"buffer":0,"byteOffset":0,"byteLength":1596,"target":34962},{"buffer":0,"byteOffset":1596,"byteLength":1596,"target":34962},{"buffer":0,"byteOffset":3192,"byteLength":1064,"target":34962},{"buffer":0,"byteOffset":4256,"byteLength":2128,"target":34962},{"buffer":0,"byteOffset":6384,"byteLength":2592,"target":34963},{"buffer":0,"byteOffset":8976,"byteLength":7776,"target":34962},{"buffer":0,"byteOffset":16752,"byteLength":7776,"target":34962},{"buffer":0,"byteOffset":24528,"byteLength":5184,"target":34962},{"buffer":0,"byteOffset":29712,"byteLength":10368,"target":34962},{"buffer":0,"byteOffset":40080,"byteLength":12096,"target":34963},{"buffer":0,"byteOffset":52176,"byteLength":11664,"target":34962},{"buffer":0,"byteOffset":63840,"byteLength":11664,"target":34962},{"buffer":0,"byteOffset":75504,"byteLength":7776,"target":34962},{"buffer":0,"byteOffset":83280,"byteLength":15552,"target":34962},{"buffer":0,"byteOffset":98832,"byteLength":12960,"target":34963}],"buffers":[{"byteLength":111792,"uri":"data:application/octet-stream;base64,"}]}