{"asset":{"version":"2.0","generator":"garden art.mjs"},"scene":0,"scenes":[{"nodes":[0]}],"nodes":[{"mesh":0}],"meshes":[{"primitives":[{"attributes":{"POSITION":0,"NORMAL":1,"TEXCOORD_0":2,"COLOR_0":3},"indices":4,"material":0},{"attributes":{"POSITION":5,"NORMAL":6,"TEXCOORD_0":7,"COLOR_0":8},"indices":9,"material":1},{"attributes":{"POSITION":10,"NORMAL":11,"TEXCOORD_0":12,"COLOR_0":13},"indices":14,"material":2}]}],"materials":[{"name":"earth","pbrMetallicRoughness":{"baseColorFactor":[1,1,1,1],"metallicFactor":0,"roughnessFactor":0.95}},{"name":"stem","pbrMetallicRoughness":{"baseColorFactor":[1,1,1,1],"metallicFactor":0,"roughnessFactor":0.6}},{"name":"leaf","pbrMetallicRoughness":{"baseColorFactor":[1,1,1,1],"metallicFactor":0,"roughnessFactor":0.55},"doubleSided":true}],"accessors":[{"bufferView":0,"componentType":5126,"count":133,"type":"VEC3","min":[-0.64,0,-0.6221742774918517],"max":[0.64,0.12,0.6383796463637746]},{"bufferView":1,"componentType":5126,"count":133,"type":"VEC3"},{"bufferView":2,"componentType":5126,"count":133,"type":"VEC2"},{"bufferView":3,"componentType":5126,"count":133,"type":"VEC4"},{"bufferView":4,"componentType":5125,"count":648,"type":"SCALAR"},{"bufferView":5,"componentType":5126,"count":540,"type":"VEC3","min":[-0.24153704364873751,0.09865964410547114,-0.08412247692636383],"max":[0.24966899914877067,1.68,0.08412247692636383]},{"bufferView":6,"componentType":5126,"count":540,"type":"VEC3"},{"bufferView":7,"componentType":5126,"count":540,"type":"VEC2"},{"bufferView":8,"componentType":5126,"count":540,"type":"VEC4"},{"bufferView":9,"componentType":5125,"count":2496,"type":"SCALAR"},{"bufferView":10,"componentType":5126,"count":864,"type":"VEC3","min":[-1.0425551688038492,0.31,-0.8729633503621859],"max":[1.044543223170572,1.6742927157414893,0.8852880865870174]},{"bufferView":11,"componentType":5126,"count":864,"type":"VEC3"},{"bufferView":12,"componentType":5126,"count":864,"type":"VEC2"},{"bufferView":13,"componentType":5126,"count":864,"type":"VEC4"},{"bufferView":14,"componentType":5125,"count":2880,"type":"SCALAR"}],"bufferViews":[{"buffer":0,"byteOffset":0,"byteLength":1596,"target":34962},{"buffer":0,"byteOffset":1596,"byteLength":1596,"target":34962},{"buffer":0,"byteOffset":3192,"byteLength":1064,"target":34962},{"buffer":0,"byteOffset":4256,"byteLength":2128,"target":34962},{"buffer":0,"byteOffset":6384,"byteLength":2592,"target":34963},{"buffer":0,"byteOffset":8976,"byteLength":6480,"target":34962},{"buffer":0,"byteOffset":15456,"byteLength":6480,"target":34962},{"buffer":0,"byteOffset":21936,"byteLength":4320,"target":34962},{"buffer":0,"byteOffset":26256,"byteLength":8640,"target":34962},{"buffer":0,"byteOffset":34896,"byteLength":9984,"target":34963},{"buffer":0,"byteOffset":44880,"byteLength":10368,"target":34962},{"buffer":0,"byteOffset":55248,"byteLength":10368,"target":34962},{"buffer":0,"byteOffset":65616,"byteLength":6912,"target":34962},{"buffer":0,"byteOffset":72528,"byteLength":13824,"target":34962},{"buffer":0,"byteOffset":86352,"byteLength":11520,"target":34963}],"buffers":[{"byteLength":97872,"uri":"data:application/octet-stream;base64,"}]}