{"asset":{"version":"2.0","generator":"garden art.mjs"},"scene":0,"scenes":[{"nodes":[0]}],"nodes":[{"mesh":0}],"meshes":[{"primitives":[{"attributes":{"POSITION":0,"NORMAL":1,"TEXCOORD_0":2,"COLOR_0":3},"indices":4,"material":0},{"attributes":{"POSITION":5,"NORMAL":6,"TEXCOORD_0":7,"COLOR_0":8},"indices":9,"material":1},{"attributes":{"POSITION":10,"NORMAL":11,"TEXCOORD_0":12,"COLOR_0":13},"indices":14,"material":2},{"attributes":{"POSITION":15,"NORMAL":16,"TEXCOORD_0":17,"COLOR_0":18},"indices":19,"material":3}]}],"materials":[{"name":"earth","pbrMetallicRoughness":{"baseColorFactor":[1,1,1,1],"metallicFactor":0,"roughnessFactor":0.95}},{"name":"grain","pbrMetallicRoughness":{"baseColorFactor":[1,1,1,1],"metallicFactor":0,"roughnessFactor":0.8}},{"name":"stem","pbrMetallicRoughness":{"baseColorFactor":[1,1,1,1],"metallicFactor":0,"roughnessFactor":0.6}},{"name":"leaf","pbrMetallicRoughness":{"baseColorFactor":[1,1,1,1],"metallicFactor":0,"roughnessFactor":0.55},"doubleSided":true}],"accessors":[{"bufferView":0,"componentType":5126,"count":133,"type":"VEC3","min":[-0.64,0,-0.6221742774918517],"max":[0.64,0.12,0.6383796463637746]},{"bufferView":1,"componentType":5126,"count":133,"type":"VEC3"},{"bufferView":2,"componentType":5126,"count":133,"type":"VEC2"},{"bufferView":3,"componentType":5126,"count":133,"type":"VEC4"},{"bufferView":4,"componentType":5125,"count":648,"type":"SCALAR"},{"bufferView":5,"componentType":5126,"count":72,"type":"VEC3","min":[-0.55,0.10000000000000003,-0.32999999999999996],"max":[0.55,1.0167999999999997,-0.27]},{"bufferView":6,"componentType":5126,"count":72,"type":"VEC3"},{"bufferView":7,"componentType":5126,"count":72,"type":"VEC2"},{"bufferView":8,"componentType":5126,"count":72,"type":"VEC4"},{"bufferView":9,"componentType":5125,"count":108,"type":"SCALAR"},{"bufferView":10,"componentType":5126,"count":72,"type":"VEC3","min":[-0.09521058487898326,0.09730159598874631,-0.22924783736545473],"max":[0.029850124958340774,0.9164059126124053,-0.1707521626345453]},{"bufferView":11,"componentType":5126,"count":72,"type":"VEC3"},{"bufferView":12,"componentType":5126,"count":72,"type":"VEC2"},{"bufferView":13,"componentType":5126,"count":72,"type":"VEC4"},{"bufferView":14,"componentType":5125,"count":336,"type":"SCALAR"},{"bufferView":15,"componentType":5126,"count":360,"type":"VEC3","min":[-0.540495829941022,0.3141118696721969,-0.3968037467796572],"max":[0.519073228685281,0.9372791987283067,-0.06829997949350117]},{"bufferView":16,"componentType":5126,"count":360,"type":"VEC3"},{"bufferView":17,"componentType":5126,"count":360,"type":"VEC2"},{"bufferView":18,"componentType":5126,"count":360,"type":"VEC4"},{"bufferView":19,"componentType":5125,"count":1200,"type":"SCALAR"}],"bufferViews":[{"buffer":0,"byteOffset":0,"byteLength":1596,"target":34962},{"buffer":0,"byteOffset":1596,"byteLength":1596,"target":34962},{"buffer":0,"byteOffset":3192,"byteLength":1064,"target":34962},{"buffer":0,"byteOffset":4256,"byteLength":2128,"target":34962},{"buffer":0,"byteOffset":6384,"byteLength":2592,"target":34963},{"buffer":0,"byteOffset":8976,"byteLength":864,"target":34962},{"buffer":0,"byteOffset":9840,"byteLength":864,"target":34962},{"buffer":0,"byteOffset":10704,"byteLength":576,"target":34962},{"buffer":0,"byteOffset":11280,"byteLength":1152,"target":34962},{"buffer":0,"byteOffset":12432,"byteLength":432,"target":34963},{"buffer":0,"byteOffset":12864,"byteLength":864,"target":34962},{"buffer":0,"byteOffset":13728,"byteLength":864,"target":34962},{"buffer":0,"byteOffset":14592,"byteLength":576,"target":34962},{"buffer":0,"byteOffset":15168,"byteLength":1152,"target":34962},{"buffer":0,"byteOffset":16320,"byteLength":1344,"target":34963},{"buffer":0,"byteOffset":17664,"byteLength":4320,"target":34962},{"buffer":0,"byteOffset":21984,"byteLength":4320,"target":34962},{"buffer":0,"byteOffset":26304,"byteLength":2880,"target":34962},{"buffer":0,"byteOffset":29184,"byteLength":5760,"target":34962},{"buffer":0,"byteOffset":34944,"byteLength":4800,"target":34963}],"buffers":[{"byteLength":39744,"uri":"data:application/octet-stream;base64,"}]}