{"asset":{"version":"2.0","generator":"garden art.mjs"},"scene":0,"scenes":[{"nodes":[0]}],"nodes":[{"mesh":0}],"meshes":[{"primitives":[{"attributes":{"POSITION":0,"NORMAL":1,"TEXCOORD_0":2,"COLOR_0":3},"indices":4,"material":0},{"attributes":{"POSITION":5,"NORMAL":6,"TEXCOORD_0":7,"COLOR_0":8},"indices":9,"material":1},{"attributes":{"POSITION":10,"NORMAL":11,"TEXCOORD_0":12,"COLOR_0":13},"indices":14,"material":2}]}],"materials":[{"name":"earth","pbrMetallicRoughness":{"baseColorFactor":[1,1,1,1],"metallicFactor":0,"roughnessFactor":0.95}},{"name":"stem","pbrMetallicRoughness":{"baseColorFactor":[1,1,1,1],"metallicFactor":0,"roughnessFactor":0.6}},{"name":"leaf","pbrMetallicRoughness":{"baseColorFactor":[1,1,1,1],"metallicFactor":0,"roughnessFactor":0.55},"doubleSided":true}],"accessors":[{"bufferView":0,"componentType":5126,"count":133,"type":"VEC3","min":[-0.64,0,-0.6221742774918517],"max":[0.64,0.12,0.6383796463637746]},{"bufferView":1,"componentType":5126,"count":133,"type":"VEC3"},{"bufferView":2,"componentType":5126,"count":133,"type":"VEC2"},{"bufferView":3,"componentType":5126,"count":133,"type":"VEC4"},{"bufferView":4,"componentType":5125,"count":648,"type":"SCALAR"},{"bufferView":5,"componentType":5126,"count":4374,"type":"VEC3","min":[-0.19370317836911904,0.1,-0.1954246913253761],"max":[0.1372526971798383,2.6184963717963545,0.1650501795773729]},{"bufferView":6,"componentType":5126,"count":4374,"type":"VEC3"},{"bufferView":7,"componentType":5126,"count":4374,"type":"VEC2"},{"bufferView":8,"componentType":5126,"count":4374,"type":"VEC4"},{"bufferView":9,"componentType":5125,"count":20736,"type":"SCALAR"},{"bufferView":10,"componentType":5126,"count":180,"type":"VEC3","min":[-0.3207781724495216,2.3163345734681933,-0.35620516037165917],"max":[0.3572811168186899,2.6635486324684092,0.33518859935774226]},{"bufferView":11,"componentType":5126,"count":180,"type":"VEC3"},{"bufferView":12,"componentType":5126,"count":180,"type":"VEC2"},{"bufferView":13,"componentType":5126,"count":180,"type":"VEC4"},{"bufferView":14,"componentType":5125,"count":600,"type":"SCALAR"}],"bufferViews":[{"buffer":0,"byteOffset":0,"byteLength":1596,"target":34962},{"buffer":0,"byteOffset":1596,"byteLength":1596,"target":34962},{"buffer":0,"byteOffset":3192,"byteLength":1064,"target":34962},{"buffer":0,"byteOffset":4256,"byteLength":2128,"target":34962},{"buffer":0,"byteOffset":6384,"byteLength":2592,"target":34963},{"buffer":0,"byteOffset":8976,"byteLength":52488,"target":34962},{"buffer":0,"byteOffset":61464,"byteLength":52488,"target":34962},{"buffer":0,"byteOffset":113952,"byteLength":34992,"target":34962},{"buffer":0,"byteOffset":148944,"byteLength":69984,"target":34962},{"buffer":0,"byteOffset":218928,"byteLength":82944,"target":34963},{"buffer":0,"byteOffset":301872,"byteLength":2160,"target":34962},{"buffer":0,"byteOffset":304032,"byteLength":2160,"target":34962},{"buffer":0,"byteOffset":306192,"byteLength":1440,"target":34962},{"buffer":0,"byteOffset":307632,"byteLength":2880,"target":34962},{"buffer":0,"byteOffset":310512,"byteLength":2400,"target":34963}],"buffers":[{"byteLength":312912,"uri":"data:application/octet-stream;base64,"}]}