{"asset":{"version":"2.0","generator":"garden art.mjs"},"scene":0,"scenes":[{"nodes":[0]}],"nodes":[{"mesh":0}],"meshes":[{"primitives":[{"attributes":{"POSITION":0,"NORMAL":1,"TEXCOORD_0":2,"COLOR_0":3},"indices":4,"material":0},{"attributes":{"POSITION":5,"NORMAL":6,"TEXCOORD_0":7,"COLOR_0":8},"indices":9,"material":1},{"attributes":{"POSITION":10,"NORMAL":11,"TEXCOORD_0":12,"COLOR_0":13},"indices":14,"material":2}]}],"materials":[{"name":"leaf","pbrMetallicRoughness":{"baseColorFactor":[1,1,1,1],"metallicFactor":0,"roughnessFactor":0.55},"doubleSided":true},{"name":"stem","pbrMetallicRoughness":{"baseColorFactor":[1,1,1,1],"metallicFactor":0,"roughnessFactor":0.6}},{"name":"plain","pbrMetallicRoughness":{"baseColorFactor":[1,1,1,1],"metallicFactor":0,"roughnessFactor":0.5}}],"accessors":[{"bufferView":0,"componentType":5126,"count":864,"type":"VEC3","min":[-0.21320484518625699,0,-0.16326654405774382],"max":[0.18267639027058624,0.3790161796075403,0.2007820871177045]},{"bufferView":1,"componentType":5126,"count":864,"type":"VEC3"},{"bufferView":2,"componentType":5126,"count":864,"type":"VEC2"},{"bufferView":3,"componentType":5126,"count":864,"type":"VEC4"},{"bufferView":4,"componentType":5125,"count":2880,"type":"SCALAR"},{"bufferView":5,"componentType":5126,"count":135,"type":"VEC3","min":[-0.1968351812438588,0,-0.1471029099792401],"max":[0.059430114232084726,0.31945340014528484,0.18655363650945778]},{"bufferView":6,"componentType":5126,"count":135,"type":"VEC3"},{"bufferView":7,"componentType":5126,"count":135,"type":"VEC2"},{"bufferView":8,"componentType":5126,"count":135,"type":"VEC4"},{"bufferView":9,"componentType":5125,"count":576,"type":"SCALAR"},{"bufferView":10,"componentType":5126,"count":72,"type":"VEC3","min":[-0.2028477666282995,0.2646082361601293,-0.15557569205016675],"max":[0.0687506223077735,0.34945340014528486,0.19502641858038441]},{"bufferView":11,"componentType":5126,"count":72,"type":"VEC3"},{"bufferView":12,"componentType":5126,"count":72,"type":"VEC2"},{"bufferView":13,"componentType":5126,"count":72,"type":"VEC4"},{"bufferView":14,"componentType":5125,"count":270,"type":"SCALAR"}],"bufferViews":[{"buffer":0,"byteOffset":0,"byteLength":10368,"target":34962},{"buffer":0,"byteOffset":10368,"byteLength":10368,"target":34962},{"buffer":0,"byteOffset":20736,"byteLength":6912,"target":34962},{"buffer":0,"byteOffset":27648,"byteLength":13824,"target":34962},{"buffer":0,"byteOffset":41472,"byteLength":11520,"target":34963},{"buffer":0,"byteOffset":52992,"byteLength":1620,"target":34962},{"buffer":0,"byteOffset":54612,"byteLength":1620,"target":34962},{"buffer":0,"byteOffset":56232,"byteLength":1080,"target":34962},{"buffer":0,"byteOffset":57312,"byteLength":2160,"target":34962},{"buffer":0,"byteOffset":59472,"byteLength":2304,"target":34963},{"buffer":0,"byteOffset":61776,"byteLength":864,"target":34962},{"buffer":0,"byteOffset":62640,"byteLength":864,"target":34962},{"buffer":0,"byteOffset":63504,"byteLength":576,"target":34962},{"buffer":0,"byteOffset":64080,"byteLength":1152,"target":34962},{"buffer":0,"byteOffset":65232,"byteLength":1080,"target":34963}],"buffers":[{"byteLength":66312,"uri":"data:application/octet-stream;base64,"}]}