{"asset":{"version":"2.0","generator":"garden art.mjs"},"scene":0,"scenes":[{"nodes":[0]}],"nodes":[{"mesh":0}],"meshes":[{"primitives":[{"attributes":{"POSITION":0,"NORMAL":1,"TEXCOORD_0":2,"COLOR_0":3},"indices":4,"material":0},{"attributes":{"POSITION":5,"NORMAL":6,"TEXCOORD_0":7,"COLOR_0":8},"indices":9,"material":1},{"attributes":{"POSITION":10,"NORMAL":11,"TEXCOORD_0":12,"COLOR_0":13},"indices":14,"material":2}]}],"materials":[{"name":"leaf","pbrMetallicRoughness":{"baseColorFactor":[1,1,1,1],"metallicFactor":0,"roughnessFactor":0.55},"doubleSided":true},{"name":"stem","pbrMetallicRoughness":{"baseColorFactor":[1,1,1,1],"metallicFactor":0,"roughnessFactor":0.6}},{"name":"plain","pbrMetallicRoughness":{"baseColorFactor":[1,1,1,1],"metallicFactor":0,"roughnessFactor":0.5}}],"accessors":[{"bufferView":0,"componentType":5126,"count":864,"type":"VEC3","min":[-0.19624636536389622,0,-0.18507075277392784],"max":[0.14520030092172692,0.39063815111705646,0.16102807234525915]},{"bufferView":1,"componentType":5126,"count":864,"type":"VEC3"},{"bufferView":2,"componentType":5126,"count":864,"type":"VEC2"},{"bufferView":3,"componentType":5126,"count":864,"type":"VEC4"},{"bufferView":4,"componentType":5125,"count":2880,"type":"SCALAR"},{"bufferView":5,"componentType":5126,"count":135,"type":"VEC3","min":[0.011279614231137595,0,-0.16890711869542413],"max":[0.12883063697932873,0.29226993206422774,0.1372652209901998]},{"bufferView":6,"componentType":5126,"count":135,"type":"VEC3"},{"bufferView":7,"componentType":5126,"count":135,"type":"VEC2"},{"bufferView":8,"componentType":5126,"count":135,"type":"VEC4"},{"bufferView":9,"componentType":5125,"count":576,"type":"SCALAR"},{"bufferView":10,"componentType":5126,"count":72,"type":"VEC3","min":[0.0052670288466968584,0.25783091959543525,-0.17737990076635077],"max":[0.13815114505501752,0.32226993206422777,0.14573800306112644]},{"bufferView":11,"componentType":5126,"count":72,"type":"VEC3"},{"bufferView":12,"componentType":5126,"count":72,"type":"VEC2"},{"bufferView":13,"componentType":5126,"count":72,"type":"VEC4"},{"bufferView":14,"componentType":5125,"count":270,"type":"SCALAR"}],"bufferViews":[{"buffer":0,"byteOffset":0,"byteLength":10368,"target":34962},{"buffer":0,"byteOffset":10368,"byteLength":10368,"target":34962},{"buffer":0,"byteOffset":20736,"byteLength":6912,"target":34962},{"buffer":0,"byteOffset":27648,"byteLength":13824,"target":34962},{"buffer":0,"byteOffset":41472,"byteLength":11520,"target":34963},{"buffer":0,"byteOffset":52992,"byteLength":1620,"target":34962},{"buffer":0,"byteOffset":54612,"byteLength":1620,"target":34962},{"buffer":0,"byteOffset":56232,"byteLength":1080,"target":34962},{"buffer":0,"byteOffset":57312,"byteLength":2160,"target":34962},{"buffer":0,"byteOffset":59472,"byteLength":2304,"target":34963},{"buffer":0,"byteOffset":61776,"byteLength":864,"target":34962},{"buffer":0,"byteOffset":62640,"byteLength":864,"target":34962},{"buffer":0,"byteOffset":63504,"byteLength":576,"target":34962},{"buffer":0,"byteOffset":64080,"byteLength":1152,"target":34962},{"buffer":0,"byteOffset":65232,"byteLength":1080,"target":34963}],"buffers":[{"byteLength":66312,"uri":"data:application/octet-stream;base64,"}]}