{"asset":{"version":"2.0","generator":"garden art.mjs"},"scene":0,"scenes":[{"nodes":[0]}],"nodes":[{"mesh":0}],"meshes":[{"primitives":[{"attributes":{"POSITION":0,"NORMAL":1,"TEXCOORD_0":2,"COLOR_0":3},"indices":4,"material":0}]}],"materials":[{"name":"leaf","pbrMetallicRoughness":{"baseColorFactor":[1,1,1,1],"metallicFactor":0,"roughnessFactor":0.55},"doubleSided":true}],"accessors":[{"bufferView":0,"componentType":5126,"count":324,"type":"VEC3","min":[-0.15598962712371467,0,-0.20394394891193474],"max":[0.10383178511148397,0.3673877384879164,0.24935265141168989]},{"bufferView":1,"componentType":5126,"count":324,"type":"VEC3"},{"bufferView":2,"componentType":5126,"count":324,"type":"VEC2"},{"bufferView":3,"componentType":5126,"count":324,"type":"VEC4"},{"bufferView":4,"componentType":5125,"count":1080,"type":"SCALAR"}],"bufferViews":[{"buffer":0,"byteOffset":0,"byteLength":3888,"target":34962},{"buffer":0,"byteOffset":3888,"byteLength":3888,"target":34962},{"buffer":0,"byteOffset":7776,"byteLength":2592,"target":34962},{"buffer":0,"byteOffset":10368,"byteLength":5184,"target":34962},{"buffer":0,"byteOffset":15552,"byteLength":4320,"target":34963}],"buffers":[{"byteLength":19872,"uri":"data:application/octet-stream;base64,"}]}